NotoSerifTamilSlanted-SemiCondensedThin.ufo
<glyph name="exclam" format="2">
  <advance width="236.03333333333333"/>
  <unicode hex="0021"/>
  <outline>
    <contour>
      <point x="78.36666666666666" y="167.0" type="line"/>
      <point x="102.36666666666667" y="167.0" type="line"/>
      <point x="223.0" y="714.0" type="line"/>
      <point x="193.0" y="714.0" type="line"/>
    </contour>
    <contour>
      <point x="56.2" y="-7.9" type="curve" smooth="yes"/>
      <point x="73.46666666666667" y="-7.9"/>
      <point x="88.83333333333333" y="9.366666666666667"/>
      <point x="88.83333333333333" y="41.63333333333333" type="curve" smooth="yes"/>
      <point x="88.83333333333333" y="61.733333333333334"/>
      <point x="77.83333333333333" y="70.1"/>
      <point x="64.46666666666667" y="70.1" type="curve" smooth="yes"/>
      <point x="44.83333333333333" y="70.1"/>
      <point x="29.833333333333336" y="50.833333333333336"/>
      <point x="29.833333333333336" y="22.2" type="curve" smooth="yes"/>
      <point x="29.833333333333336" y="1.4666666666666666"/>
      <point x="39.833333333333336" y="-7.9"/>
    </contour>
  </outline>
</glyph>
<glyph name="quotedbl" format="2">
  <advance width="263.8666666666667"/>
  <unicode hex="0022"/>
  <outline>
    <contour>
      <point x="96.43333333333332" y="499.0" type="line"/>
      <point x="116.43333333333334" y="499.0" type="line"/>
      <point x="167.43333333333334" y="714.0" type="line"/>
      <point x="137.43333333333334" y="714.0" type="line"/>
    </contour>
    <contour>
      <point x="221.66666666666666" y="499.0" type="line"/>
      <point x="241.66666666666669" y="499.0" type="line"/>
      <point x="292.6666666666667" y="714.0" type="line"/>
      <point x="262.6666666666667" y="714.0" type="line"/>
    </contour>
  </outline>
</glyph>
<glyph name="numbersign" format="2">
  <advance width="515.3666666666667"/>
  <unicode hex="0023"/>
  <outline>
    <contour>
      <point x="62.366666666666674" y="0.0" type="line"/>
      <point x="90.36666666666666" y="0.0" type="line"/>
      <point x="152.9" y="219.0" type="line"/>
      <point x="322.9" y="219.0" type="line"/>
      <point x="260.3666666666667" y="0.0" type="line"/>
      <point x="288.3666666666667" y="0.0" type="line"/>
      <point x="350.90000000000003" y="219.0" type="line"/>
      <point x="455.90000000000003" y="219.0" type="line"/>
      <point x="460.90000000000003" y="244.0" type="line"/>
      <point x="357.90000000000003" y="244.0" type="line"/>
      <point x="426.43333333333334" y="483.0" type="line"/>
      <point x="531.4333333333333" y="483.0" type="line"/>
      <point x="536.0666666666667" y="508.0" type="line"/>
      <point x="434.06666666666666" y="508.0" type="line"/>
      <point x="492.9666666666667" y="714.0" type="line"/>
      <point x="464.96666666666664" y="714.0" type="line"/>
      <point x="406.06666666666666" y="508.0" type="line"/>
      <point x="236.06666666666666" y="508.0" type="line"/>
      <point x="294.9666666666667" y="714.0" type="line"/>
      <point x="266.96666666666664" y="714.0" type="line"/>
      <point x="208.0666666666667" y="508.0" type="line"/>
      <point x="100.06666666666666" y="508.0" type="line"/>
      <point x="95.43333333333334" y="483.0" type="line"/>
      <point x="200.43333333333334" y="483.0" type="line"/>
      <point x="131.9" y="244.0" type="line"/>
      <point x="24.9" y="244.0" type="line"/>
      <point x="19.9" y="219.0" type="line"/>
      <point x="124.89999999999999" y="219.0" type="line"/>
    </contour>
    <contour>
      <point x="159.9" y="244.0" type="line"/>
      <point x="228.43333333333334" y="483.0" type="line"/>
      <point x="398.43333333333334" y="483.0" type="line"/>
      <point x="329.9" y="244.0" type="line"/>
    </contour>
  </outline>
</glyph>
<glyph name="percent" format="2">
  <advance width="786.1"/>
  <unicode hex="0025"/>
  <outline>
    <contour>
      <point x="155.33333333333331" y="0.0" type="line"/>
      <point x="184.06666666666666" y="0.0" type="line"/>
      <point x="652.6333333333333" y="714.0" type="line"/>
      <point x="623.9000000000001" y="714.0" type="line"/>
    </contour>
    <contour>
      <point x="175.39999999999998" y="283.0" type="curve" smooth="yes"/>
      <point x="291.5333333333333" y="283.0"/>
      <point x="343.43333333333334" y="454.1"/>
      <point x="343.43333333333334" y="565.8666666666667" type="curve" smooth="yes"/>
      <point x="343.43333333333334" y="659.3000000000001"/>
      <point x="309.9" y="721.0"/>
      <point x="241.66666666666666" y="721.0" type="curve" smooth="yes"/>
      <point x="124.73333333333333" y="721.0"/>
      <point x="69.83333333333334" y="549.9"/>
      <point x="69.83333333333334" y="439.3" type="curve"/>
      <point x="69.83333333333334" y="336.8"/>
      <point x="109.16666666666666" y="283.0"/>
    </contour>
    <contour>
      <point x="176.13333333333335" y="307.3666666666667" type="curve" smooth="yes"/>
      <point x="124.53333333333333" y="307.3666666666667"/>
      <point x="97.2" y="349.7"/>
      <point x="97.2" y="439.29999999999995" type="curve" smooth="yes"/>
      <point x="97.2" y="530.5333333333333"/>
      <point x="143.36666666666665" y="696.6333333333333"/>
      <point x="240.93333333333334" y="696.6333333333333" type="curve" smooth="yes"/>
      <point x="287.46666666666664" y="696.6333333333333"/>
      <point x="316.06666666666666" y="652.3666666666666"/>
      <point x="316.06666666666666" y="565.8666666666667" type="curve" smooth="yes"/>
      <point x="316.06666666666666" y="473.46666666666664"/>
      <point x="271.06666666666666" y="307.3666666666667"/>
    </contour>
    <contour>
      <point x="571.7333333333333" y="-6.0" type="curve" smooth="yes"/>
      <point x="687.3333333333334" y="-6.0"/>
      <point x="738.5" y="165.1"/>
      <point x="738.5" y="276.8666666666667" type="curve" smooth="yes"/>
      <point x="738.5" y="370.3"/>
      <point x="704.9666666666667" y="432.0"/>
      <point x="636.7333333333333" y="432.0" type="curve" smooth="yes"/>
      <point x="519.8" y="432.0"/>
      <point x="464.9" y="260.9"/>
      <point x="464.9" y="150.29999999999998" type="curve"/>
      <point x="464.9" y="48.96666666666667"/>
      <point x="504.06666666666666" y="-6.0"/>
    </contour>
    <contour>
      <point x="572.4666666666667" y="18.366666666666667" type="curve" smooth="yes"/>
      <point x="519.6" y="18.366666666666667"/>
      <point x="492.2666666666667" y="60.7"/>
      <point x="492.2666666666667" y="150.29999999999998" type="curve" smooth="yes"/>
      <point x="492.2666666666667" y="241.53333333333333"/>
      <point x="535.2666666666667" y="407.6333333333333"/>
      <point x="636.0" y="407.6333333333333" type="curve" smooth="yes"/>
      <point x="682.5333333333334" y="407.6333333333333"/>
      <point x="711.1333333333333" y="363.3666666666667"/>
      <point x="711.1333333333333" y="276.8666666666667" type="curve" smooth="yes"/>
      <point x="711.1333333333333" y="184.46666666666667"/>
      <point x="666.8666666666667" y="18.366666666666667"/>
    </contour>
  </outline>
</glyph>
<glyph name="quotesingle" format="2">
  <advance width="126.6"/>
  <unicode hex="0027"/>
  <outline>
    <contour>
      <point x="95.2" y="530.0" type="line"/>
      <point x="115.19999999999999" y="530.0" type="line"/>
      <point x="159.2" y="714.0" type="line"/>
      <point x="129.2" y="714.0" type="line"/>
    </contour>
  </outline>
</glyph>
<glyph name="parenleft" format="2">
  <advance width="256.4666666666667"/>
  <unicode hex="0028"/>
  <outline>
    <contour>
      <point x="139.33333333333331" y="-115.83333333333334" type="curve"/>
      <point x="144.96666666666667" y="-91.56666666666666" type="line"/>
      <point x="93.23333333333333" y="-43.96666666666667"/>
      <point x="64.13333333333334" y="67.43333333333334"/>
      <point x="64.13333333333334" y="181.3" type="curve" smooth="yes"/>
      <point x="64.13333333333334" y="358.9"/>
      <point x="135.46666666666667" y="597.9"/>
      <point x="318.8666666666667" y="716.8" type="curve"/>
      <point x="324.5" y="741.8" type="line"/>
      <point x="114.53333333333333" y="629.2333333333333"/>
      <point x="36.13333333333333" y="382.8333333333333"/>
      <point x="36.13333333333333" y="181.4" type="curve" smooth="yes"/>
      <point x="36.13333333333333" y="45.300000000000004"/>
      <point x="70.13333333333333" y="-59.833333333333336"/>
    </contour>
  </outline>
</glyph>
<glyph name="parenright" format="2">
  <advance width="256.4666666666667"/>
  <unicode hex="0029"/>
  <outline>
    <contour>
      <point x="-61.666666666666664" y="-115.83333333333333" type="line"/>
      <point x="148.29999999999998" y="-3.2666666666666693"/>
      <point x="226.70000000000002" y="243.13333333333333"/>
      <point x="226.70000000000002" y="444.56666666666666" type="curve" smooth="yes"/>
      <point x="226.70000000000002" y="580.6666666666666"/>
      <point x="192.70000000000002" y="685.8"/>
      <point x="123.50000000000001" y="741.8" type="curve"/>
      <point x="117.86666666666666" y="717.5333333333333" type="line"/>
      <point x="169.6" y="669.9333333333334"/>
      <point x="198.70000000000002" y="558.5333333333333"/>
      <point x="198.70000000000002" y="444.66666666666663" type="curve" smooth="yes"/>
      <point x="198.70000000000002" y="267.06666666666666"/>
      <point x="127.36666666666666" y="28.066666666666663"/>
      <point x="-56.03333333333333" y="-90.83333333333333" type="curve"/>
    </contour>
  </outline>
</glyph>
<glyph name="asterisk" format="2">
  <advance width="361.06666666666666"/>
  <unicode hex="002A"/>
  <outline>
    <contour>
      <point x="230.46666666666667" y="398.6333333333333" type="line"/>
      <point x="251.63333333333333" y="563.3666666666667" type="line"/>
      <point x="357.56666666666666" y="457.5" type="line"/>
      <point x="380.8333333333333" y="487.56666666666666" type="line"/>
      <point x="253.83333333333334" y="578.2666666666667" type="line"/>
      <point x="407.4666666666667" y="609.1" type="line"/>
      <point x="397.73333333333335" y="648.0666666666667" type="line"/>
      <point x="257.6333333333333" y="592.2666666666667" type="line"/>
      <point x="303.79999999999995" y="751.7333333333333" type="line"/>
      <point x="264.3666666666667" y="760.0" type="line"/>
      <point x="243.1" y="595.9" type="line"/>
      <point x="137.8" y="704.6666666666666" type="line"/>
      <point x="112.63333333333333" y="672.3333333333334" type="line"/>
      <point x="239.0" y="581.0" type="line"/>
      <point x="86.0" y="549.5333333333333" type="line"/>
      <point x="97.0" y="511.83333333333337" type="line"/>
      <point x="235.83333333333331" y="567.0" type="line"/>
      <point x="189.76666666666668" y="407.53333333333336" type="line"/>
    </contour>
  </outline>
</glyph>
<glyph name="plus" format="2">
  <advance width="509.8666666666667"/>
  <unicode hex="002B"/>
  <outline>
    <contour>
      <point x="246.3" y="143.0" type="line"/>
      <point x="275.0333333333333" y="143.0" type="line"/>
      <point x="275.0333333333333" y="343.3666666666667" type="line"/>
      <point x="456.23333333333335" y="343.3666666666667" type="line"/>
      <point x="456.23333333333335" y="371.3666666666667" type="line"/>
      <point x="275.0333333333333" y="371.3666666666667" type="line"/>
      <point x="275.0333333333333" y="572.0" type="line"/>
      <point x="246.3" y="572.0" type="line"/>
      <point x="246.3" y="371.3666666666667" type="line"/>
      <point x="65.36666666666667" y="371.3666666666667" type="line"/>
      <point x="65.36666666666667" y="343.3666666666667" type="line"/>
      <point x="246.3" y="343.3666666666667" type="line"/>
    </contour>
  </outline>
</glyph>
<glyph name="comma" format="2">
  <advance width="168.16666666666666"/>
  <unicode hex="002C"/>
  <outline>
    <contour>
      <point x="-47.0" y="-139.26666666666668" type="line"/>
      <point x="44.166666666666664" y="-114.9"/>
      <point x="63.8" y="-52.63333333333333"/>
      <point x="63.8" y="15.0" type="curve" smooth="yes"/>
      <point x="63.8" y="51.0"/>
      <point x="49.800000000000004" y="73.0"/>
      <point x="29.8" y="73.0" type="curve" smooth="yes"/>
      <point x="9.8" y="73.0"/>
      <point x="-0.20000000000000018" y="59.0"/>
      <point x="-0.20000000000000018" y="42.0" type="curve" smooth="yes"/>
      <point x="-0.20000000000000018" y="11.0"/>
      <point x="34.8" y="12.0"/>
      <point x="34.8" y="-22.0" type="curve" smooth="yes"/>
      <point x="34.8" y="-61.266666666666666"/>
      <point x="10.533333333333333" y="-100.53333333333333"/>
      <point x="-49.266666666666666" y="-118.89999999999999" type="curve"/>
    </contour>
  </outline>
</glyph>
<glyph name="hyphen" format="2">
  <advance width="285.8"/>
  <unicode hex="002D"/>
  <outline>
    <contour>
      <point x="20.8" y="261.9666666666667" type="line"/>
      <point x="260.26666666666665" y="261.9666666666667" type="line"/>
      <point x="265.6333333333333" y="287.96666666666664" type="line"/>
      <point x="26.166666666666668" y="287.96666666666664" type="line"/>
    </contour>
  </outline>
</glyph>
<glyph name="period" format="2">
  <advance width="168.16666666666666"/>
  <unicode hex="002E"/>
  <outline>
    <contour>
      <point x="30.366666666666667" y="-5.366666666666666" type="curve" smooth="yes"/>
      <point x="46.36666666666667" y="-5.366666666666666"/>
      <point x="63.0" y="9.366666666666667"/>
      <point x="63.0" y="44.16666666666667" type="curve" smooth="yes"/>
      <point x="63.0" y="64.26666666666667"/>
      <point x="52.0" y="72.63333333333333"/>
      <point x="38.63333333333333" y="72.63333333333333" type="curve" smooth="yes"/>
      <point x="19.633333333333333" y="72.63333333333333"/>
      <point x="4.0" y="54.63333333333333"/>
      <point x="4.0" y="24.73333333333333" type="curve" smooth="yes"/>
      <point x="4.0" y="4.0"/>
      <point x="14.0" y="-5.366666666666666"/>
    </contour>
  </outline>
</glyph>
<glyph name="slash" format="2">
  <advance width="265.6333333333334"/>
  <unicode hex="002F"/>
  <outline>
    <contour>
      <point x="-77.9" y="-121.0" type="line"/>
      <point x="-49.53333333333333" y="-121.0" type="line"/>
      <point x="339.4" y="760.0" type="line"/>
      <point x="309.76666666666665" y="760.0" type="line"/>
    </contour>
  </outline>
</glyph>
<glyph name="zero" format="2">
  <advance width="479.1"/>
  <unicode hex="0030"/>
  <outline>
    <contour>
      <point x="186.33333333333334" y="-11.0" type="curve" smooth="yes"/>
      <point x="391.0" y="-11.0"/>
      <point x="463.40000000000003" y="296.2"/>
      <point x="463.40000000000003" y="496.2333333333333" type="curve" smooth="yes"/>
      <point x="463.40000000000003" y="656.1333333333333"/>
      <point x="403.40000000000003" y="723.3666666666667"/>
      <point x="316.43333333333334" y="723.3666666666667" type="curve" smooth="yes"/>
      <point x="125.03333333333333" y="723.3666666666667"/>
      <point x="41.0" y="422.76666666666665"/>
      <point x="41.0" y="215.70000000000002" type="curve" smooth="yes"/>
      <point x="41.0" y="66.73333333333333"/>
      <point x="94.76666666666668" y="-11.0"/>
    </contour>
    <contour>
      <point x="189.86666666666667" y="14.0" type="curve" smooth="yes"/>
      <point x="112.66666666666667" y="14.0"/>
      <point x="69.0" y="83.2"/>
      <point x="69.0" y="216.96666666666664" type="curve" smooth="yes"/>
      <point x="69.0" y="403.4"/>
      <point x="144.13333333333333" y="698.7333333333333"/>
      <point x="313.96666666666664" y="698.7333333333333" type="curve" smooth="yes"/>
      <point x="387.3" y="698.7333333333333"/>
      <point x="435.40000000000003" y="637.7666666666667"/>
      <point x="435.40000000000003" y="493.06666666666666" type="curve" smooth="yes"/>
      <point x="435.40000000000003" y="314.8333333333333"/>
      <point x="366.83333333333337" y="14.0"/>
    </contour>
  </outline>
</glyph>
<glyph name="one" format="2">
  <advance width="479.1"/>
  <unicode hex="0031"/>
  <outline>
    <contour>
      <point x="41.83333333333333" y="0.0" type="line"/>
      <point x="329.3666666666667" y="0.0" type="line"/>
      <point x="334.3666666666667" y="20.0" type="line"/>
      <point x="253.53333333333336" y="20.0" type="line" smooth="yes"/>
      <point x="217.73333333333335" y="20.0"/>
      <point x="211.83333333333331" y="23.633333333333333"/>
      <point x="211.83333333333331" y="43.199999999999996" type="curve" smooth="yes"/>
      <point x="211.83333333333331" y="53.733333333333334"/>
      <point x="214.2" y="69.76666666666667"/>
      <point x="217.9333333333333" y="87.7" type="curve" smooth="yes"/>
      <point x="351.4666666666667" y="718.0" type="line"/>
      <point x="343.46666666666664" y="718.0" type="line"/>
      <point x="286.8" y="677.1" type="line" smooth="yes"/>
      <point x="217.76666666666668" y="626.3666666666667"/>
      <point x="178.63333333333333" y="605.6"/>
      <point x="136.3" y="595.9666666666667" type="curve"/>
      <point x="136.3" y="586.0666666666667"/>
      <point x="138.93333333333334" y="576.2333333333333"/>
      <point x="160.56666666666666" y="576.2333333333333" type="curve" smooth="yes"/>
      <point x="191.83333333333331" y="576.2333333333333"/>
      <point x="237.23333333333335" y="607.7666666666667"/>
      <point x="316.0" y="674.2333333333333" type="curve"/>
      <point x="317.3666666666667" y="674.2333333333333" type="line"/>
      <point x="310.3666666666667" y="647.3333333333333"/>
      <point x="296.9" y="591.1"/>
      <point x="273.73333333333335" y="480.5333333333333" type="curve" smooth="yes"/>
      <point x="189.93333333333334" y="87.7" type="line" smooth="yes"/>
      <point x="176.46666666666667" y="24.099999999999998"/>
      <point x="170.93333333333334" y="20.0"/>
      <point x="118.16666666666667" y="20.0" type="curve" smooth="yes"/>
      <point x="46.83333333333333" y="20.0" type="line"/>
    </contour>
  </outline>
</glyph>
<glyph name="two" format="2">
  <advance width="479.1"/>
  <unicode hex="0032"/>
  <outline>
    <contour>
      <point x="-1.7333333333333334" y="0.0" type="line"/>
      <point x="354.96666666666664" y="0.0" type="line"/>
      <point x="381.5" y="120.1" type="line"/>
      <point x="361.5" y="120.1" type="line"/>
      <point x="352.1666666666667" y="85.3" type="line" smooth="yes"/>
      <point x="337.43333333333334" y="29.166666666666668"/>
      <point x="332.90000000000003" y="25.0"/>
      <point x="276.1666666666667" y="25.0" type="curve" smooth="yes"/>
      <point x="32.266666666666666" y="25.0" type="line"/>
      <point x="261.0" y="254.03333333333333" type="line" smooth="yes"/>
      <point x="386.2666666666667" y="379.0"/>
      <point x="437.43333333333334" y="465.7666666666667"/>
      <point x="437.43333333333334" y="573.6666666666667" type="curve" smooth="yes"/>
      <point x="437.43333333333334" y="664.3666666666667"/>
      <point x="380.4" y="724.0"/>
      <point x="283.1666666666667" y="724.0" type="curve" smooth="yes"/>
      <point x="174.33333333333331" y="724.0"/>
      <point x="115.89999999999999" y="647.4"/>
      <point x="115.89999999999999" y="589.3" type="curve" smooth="yes"/>
      <point x="115.89999999999999" y="570.3666666666667"/>
      <point x="125.73333333333333" y="562.7333333333333"/>
      <point x="140.89999999999998" y="562.7333333333333" type="curve"/>
      <point x="140.9" y="640.8666666666667"/>
      <point x="192.53333333333333" y="699.0"/>
      <point x="282.43333333333334" y="699.0" type="curve" smooth="yes"/>
      <point x="361.66666666666663" y="699.0"/>
      <point x="409.43333333333334" y="650.0"/>
      <point x="409.43333333333334" y="572.9333333333333" type="curve" smooth="yes"/>
      <point x="409.43333333333334" y="473.73333333333335"/>
      <point x="362.16666666666663" y="392.5333333333333"/>
      <point x="240.06666666666666" y="268.73333333333335" type="curve" smooth="yes"/>
      <point x="7.2666666666666675" y="34.266666666666666" type="line"/>
    </contour>
  </outline>
</glyph>
<glyph name="three" format="2">
  <advance width="479.1"/>
  <unicode hex="0033"/>
  <outline>
    <contour>
      <point x="165.73333333333335" y="-10.0" type="curve" smooth="yes"/>
      <point x="295.3666666666667" y="-10.0"/>
      <point x="383.1333333333334" y="68.16666666666666"/>
      <point x="383.1333333333334" y="225.73333333333335" type="curve" smooth="yes"/>
      <point x="383.1333333333334" y="310.06666666666666"/>
      <point x="324.3666666666667" y="366.06666666666666"/>
      <point x="266.06666666666666" y="375.0" type="curve"/>
      <point x="381.4666666666667" y="392.76666666666665"/>
      <point x="435.9666666666667" y="475.59999999999997"/>
      <point x="435.9666666666667" y="575.7666666666668" type="curve" smooth="yes"/>
      <point x="435.9666666666667" y="664.5666666666667"/>
      <point x="373.8333333333333" y="724.0"/>
      <point x="287.9" y="724.0" type="curve" smooth="yes"/>
      <point x="185.16666666666666" y="724.0"/>
      <point x="117.89999999999999" y="653.9666666666667"/>
      <point x="117.89999999999999" y="573.0" type="curve" smooth="yes"/>
      <point x="117.89999999999999" y="550.3666666666667"/>
      <point x="130.53333333333333" y="539.3666666666667"/>
      <point x="143.16666666666666" y="539.3666666666667" type="curve"/>
      <point x="143.16666666666666" y="623.5666666666667"/>
      <point x="179.70000000000002" y="699.0"/>
      <point x="286.53333333333336" y="699.0" type="curve" smooth="yes"/>
      <point x="360.90000000000003" y="699.0"/>
      <point x="407.96666666666664" y="647.7666666666667"/>
      <point x="407.96666666666664" y="575.1333333333333" type="curve" smooth="yes"/>
      <point x="407.96666666666664" y="454.56666666666666"/>
      <point x="321.8333333333333" y="389.0"/>
      <point x="216.53333333333333" y="389.0" type="curve" smooth="yes"/>
      <point x="186.73333333333332" y="389.0" type="line"/>
      <point x="178.73333333333332" y="364.0" type="line"/>
      <point x="216.0666666666667" y="364.0" type="line" smooth="yes"/>
      <point x="301.8" y="364.0"/>
      <point x="355.1333333333333" y="301.90000000000003"/>
      <point x="355.1333333333333" y="225.10000000000002" type="curve" smooth="yes"/>
      <point x="355.1333333333333" y="83.83333333333333"/>
      <point x="276.3" y="15.0"/>
      <point x="167.73333333333335" y="15.0" type="curve" smooth="yes"/>
      <point x="69.53333333333333" y="15.0"/>
      <point x="31.8" y="61.833333333333336"/>
      <point x="31.8" y="133.9" type="curve"/>
      <point x="17.366666666666664" y="133.9"/>
      <point x="6.433333333333334" y="122.73333333333333"/>
      <point x="6.433333333333334" y="105.8" type="curve" smooth="yes"/>
      <point x="6.433333333333334" y="48.733333333333334"/>
      <point x="51.36666666666667" y="-10.0"/>
    </contour>
  </outline>
</glyph>
<glyph name="four" format="2">
  <advance width="479.1"/>
  <unicode hex="0034"/>
  <outline>
    <contour>
      <point x="114.63333333333334" y="0.0" type="line"/>
      <point x="385.0" y="0.0" type="line"/>
      <point x="390.0" y="20.0" type="line"/>
      <point x="334.5" y="20.0" type="line" smooth="yes"/>
      <point x="294.90000000000003" y="20.0"/>
      <point x="288.90000000000003" y="24.466666666666665"/>
      <point x="288.90000000000003" y="48.53333333333333" type="curve" smooth="yes"/>
      <point x="288.90000000000003" y="57.46666666666667"/>
      <point x="291.2666666666667" y="71.46666666666667"/>
      <point x="294.2666666666667" y="86.2" type="curve" smooth="yes"/>
      <point x="426.90000000000003" y="714.0" type="line"/>
      <point x="394.7666666666667" y="714.0" type="line"/>
      <point x="13.866666666666667" y="230.63333333333333" type="line"/>
      <point x="9.866666666666667" y="214.0" type="line"/>
      <point x="445.1333333333334" y="214.0" type="line"/>
      <point x="451.6" y="239.0" type="line"/>
      <point x="49.266666666666666" y="239.0" type="line"/>
      <point x="51.46666666666667" y="238.96666666666667" type="line"/>
      <point x="322.93333333333334" y="586.3333333333334" type="line" smooth="yes"/>
      <point x="349.6" y="620.1666666666666"/>
      <point x="383.9" y="663.2"/>
      <point x="396.06666666666666" y="682.1" type="curve"/>
      <point x="382.0" y="631.4666666666667"/>
      <point x="370.6333333333333" y="579.0333333333333"/>
      <point x="356.0" y="511.1333333333333" type="curve" smooth="yes"/>
      <point x="266.2666666666667" y="86.2" type="line" smooth="yes"/>
      <point x="253.90000000000003" y="26.366666666666667"/>
      <point x="249.26666666666668" y="20.0"/>
      <point x="198.10000000000002" y="20.0" type="curve" smooth="yes"/>
      <point x="119.63333333333334" y="20.0" type="line"/>
    </contour>
  </outline>
</glyph>
<glyph name="five" format="2">
  <advance width="479.1"/>
  <unicode hex="0035"/>
  <outline>
    <contour>
      <point x="174.16666666666666" y="-10.0" type="curve" smooth="yes"/>
      <point x="313.8333333333333" y="-10.0"/>
      <point x="396.8333333333333" y="99.56666666666666"/>
      <point x="396.8333333333333" y="241.39999999999998" type="curve" smooth="yes"/>
      <point x="396.8333333333333" y="355.4666666666667"/>
      <point x="330.0" y="418.6333333333333"/>
      <point x="231.6" y="418.6333333333333" type="curve" smooth="yes"/>
      <point x="195.9" y="418.6333333333333"/>
      <point x="165.0" y="409.6333333333333"/>
      <point x="147.2" y="402.6333333333333" type="curve"/>
      <point x="233.0" y="689.0" type="line"/>
      <point x="390.8" y="689.0" type="line" smooth="yes"/>
      <point x="425.03333333333336" y="689.0"/>
      <point x="429.1333333333333" y="683.8000000000001"/>
      <point x="429.1333333333333" y="667.3666666666667" type="curve" smooth="yes"/>
      <point x="429.1333333333333" y="660.1"/>
      <point x="426.76666666666665" y="639.7333333333333"/>
      <point x="422.4" y="604.7333333333333" type="curve"/>
      <point x="442.40000000000003" y="604.7333333333333" type="line"/>
      <point x="467.4" y="714.0" type="line"/>
      <point x="214.36666666666667" y="714.0" type="line"/>
      <point x="113.83333333333333" y="379.7" type="line"/>
      <point x="126.03333333333333" y="371.6333333333333" type="line"/>
      <point x="156.56666666666666" y="383.73333333333335"/>
      <point x="178.63333333333333" y="393.6333333333333"/>
      <point x="229.6" y="393.6333333333333" type="curve" smooth="yes"/>
      <point x="316.1333333333333" y="393.6333333333333"/>
      <point x="368.8333333333333" y="336.43333333333334"/>
      <point x="368.8333333333333" y="241.4" type="curve" smooth="yes"/>
      <point x="368.8333333333333" y="99.4"/>
      <point x="282.4" y="15.0"/>
      <point x="175.73333333333332" y="15.0" type="curve" smooth="yes"/>
      <point x="89.8" y="15.0"/>
      <point x="50.233333333333334" y="69.5"/>
      <point x="49.96666666666667" y="142.5" type="curve"/>
      <point x="31.500000000000004" y="142.5"/>
      <point x="24.233333333333334" y="131.03333333333333"/>
      <point x="24.233333333333334" y="113.3" type="curve" smooth="yes"/>
      <point x="24.233333333333334" y="62.400000000000006"/>
      <point x="66.43333333333332" y="-10.0"/>
    </contour>
  </outline>
</glyph>
<glyph name="six" format="2">
  <advance width="479.1"/>
  <unicode hex="0036"/>
  <outline>
    <contour>
      <point x="218.1" y="-10.0" type="curve" smooth="yes"/>
      <point x="347.5666666666667" y="-10.0"/>
      <point x="416.56666666666666" y="118.36666666666667"/>
      <point x="416.56666666666666" y="261.03333333333336" type="curve" smooth="yes"/>
      <point x="416.56666666666666" y="352.2"/>
      <point x="366.53333333333336" y="428.0"/>
      <point x="265.5" y="428.0" type="curve" smooth="yes"/>
      <point x="200.43333333333334" y="428.0"/>
      <point x="145.93333333333334" y="399.7"/>
      <point x="110.26666666666667" y="366.93333333333334" type="curve"/>
      <point x="143.93333333333334" y="556.8333333333334"/>
      <point x="251.76666666666668" y="699.0"/>
      <point x="362.5" y="699.0" type="curve" smooth="yes"/>
      <point x="431.1666666666667" y="699.0"/>
      <point x="453.23333333333335" y="652.6333333333333"/>
      <point x="453.23333333333335" y="591.6333333333333" type="curve"/>
      <point x="472.8666666666667" y="591.6333333333333"/>
      <point x="479.8666666666667" y="606.1666666666667"/>
      <point x="479.8666666666667" y="620.3666666666667" type="curve" smooth="yes"/>
      <point x="479.8666666666667" y="668.9"/>
      <point x="441.6333333333333" y="724.0"/>
      <point x="366.6666666666667" y="724.0" type="curve" smooth="yes"/>
      <point x="205.1" y="724.0"/>
      <point x="67.06666666666666" y="498.6333333333334"/>
      <point x="67.06666666666666" y="214.83333333333331" type="curve" smooth="yes"/>
      <point x="67.06666666666666" y="57.36666666666667"/>
      <point x="128.66666666666666" y="-10.0"/>
    </contour>
    <contour>
      <point x="219.1" y="15.0" type="curve" smooth="yes"/>
      <point x="143.2" y="15.0"/>
      <point x="95.06666666666666" y="84.06666666666666"/>
      <point x="95.06666666666666" y="213.36666666666667" type="curve" smooth="yes"/>
      <point x="95.06666666666666" y="245.56666666666666"/>
      <point x="96.43333333333334" y="284.6"/>
      <point x="105.16666666666667" y="333.1" type="curve"/>
      <point x="152.1" y="377.3333333333333"/>
      <point x="207.7" y="403.0"/>
      <point x="265.5" y="403.0" type="curve" smooth="yes"/>
      <point x="340.0" y="403.0"/>
      <point x="388.56666666666666" y="345.0"/>
      <point x="388.56666666666666" y="259.40000000000003" type="curve" smooth="yes"/>
      <point x="388.56666666666666" y="132.26666666666665"/>
      <point x="323.56666666666666" y="15.0"/>
    </contour>
  </outline>
</glyph>
<glyph name="seven" format="2">
  <advance width="479.1"/>
  <unicode hex="0037"/>
  <outline>
    <contour>
      <point x="122.73333333333332" y="0.0" type="line"/>
      <point x="152.1" y="0.0" type="line"/>
      <point x="498.1333333333333" y="696.7666666666667" type="line"/>
      <point x="502.03333333333336" y="714.0" type="line"/>
      <point x="136.96666666666667" y="714.0" type="line"/>
      <point x="99.80000000000001" y="575.6" type="line"/>
      <point x="119.80000000000001" y="575.6" type="line"/>
      <point x="139.43333333333334" y="641.5" type="line" smooth="yes"/>
      <point x="152.6" y="685.2666666666667"/>
      <point x="157.33333333333334" y="689.0"/>
      <point x="198.4" y="689.0" type="curve" smooth="yes"/>
      <point x="468.93333333333334" y="689.0" type="line"/>
    </contour>
  </outline>
</glyph>
<glyph name="eight" format="2">
  <advance width="479.1"/>
  <unicode hex="0038"/>
  <outline>
    <contour>
      <point x="210.56666666666666" y="-10.0" type="curve" smooth="yes"/>
      <point x="321.2666666666667" y="-10.0"/>
      <point x="417.09999999999997" y="55.96666666666667"/>
      <point x="417.09999999999997" y="189.60000000000002" type="curve" smooth="yes"/>
      <point x="417.09999999999997" y="274.1"/>
      <point x="374.1333333333333" y="328.6333333333333"/>
      <point x="278.03333333333336" y="376.5333333333333" type="curve"/>
      <point x="393.3" y="417.73333333333335"/>
      <point x="469.56666666666666" y="478.1"/>
      <point x="469.56666666666666" y="580.9333333333334" type="curve" smooth="yes"/>
      <point x="469.56666666666666" y="660.1"/>
      <point x="413.0666666666667" y="724.0"/>
      <point x="307.59999999999997" y="724.0" type="curve" smooth="yes"/>
      <point x="182.03333333333333" y="724.0"/>
      <point x="114.33333333333334" y="635.8"/>
      <point x="114.33333333333334" y="545.6" type="curve" smooth="yes"/>
      <point x="114.33333333333334" y="475.06666666666666"/>
      <point x="146.93333333333334" y="426.59999999999997"/>
      <point x="224.6" y="380.43333333333334" type="curve"/>
      <point x="110.30000000000001" y="336.7"/>
      <point x="20.066666666666666" y="265.1"/>
      <point x="20.066666666666666" y="151.63333333333333" type="curve" smooth="yes"/>
      <point x="20.066666666666666" y="59.0"/>
      <point x="86.3" y="-10.0"/>
    </contour>
    <contour>
      <point x="210.5666666666667" y="15.0" type="curve" smooth="yes"/>
      <point x="103.66666666666667" y="15.0"/>
      <point x="48.06666666666666" y="72.1"/>
      <point x="48.06666666666666" y="152.26666666666665" type="curve" smooth="yes"/>
      <point x="48.06666666666666" y="257.1"/>
      <point x="140.13333333333333" y="328.7"/>
      <point x="249.13333333333335" y="365.43333333333334" type="curve"/>
      <point x="349.5" y="316.16666666666663"/>
      <point x="389.1" y="273.46666666666664"/>
      <point x="389.1" y="187.60000000000002" type="curve" smooth="yes"/>
      <point x="389.1" y="76.13333333333333"/>
      <point x="313.6666666666667" y="15.0"/>
    </contour>
    <contour>
      <point x="253.50000000000003" y="391.5333333333333" type="curve"/>
      <point x="169.1" y="438.16666666666663"/>
      <point x="142.33333333333334" y="481.53333333333336"/>
      <point x="142.33333333333334" y="545.5999999999999" type="curve" smooth="yes"/>
      <point x="142.33333333333334" y="626.7666666666667"/>
      <point x="205.63333333333335" y="699.0"/>
      <point x="306.96666666666664" y="699.0" type="curve" smooth="yes"/>
      <point x="399.7666666666667" y="699.0"/>
      <point x="441.56666666666666" y="644.4666666666667"/>
      <point x="441.56666666666666" y="580.9333333333334" type="curve" smooth="yes"/>
      <point x="441.56666666666666" y="492.0333333333333"/>
      <point x="382.76666666666665" y="437.73333333333335"/>
    </contour>
  </outline>
</glyph>
<glyph name="nine" format="2">
  <advance width="479.1"/>
  <unicode hex="0039"/>
  <outline>
    <contour>
      <point x="177.5666666666667" y="-10.0" type="curve" smooth="yes"/>
      <point x="339.6666666666667" y="-10.0"/>
      <point x="447.73333333333335" y="260.2333333333333"/>
      <point x="447.73333333333335" y="514.9333333333334" type="curve" smooth="yes"/>
      <point x="447.73333333333335" y="656.0"/>
      <point x="380.5" y="724.0"/>
      <point x="291.7" y="724.0" type="curve" smooth="yes"/>
      <point x="167.93333333333334" y="724.0"/>
      <point x="82.46666666666667" y="615.9"/>
      <point x="82.46666666666667" y="455.5" type="curve" smooth="yes"/>
      <point x="82.46666666666667" y="361.8"/>
      <point x="135.2" y="286.3333333333333"/>
      <point x="237.5" y="286.3333333333333" type="curve" smooth="yes"/>
      <point x="303.8333333333333" y="286.3333333333333"/>
      <point x="371.8666666666667" y="326.5"/>
      <point x="405.0" y="362.9" type="curve"/>
      <point x="374.0" y="161.46666666666667"/>
      <point x="278.5333333333333" y="15.0"/>
      <point x="177.93333333333334" y="15.0" type="curve" smooth="yes"/>
      <point x="98.63333333333333" y="15.0"/>
      <point x="79.03333333333335" y="55.666666666666664"/>
      <point x="79.03333333333333" y="121.73333333333333" type="curve"/>
      <point x="60.033333333333324" y="121.73333333333333"/>
      <point x="52.4" y="109.73333333333333"/>
      <point x="52.4" y="91.10000000000001" type="curve" smooth="yes"/>
      <point x="52.4" y="45.733333333333334"/>
      <point x="79.30000000000001" y="-10.0"/>
    </contour>
    <contour>
      <point x="237.5" y="311.3333333333333" type="curve" smooth="yes"/>
      <point x="154.76666666666665" y="311.3333333333333"/>
      <point x="110.46666666666667" y="377.23333333333335"/>
      <point x="110.46666666666667" y="455.8666666666666" type="curve" smooth="yes"/>
      <point x="110.46666666666667" y="600.7333333333333"/>
      <point x="184.76666666666665" y="699.0"/>
      <point x="291.3333333333333" y="699.0" type="curve" smooth="yes"/>
      <point x="362.16666666666663" y="699.0"/>
      <point x="419.73333333333335" y="640.7666666666668"/>
      <point x="419.73333333333335" y="514.5666666666667" type="curve" smooth="yes"/>
      <point x="419.73333333333335" y="488.7"/>
      <point x="418.0" y="447.7666666666667"/>
      <point x="411.6333333333333" y="401.8" type="curve"/>
      <point x="375.46666666666664" y="360.09999999999997"/>
      <point x="309.23333333333335" y="311.3333333333333"/>
    </contour>
  </outline>
</glyph>
<glyph name="colon" format="2">
  <advance width="181.43333333333334"/>
  <unicode hex="003A"/>
  <outline>
    <contour>
      <point x="134.4" y="463.3666666666667" type="curve" smooth="yes"/>
      <point x="150.4" y="463.3666666666667"/>
      <point x="167.03333333333333" y="478.09999999999997"/>
      <point x="167.03333333333333" y="512.9" type="curve" smooth="yes"/>
      <point x="167.03333333333333" y="533.0"/>
      <point x="156.03333333333336" y="541.3666666666667"/>
      <point x="142.66666666666669" y="541.3666666666667" type="curve" smooth="yes"/>
      <point x="123.66666666666667" y="541.3666666666667"/>
      <point x="108.03333333333333" y="523.3666666666666"/>
      <point x="108.03333333333333" y="493.4666666666667" type="curve" smooth="yes"/>
      <point x="108.03333333333333" y="472.73333333333335"/>
      <point x="118.03333333333333" y="463.3666666666667"/>
    </contour>
    <contour>
      <point x="35.833333333333336" y="-5.366666666666666" type="curve" smooth="yes"/>
      <point x="51.833333333333336" y="-5.366666666666666"/>
      <point x="68.46666666666667" y="9.366666666666667"/>
      <point x="68.46666666666667" y="44.166666666666664" type="curve" smooth="yes"/>
      <point x="68.46666666666667" y="64.26666666666667"/>
      <point x="57.46666666666667" y="72.63333333333333"/>
      <point x="44.1" y="72.63333333333333" type="curve" smooth="yes"/>
      <point x="25.099999999999998" y="72.63333333333333"/>
      <point x="9.466666666666667" y="54.63333333333333"/>
      <point x="9.466666666666667" y="24.733333333333334" type="curve" smooth="yes"/>
      <point x="9.466666666666667" y="4.0"/>
      <point x="19.46666666666667" y="-5.366666666666666"/>
    </contour>
  </outline>
</glyph>
<glyph name="semicolon" format="2">
  <advance width="181.43333333333334"/>
  <unicode hex="003B"/>
  <outline>
    <contour>
      <point x="-46.63333333333333" y="-139.26666666666668" type="line"/>
      <point x="44.53333333333333" y="-114.9"/>
      <point x="64.16666666666667" y="-52.63333333333333"/>
      <point x="64.16666666666667" y="15.0" type="curve" smooth="yes"/>
      <point x="64.16666666666667" y="51.0"/>
      <point x="50.166666666666664" y="73.0"/>
      <point x="30.166666666666668" y="73.0" type="curve" smooth="yes"/>
      <point x="10.166666666666668" y="73.0"/>
      <point x="0.16666666666666674" y="59.0"/>
      <point x="0.16666666666666674" y="42.0" type="curve" smooth="yes"/>
      <point x="0.16666666666666674" y="11.0"/>
      <point x="35.16666666666667" y="12.0"/>
      <point x="35.16666666666667" y="-22.0" type="curve" smooth="yes"/>
      <point x="35.16666666666667" y="-61.266666666666666"/>
      <point x="10.9" y="-100.53333333333333"/>
      <point x="-48.9" y="-118.89999999999999" type="curve"/>
    </contour>
    <contour>
      <point x="134.4" y="463.3666666666667" type="curve" smooth="yes"/>
      <point x="150.4" y="463.3666666666667"/>
      <point x="167.03333333333333" y="478.09999999999997"/>
      <point x="167.03333333333333" y="512.9" type="curve" smooth="yes"/>
      <point x="167.03333333333333" y="533.0"/>
      <point x="156.03333333333333" y="541.3666666666667"/>
      <point x="142.66666666666669" y="541.3666666666667" type="curve" smooth="yes"/>
      <point x="123.66666666666667" y="541.3666666666667"/>
      <point x="108.03333333333333" y="523.3666666666666"/>
      <point x="108.03333333333333" y="493.4666666666667" type="curve" smooth="yes"/>
      <point x="108.03333333333333" y="472.73333333333335"/>
      <point x="118.03333333333333" y="463.3666666666667"/>
    </contour>
  </outline>
</glyph>
<glyph name="less" format="2">
  <advance width="509.8666666666667"/>
  <unicode hex="003C"/>
  <outline>
    <contour>
      <point x="456.23333333333335" y="117.63333333333333" type="line"/>
      <point x="456.23333333333335" y="150.46666666666667" type="line"/>
      <point x="95.73333333333333" y="357.0" type="line"/>
      <point x="456.23333333333335" y="565.5333333333333" type="line"/>
      <point x="456.23333333333335" y="598.3666666666667" type="line"/>
      <point x="65.36666666666667" y="371.0" type="line"/>
      <point x="65.36666666666667" y="344.0" type="line"/>
    </contour>
  </outline>
</glyph>
<glyph name="equal" format="2">
  <advance width="509.8666666666667"/>
  <unicode hex="003D"/>
  <outline>
    <contour>
      <point x="67.0" y="448.06666666666666" type="line"/>
      <point x="452.9666666666667" y="448.06666666666666" type="line"/>
      <point x="452.9666666666667" y="476.0666666666667" type="line"/>
      <point x="67.0" y="476.0666666666667" type="line"/>
    </contour>
    <contour>
      <point x="67.0" y="238.3" type="line"/>
      <point x="452.9666666666667" y="238.3" type="line"/>
      <point x="452.9666666666667" y="266.3" type="line"/>
      <point x="67.0" y="266.3" type="line"/>
    </contour>
  </outline>
</glyph>
<glyph name="question" format="2">
  <advance width="406.93333333333334"/>
  <unicode hex="003F"/>
  <outline>
    <contour>
      <point x="132.96666666666667" y="166.36666666666667" type="line"/>
      <point x="156.96666666666667" y="166.36666666666667" type="line"/>
      <point x="189.7" y="320.53333333333336" type="line"/>
      <point x="324.59999999999997" y="379.5333333333333"/>
      <point x="414.2333333333333" y="450.1666666666667"/>
      <point x="414.2333333333333" y="578.5666666666667" type="curve" smooth="yes"/>
      <point x="414.2333333333333" y="665.3666666666667"/>
      <point x="357.46666666666664" y="724.0"/>
      <point x="271.59999999999997" y="724.0" type="curve" smooth="yes"/>
      <point x="164.43333333333334" y="724.0"/>
      <point x="111.53333333333333" y="651.7333333333333"/>
      <point x="111.53333333333333" y="582.3" type="curve" smooth="yes"/>
      <point x="111.53333333333333" y="565.2"/>
      <point x="118.63333333333334" y="552.6333333333333"/>
      <point x="130.9" y="552.6333333333333" type="curve"/>
      <point x="136.33333333333331" y="631.1666666666666"/>
      <point x="171.23333333333332" y="699.0"/>
      <point x="270.8666666666667" y="699.0" type="curve" smooth="yes"/>
      <point x="338.4666666666667" y="699.0"/>
      <point x="386.23333333333335" y="651.3666666666667"/>
      <point x="386.23333333333335" y="577.8333333333333" type="curve" smooth="yes"/>
      <point x="386.23333333333335" y="464.2333333333333"/>
      <point x="303.56666666666666" y="393.23333333333335"/>
      <point x="165.43333333333334" y="337.9" type="curve"/>
    </contour>
    <contour>
      <point x="120.6" y="-5.366666666666666" type="curve" smooth="yes"/>
      <point x="136.60000000000002" y="-5.366666666666666"/>
      <point x="153.23333333333335" y="9.366666666666667"/>
      <point x="153.23333333333335" y="44.166666666666664" type="curve" smooth="yes"/>
      <point x="153.23333333333335" y="64.26666666666667"/>
      <point x="142.23333333333332" y="72.63333333333333"/>
      <point x="128.86666666666667" y="72.63333333333333" type="curve" smooth="yes"/>
      <point x="109.86666666666666" y="72.63333333333333"/>
      <point x="94.23333333333333" y="54.63333333333333"/>
      <point x="94.23333333333333" y="24.733333333333334" type="curve" smooth="yes"/>
      <point x="94.23333333333333" y="4.0"/>
      <point x="104.23333333333333" y="-5.366666666666666"/>
    </contour>
  </outline>
</glyph>
<glyph name="bracketleft" format="2">
  <advance width="268.73333333333335"/>
  <unicode hex="005B"/>
  <outline>
    <contour>
      <point x="-17.1" y="-128.0" type="line"/>
      <point x="128.36666666666667" y="-128.0" type="line"/>
      <point x="133.0" y="-108.0" type="line"/>
      <point x="70.26666666666667" y="-108.0" type="line" smooth="yes"/>
      <point x="29.03333333333333" y="-108.0"/>
      <point x="21.73333333333333" y="-103.63333333333333"/>
      <point x="21.73333333333333" y="-84.60000000000001" type="curve" smooth="yes"/>
      <point x="21.73333333333333" y="-73.5"/>
      <point x="24.733333333333334" y="-56.766666666666666"/>
      <point x="29.46666666666667" y="-35.2" type="curve"/>
      <point x="178.43333333333334" y="665.9333333333334" type="line"/>
      <point x="192.53333333333333" y="734.0666666666667"/>
      <point x="198.36666666666667" y="740.0"/>
      <point x="252.8" y="740.0" type="curve" smooth="yes"/>
      <point x="311.73333333333335" y="740.0" type="line"/>
      <point x="316.3666666666667" y="760.0" type="line"/>
      <point x="170.9" y="760.0" type="line"/>
    </contour>
  </outline>
</glyph>
<glyph name="backslash" format="2">
  <advance width="265.6333333333334"/>
  <unicode hex="005C"/>
  <outline>
    <contour>
      <point x="161.1" y="-121.0" type="line"/>
      <point x="188.46666666666667" y="-121.0" type="line"/>
      <point x="140.06666666666666" y="760.0" type="line"/>
      <point x="112.7" y="760.0" type="line"/>
    </contour>
  </outline>
</glyph>
<glyph name="bracketright" format="2">
  <advance width="268.73333333333335"/>
  <unicode hex="005D"/>
  <outline>
    <contour>
      <point x="-45.46666666666667" y="-128.0" type="line"/>
      <point x="100.0" y="-128.0" type="line"/>
      <point x="288.0" y="760.0" type="line"/>
      <point x="142.53333333333333" y="760.0" type="line"/>
      <point x="137.89999999999998" y="740.0" type="line"/>
      <point x="200.63333333333335" y="740.0" type="line" smooth="yes"/>
      <point x="241.86666666666665" y="740.0"/>
      <point x="249.16666666666666" y="735.6333333333333"/>
      <point x="249.16666666666666" y="716.6" type="curve" smooth="yes"/>
      <point x="249.16666666666666" y="706.6"/>
      <point x="245.8" y="688.7666666666667"/>
      <point x="241.43333333333334" y="667.2" type="curve" smooth="yes"/>
      <point x="92.46666666666667" y="-33.93333333333334" type="line"/>
      <point x="78.36666666666667" y="-102.06666666666666"/>
      <point x="72.53333333333333" y="-108.0"/>
      <point x="18.099999999999998" y="-108.0" type="curve" smooth="yes"/>
      <point x="-40.83333333333333" y="-108.0" type="line"/>
    </contour>
  </outline>
</glyph>
<glyph name="asciicircum" format="2">
  <advance width="509.8666666666667"/>
  <unicode hex="005E"/>
  <outline>
    <contour>
      <point x="56.63333333333333" y="271.6333333333333" type="line"/>
      <point x="88.0" y="271.6333333333333" type="line"/>
      <point x="259.3" y="673.8666666666667" type="line"/>
      <point x="432.6" y="271.6333333333333" type="line"/>
      <point x="463.96666666666664" y="271.6333333333333" type="line"/>
      <point x="271.3" y="714.0" type="line"/>
      <point x="246.66666666666666" y="714.0" type="line"/>
    </contour>
  </outline>
</glyph>
<glyph name="underscore" format="2">
  <advance width="423.43333333333334"/>
  <unicode hex="005F"/>
  <outline>
    <contour>
      <point x="-82.06666666666666" y="-114.96666666666667" type="line"/>
      <point x="351.3666666666667" y="-114.96666666666667" type="line"/>
      <point x="356.3666666666667" y="-89.96666666666667" type="line"/>
      <point x="-77.06666666666666" y="-89.96666666666667" type="line"/>
    </contour>
  </outline>
</glyph>
<glyph name="braceleft" format="2">
  <advance width="378.4666666666667"/>
  <unicode hex="007B"/>
  <outline>
    <contour>
      <point x="196.86666666666667" y="-132.0" type="curve" smooth="yes"/>
      <point x="230.23333333333332" y="-132.0" type="line"/>
      <point x="235.6" y="-107.73333333333332" type="line"/>
      <point x="201.23333333333332" y="-107.73333333333332" type="line" smooth="yes"/>
      <point x="160.13333333333333" y="-107.73333333333332"/>
      <point x="141.43333333333334" y="-90.26666666666667"/>
      <point x="141.43333333333334" y="-45.766666666666666" type="curve" smooth="yes"/>
      <point x="141.43333333333334" y="-25.566666666666666"/>
      <point x="144.8" y="-5.299999999999999"/>
      <point x="149.16666666666666" y="15.533333333333333" type="curve" smooth="yes"/>
      <point x="182.63333333333335" y="170.13333333333335" type="line" smooth="yes"/>
      <point x="186.89999999999998" y="190.56666666666666"/>
      <point x="189.9" y="211.29999999999998"/>
      <point x="189.9" y="230.36666666666665" type="curve" smooth="yes"/>
      <point x="189.9" y="271.6333333333334"/>
      <point x="171.1" y="303.23333333333335"/>
      <point x="125.53333333333332" y="311.6333333333333" type="curve"/>
      <point x="125.53333333333332" y="314.26666666666665" type="line"/>
      <point x="190.79999999999998" y="323.46666666666664"/>
      <point x="223.16666666666666" y="361.76666666666665"/>
      <point x="238.79999999999998" y="434.6666666666667" type="curve" smooth="yes"/>
      <point x="278.0" y="618.5666666666666" type="line" smooth="yes"/>
      <point x="298.1666666666667" y="712.8666666666667"/>
      <point x="317.46666666666664" y="735.0"/>
      <point x="383.4" y="735.0" type="curve" smooth="yes"/>
      <point x="405.1" y="735.0" type="line"/>
      <point x="410.4666666666667" y="760.0" type="line"/>
      <point x="384.56666666666666" y="760.0" type="line" smooth="yes"/>
      <point x="304.56666666666666" y="760.0"/>
      <point x="274.5333333333333" y="730.0666666666666"/>
      <point x="251.6333333333333" y="621.8333333333334" type="curve" smooth="yes"/>
      <point x="212.43333333333334" y="437.3" type="line" smooth="yes"/>
      <point x="195.63333333333335" y="358.3"/>
      <point x="153.4" y="330.9"/>
      <point x="76.80000000000001" y="327.0" type="curve"/>
      <point x="71.80000000000001" y="302.3666666666667" type="line"/>
      <point x="141.26666666666665" y="298.73333333333335"/>
      <point x="163.53333333333333" y="276.90000000000003"/>
      <point x="163.53333333333333" y="230.46666666666667" type="curve" smooth="yes"/>
      <point x="163.53333333333333" y="212.66666666666666"/>
      <point x="159.63333333333333" y="191.76666666666668"/>
      <point x="155.36666666666667" y="172.33333333333331" type="curve" smooth="yes"/>
      <point x="121.53333333333333" y="15.533333333333333" type="line" smooth="yes"/>
      <point x="116.79999999999998" y="-7.3999999999999995"/>
      <point x="114.16666666666667" y="-25.933333333333334"/>
      <point x="114.16666666666667" y="-45.766666666666666" type="curve" smooth="yes"/>
      <point x="114.16666666666667" y="-99.06666666666666"/>
      <point x="140.86666666666667" y="-132.0"/>
    </contour>
  </outline>
</glyph>
<glyph name="braceright" format="2">
  <advance width="378.46666666666664"/>
  <unicode hex="007D"/>
  <outline>
    <contour>
      <point x="-15.633333333333333" y="-132.0" type="line"/>
      <point x="10.266666666666666" y="-132.0" type="line" smooth="yes"/>
      <point x="90.63333333333334" y="-132.0"/>
      <point x="120.3" y="-101.7"/>
      <point x="143.2" y="6.166666666666667" type="curve" smooth="yes"/>
      <point x="182.4" y="190.7" type="line" smooth="yes"/>
      <point x="199.2" y="269.7"/>
      <point x="241.43333333333334" y="297.1"/>
      <point x="318.03333333333336" y="301.0" type="curve"/>
      <point x="323.03333333333336" y="325.6333333333333" type="line"/>
      <point x="253.56666666666666" y="329.26666666666665"/>
      <point x="231.3" y="351.09999999999997"/>
      <point x="231.3" y="397.53333333333336" type="curve" smooth="yes"/>
      <point x="231.3" y="415.3333333333333"/>
      <point x="235.2" y="436.23333333333335"/>
      <point x="239.46666666666667" y="455.6666666666667" type="curve" smooth="yes"/>
      <point x="273.3" y="612.4666666666667" type="line" smooth="yes"/>
      <point x="278.03333333333336" y="635.4"/>
      <point x="280.6666666666667" y="653.9333333333334"/>
      <point x="280.6666666666667" y="673.7666666666667" type="curve" smooth="yes"/>
      <point x="280.6666666666667" y="727.0666666666667"/>
      <point x="253.96666666666667" y="760.0"/>
      <point x="197.96666666666667" y="760.0" type="curve" smooth="yes"/>
      <point x="164.6" y="760.0" type="line"/>
      <point x="159.23333333333332" y="735.7333333333333" type="line"/>
      <point x="193.6" y="735.7333333333333" type="line" smooth="yes"/>
      <point x="234.7" y="735.7333333333333"/>
      <point x="253.4" y="718.2666666666667"/>
      <point x="253.4" y="673.7666666666667" type="curve" smooth="yes"/>
      <point x="253.4" y="653.5666666666667"/>
      <point x="250.03333333333333" y="633.3000000000001"/>
      <point x="245.66666666666666" y="612.4666666666667" type="curve" smooth="yes"/>
      <point x="212.20000000000002" y="457.8666666666667" type="line" smooth="yes"/>
      <point x="207.93333333333334" y="437.4333333333333"/>
      <point x="204.93333333333334" y="416.7"/>
      <point x="204.93333333333334" y="397.6333333333333" type="curve" smooth="yes"/>
      <point x="204.93333333333334" y="356.3666666666666"/>
      <point x="223.73333333333335" y="324.76666666666665"/>
      <point x="269.3" y="316.3666666666667" type="curve"/>
      <point x="269.3" y="313.73333333333335" type="line"/>
      <point x="204.03333333333333" y="304.53333333333336"/>
      <point x="171.66666666666666" y="266.23333333333335"/>
      <point x="156.03333333333333" y="193.33333333333334" type="curve" smooth="yes"/>
      <point x="116.83333333333334" y="9.433333333333334" type="line" smooth="yes"/>
      <point x="96.66666666666667" y="-84.5"/>
      <point x="77.73333333333333" y="-107.0"/>
      <point x="12.166666666666666" y="-107.0" type="curve" smooth="yes"/>
      <point x="-10.266666666666667" y="-107.0" type="line"/>
    </contour>
  </outline>
</glyph>
<glyph name="asciitilde" format="2">
  <advance width="509.8666666666667"/>
  <unicode hex="007E"/>
  <outline>
    <contour>
      <point x="63.63333333333333" y="277.0" type="curve"/>
      <point x="92.9" y="277.0" type="line"/>
      <point x="107.33333333333333" y="359.7"/>
      <point x="119.23333333333333" y="408.3666666666666"/>
      <point x="164.56666666666666" y="408.3666666666666" type="curve" smooth="yes"/>
      <point x="202.03333333333333" y="408.3666666666666"/>
      <point x="225.79999999999998" y="376.9"/>
      <point x="255.73333333333332" y="341.20000000000005" type="curve" smooth="yes"/>
      <point x="288.73333333333335" y="301.79999999999995"/>
      <point x="318.6" y="277.3666666666667"/>
      <point x="356.6666666666667" y="277.3666666666667" type="curve" smooth="yes"/>
      <point x="432.53333333333336" y="277.3666666666667"/>
      <point x="447.43333333333334" y="376.23333333333335"/>
      <point x="457.3333333333333" y="435.6333333333333" type="curve"/>
      <point x="427.43333333333334" y="435.6333333333333" type="line"/>
      <point x="413.6333333333333" y="365.6"/>
      <point x="403.26666666666665" y="305.0"/>
      <point x="356.6666666666667" y="305.0" type="curve" smooth="yes"/>
      <point x="328.06666666666666" y="305.0"/>
      <point x="303.3" y="327.5"/>
      <point x="269.93333333333334" y="367.0" type="curve" smooth="yes"/>
      <point x="236.3" y="406.76666666666665"/>
      <point x="208.33333333333334" y="436.0"/>
      <point x="164.56666666666666" y="436.0" type="curve" smooth="yes"/>
      <point x="86.8" y="436.0"/>
      <point x="76.06666666666666" y="342.1"/>
    </contour>
  </outline>
</glyph>
<glyph name="twosuperior" format="2">
  <advance width="356.1666666666667"/>
  <unicode hex="00B2"/>
  <outline>
    <contour>
      <point x="65.06666666666666" y="386.6333333333333" type="line"/>
      <point x="321.2" y="386.6333333333333" type="line"/>
      <point x="343.4" y="478.5333333333333" type="line"/>
      <point x="322.1333333333334" y="478.5333333333333" type="line"/>
      <point x="317.66666666666663" y="463.8666666666666" type="line" smooth="yes"/>
      <point x="303.66666666666663" y="415.9"/>
      <point x="299.1333333333333" y="411.26666666666665"/>
      <point x="252.29999999999998" y="411.26666666666665" type="curve" smooth="yes"/>
      <point x="113.5" y="411.26666666666665" type="line"/>
      <point x="214.73333333333332" y="501.56666666666666" type="line" smooth="yes"/>
      <point x="330.3666666666667" y="603.7333333333333"/>
      <point x="366.8" y="651.1333333333333"/>
      <point x="366.8" y="722.5333333333334" type="curve" smooth="yes"/>
      <point x="366.8" y="783.2666666666667"/>
      <point x="329.1666666666667" y="823.1666666666666"/>
      <point x="259.76666666666665" y="823.1666666666666" type="curve" smooth="yes"/>
      <point x="174.46666666666667" y="823.1666666666666"/>
      <point x="132.46666666666667" y="752.2"/>
      <point x="132.46666666666667" y="712.9333333333334" type="curve" smooth="yes"/>
      <point x="132.46666666666667" y="693.3000000000001"/>
      <point x="139.36666666666665" y="684.9333333333333"/>
      <point x="158.1" y="684.9333333333333" type="curve"/>
      <point x="158.1" y="744.3"/>
      <point x="190.56666666666666" y="798.5333333333333"/>
      <point x="259.4" y="798.5333333333333" type="curve" smooth="yes"/>
      <point x="308.1666666666667" y="798.5333333333333"/>
      <point x="339.1666666666667" y="773.7333333333333"/>
      <point x="339.1666666666667" y="722.9" type="curve" smooth="yes"/>
      <point x="339.1666666666667" y="659.5333333333333"/>
      <point x="310.20000000000005" y="618.0999999999999"/>
      <point x="195.0666666666667" y="515.4333333333333" type="curve" smooth="yes"/>
      <point x="69.06666666666666" y="402.16666666666663" type="line"/>
    </contour>
  </outline>
</glyph>
<glyph name="threesuperior" format="2">
  <advance width="356.1666666666667"/>
  <unicode hex="00B3"/>
  <outline>
    <contour>
      <point x="193.96666666666667" y="379.26666666666665" type="curve" smooth="yes"/>
      <point x="287.8666666666667" y="379.26666666666665"/>
      <point x="354.56666666666666" y="439.93333333333334"/>
      <point x="354.56666666666666" y="517.6" type="curve" smooth="yes"/>
      <point x="354.56666666666666" y="565.9666666666666"/>
      <point x="325.93333333333334" y="600.0"/>
      <point x="280.93333333333334" y="610.8" type="curve"/>
      <point x="280.56666666666666" y="613.0666666666666" type="line"/>
      <point x="341.33333333333337" y="624.8"/>
      <point x="382.5" y="672.4"/>
      <point x="382.5" y="728.8000000000001" type="curve" smooth="yes"/>
      <point x="382.5" y="783.3666666666667"/>
      <point x="339.9666666666667" y="822.5333333333333"/>
      <point x="270.56666666666666" y="822.5333333333333" type="curve" smooth="yes"/>
      <point x="185.16666666666666" y="822.5333333333333"/>
      <point x="135.73333333333332" y="767.5666666666666"/>
      <point x="135.73333333333332" y="723.1" type="curve" smooth="yes"/>
      <point x="135.73333333333332" y="702.7333333333333"/>
      <point x="145.53333333333333" y="699.0"/>
      <point x="157.56666666666666" y="699.0" type="curve"/>
      <point x="164.53333333333333" y="764.1"/>
      <point x="205.5" y="797.9"/>
      <point x="269.20000000000005" y="797.9" type="curve" smooth="yes"/>
      <point x="319.6333333333334" y="797.9"/>
      <point x="354.23333333333335" y="773.0666666666667"/>
      <point x="354.23333333333335" y="726.9" type="curve" smooth="yes"/>
      <point x="354.23333333333335" y="671.4333333333334"/>
      <point x="309.26666666666665" y="624.1666666666666"/>
      <point x="220.26666666666668" y="624.1666666666666" type="curve" smooth="yes"/>
      <point x="186.03333333333333" y="624.1666666666666" type="line"/>
      <point x="181.03333333333333" y="599.5333333333333" type="line"/>
      <point x="211.83333333333334" y="599.5333333333333" type="line" smooth="yes"/>
      <point x="292.76666666666665" y="599.5333333333333"/>
      <point x="326.93333333333334" y="567.4333333333334"/>
      <point x="326.93333333333334" y="516.9666666666667" type="curve" smooth="yes"/>
      <point x="326.93333333333334" y="453.2"/>
      <point x="275.5" y="403.9"/>
      <point x="196.86666666666667" y="403.9" type="curve" smooth="yes"/>
      <point x="131.16666666666666" y="403.9"/>
      <point x="99.76666666666667" y="433.59999999999997"/>
      <point x="110.0" y="505.06666666666666" type="curve"/>
      <point x="90.2" y="505.06666666666666"/>
      <point x="80.56666666666668" y="485.56666666666666"/>
      <point x="80.56666666666668" y="465.1333333333333" type="curve" smooth="yes"/>
      <point x="80.56666666666668" y="412.3666666666667"/>
      <point x="122.7" y="379.26666666666665"/>
    </contour>
  </outline>
</glyph>
<glyph name="multiply" format="2">
  <advance width="509.8666666666667"/>
  <unicode hex="00D7"/>
  <outline>
    <contour>
      <point x="87.3" y="145.56666666666666" type="line"/>
      <point x="262.8666666666666" y="338.09999999999997" type="line"/>
      <point x="438.43333333333334" y="145.56666666666666" type="line"/>
      <point x="459.53333333333336" y="164.20000000000002" type="line"/>
      <point x="282.1333333333333" y="359.2" type="line"/>
      <point x="459.53333333333336" y="555.5666666666667" type="line"/>
      <point x="439.43333333333334" y="574.4666666666667" type="line"/>
      <point x="262.8666666666666" y="380.6666666666667" type="line"/>
      <point x="86.93333333333332" y="573.8333333333334" type="line"/>
      <point x="66.83333333333333" y="554.9333333333334" type="line"/>
      <point x="244.23333333333335" y="359.2" type="line"/>
      <point x="67.46666666666667" y="164.83333333333334" type="line"/>
    </contour>
  </outline>
</glyph>
<glyph name="divide" format="2">
  <advance width="509.8666666666667"/>
  <unicode hex="00F7"/>
  <outline>
    <contour>
      <point x="65.36666666666667" y="343.3666666666667" type="line"/>
      <point x="456.23333333333335" y="343.3666666666667" type="line"/>
      <point x="456.23333333333335" y="371.3666666666667" type="line"/>
      <point x="65.36666666666667" y="371.3666666666667" type="line"/>
    </contour>
    <contour>
      <point x="261.3" y="139.6" type="curve" smooth="yes"/>
      <point x="281.4666666666667" y="139.6"/>
      <point x="297.90000000000003" y="149.5"/>
      <point x="297.90000000000003" y="179.4" type="curve" smooth="yes"/>
      <point x="297.90000000000003" y="211.29999999999998"/>
      <point x="281.4666666666667" y="220.56666666666666"/>
      <point x="261.3" y="220.56666666666666" type="curve" smooth="yes"/>
      <point x="240.13333333333333" y="220.56666666666666"/>
      <point x="225.06666666666666" y="211.29999999999998"/>
      <point x="225.06666666666666" y="179.4" type="curve" smooth="yes"/>
      <point x="225.06666666666666" y="149.5"/>
      <point x="240.13333333333333" y="139.6"/>
    </contour>
    <contour>
      <point x="261.3" y="495.90000000000003" type="curve" smooth="yes"/>
      <point x="281.4666666666667" y="495.90000000000003"/>
      <point x="297.90000000000003" y="505.8"/>
      <point x="297.90000000000003" y="536.3333333333334" type="curve" smooth="yes"/>
      <point x="297.90000000000003" y="567.6"/>
      <point x="281.4666666666667" y="576.8666666666667"/>
      <point x="261.3" y="576.8666666666667" type="curve" smooth="yes"/>
      <point x="240.13333333333333" y="576.8666666666667"/>
      <point x="225.06666666666666" y="567.6"/>
      <point x="225.06666666666666" y="536.3333333333334" type="curve" smooth="yes"/>
      <point x="225.06666666666666" y="505.8"/>
      <point x="240.13333333333333" y="495.90000000000003"/>
    </contour>
  </outline>
</glyph>
<glyph name="udatta-deva" format="2">
  <unicode hex="0951"/>
  <anchor x="56.0" y="542.0" name="_vedic"/>
  <outline>
    <contour>
      <point x="120.63333333333333" y="905.1666666666667" type="line"/>
      <point x="146.63333333333333" y="905.1666666666667" type="line"/>
      <point x="185.63333333333333" y="1089.1666666666665" type="line"/>
      <point x="159.63333333333333" y="1089.1666666666665" type="line"/>
    </contour>
  </outline>
</glyph>
<glyph name="anudatta-deva" format="2">
  <unicode hex="0952"/>
  <anchor x="-59.0" y="0.0" name="_bottom"/>
  <outline>
    <contour>
      <point x="-333.26666666666665" y="-462.7" type="line"/>
      <point x="18.5" y="-462.7" type="line"/>
      <point x="23.866666666666667" y="-438.7" type="line"/>
      <point x="-328.26666666666665" y="-438.7" type="line"/>
    </contour>
  </outline>
</glyph>
<glyph name="danda-deva" format="2">
  <advance width="266.33333333333337"/>
  <unicode hex="0964"/>
  <outline>
    <contour>
      <point x="61.66666666666667" y="0.0" type="line"/>
      <point x="89.66666666666667" y="0.0" type="line"/>
      <point x="205.03333333333333" y="542.0" type="line"/>
      <point x="176.66666666666666" y="542.0" type="line"/>
    </contour>
  </outline>
</glyph>
<glyph name="dbldanda-deva" format="2">
  <advance width="476.16666666666663"/>
  <unicode hex="0965"/>
  <outline>
    <contour>
      <point x="270.8666666666667" y="0.0" type="line"/>
      <point x="299.5" y="0.0" type="line"/>
      <point x="414.5" y="542.0" type="line"/>
      <point x="385.8666666666667" y="542.0" type="line"/>
    </contour>
    <contour>
      <point x="61.66666666666667" y="0.0" type="line"/>
      <point x="89.66666666666667" y="0.0" type="line"/>
      <point x="205.03333333333333" y="542.0" type="line"/>
      <point x="176.66666666666666" y="542.0" type="line"/>
    </contour>
  </outline>
</glyph>
<glyph name="anusvara-tamil" format="2">
  <unicode hex="0B82"/>
  <note>
uni0B82
</note>
  <anchor x="56.0" y="542.0" name="_top"/>
  <outline>
    <contour>
      <point x="100.63333333333333" y="650.0" type="curve" smooth="yes"/>
      <point x="155.16666666666669" y="650.0"/>
      <point x="192.70000000000002" y="690.5333333333334"/>
      <point x="192.70000000000002" y="743.0666666666666" type="curve" smooth="yes"/>
      <point x="192.70000000000002" y="794.9666666666667"/>
      <point x="155.16666666666669" y="835.8666666666667"/>
      <point x="100.63333333333333" y="835.8666666666667" type="curve" smooth="yes"/>
      <point x="46.1" y="835.8666666666667"/>
      <point x="8.566666666666666" y="794.9666666666667"/>
      <point x="8.566666666666666" y="743.0666666666666" type="curve" smooth="yes"/>
      <point x="8.566666666666666" y="690.5333333333334"/>
      <point x="46.1" y="650.0"/>
    </contour>
    <contour>
      <point x="100.63333333333333" y="674.3666666666667" type="curve" smooth="yes"/>
      <point x="61.46666666666667" y="674.3666666666667"/>
      <point x="35.2" y="703.9"/>
      <point x="35.2" y="743.0666666666666" type="curve" smooth="yes"/>
      <point x="35.2" y="781.6"/>
      <point x="61.46666666666667" y="811.5"/>
      <point x="100.63333333333333" y="811.5" type="curve" smooth="yes"/>
      <point x="139.8" y="811.5"/>
      <point x="166.06666666666666" y="781.6"/>
      <point x="166.06666666666666" y="743.0666666666666" type="curve" smooth="yes"/>
      <point x="166.06666666666666" y="703.9"/>
      <point x="139.8" y="674.3666666666667"/>
    </contour>
  </outline>
</glyph>
<glyph name="visarga-tamil" format="2">
  <advance width="765.3333333333334"/>
  <unicode hex="0B83"/>
  <note>
uni0B83
</note>
  <outline>
    <contour>
      <point x="142.46666666666667" y="0.0" type="curve" smooth="yes"/>
      <point x="247.16666666666669" y="0.0"/>
      <point x="313.73333333333335" y="111.19999999999999"/>
      <point x="313.73333333333335" y="229.7" type="curve" smooth="yes"/>
      <point x="313.73333333333335" y="308.93333333333334"/>
      <point x="273.3333333333333" y="362.0"/>
      <point x="201.6" y="362.0" type="curve" smooth="yes"/>
      <point x="99.0" y="362.0"/>
      <point x="35.233333333333334" y="244.83333333333334"/>
      <point x="35.233333333333334" y="130.0" type="curve" smooth="yes"/>
      <point x="35.233333333333334" y="52.96666666666666"/>
      <point x="72.26666666666667" y="0.0"/>
    </contour>
    <contour>
      <point x="143.46666666666667" y="26.0" type="curve" smooth="yes"/>
      <point x="90.16666666666666" y="26.0"/>
      <point x="60.76666666666667" y="67.06666666666666"/>
      <point x="60.76666666666667" y="131.26666666666668" type="curve" smooth="yes"/>
      <point x="60.76666666666667" y="226.26666666666665"/>
      <point x="113.26666666666667" y="337.0"/>
      <point x="198.86666666666667" y="337.0" type="curve" smooth="yes"/>
      <point x="256.43333333333334" y="337.0"/>
      <point x="287.1" y="292.4"/>
      <point x="287.1" y="230.16666666666669" type="curve" smooth="yes"/>
      <point x="287.1" y="128.83333333333334"/>
      <point x="232.43333333333334" y="26.0"/>
    </contour>
    <contour>
      <point x="518.5666666666666" y="0.0" type="curve" smooth="yes"/>
      <point x="623.2666666666667" y="0.0"/>
      <point x="689.8333333333334" y="111.19999999999999"/>
      <point x="689.8333333333334" y="229.7" type="curve" smooth="yes"/>
      <point x="689.8333333333334" y="308.93333333333334"/>
      <point x="649.4333333333334" y="362.0"/>
      <point x="577.6999999999999" y="362.0" type="curve" smooth="yes"/>
      <point x="475.1" y="362.0"/>
      <point x="411.3333333333333" y="244.83333333333334"/>
      <point x="411.3333333333333" y="130.0" type="curve" smooth="yes"/>
      <point x="411.3333333333333" y="52.96666666666666"/>
      <point x="448.3666666666667" y="0.0"/>
    </contour>
    <contour>
      <point x="519.5666666666667" y="26.0" type="curve" smooth="yes"/>
      <point x="466.26666666666665" y="26.0"/>
      <point x="436.8666666666667" y="67.06666666666666"/>
      <point x="436.8666666666667" y="131.26666666666668" type="curve" smooth="yes"/>
      <point x="436.8666666666667" y="226.26666666666665"/>
      <point x="489.3666666666667" y="337.0"/>
      <point x="574.9666666666667" y="337.0" type="curve" smooth="yes"/>
      <point x="632.5333333333334" y="337.0"/>
      <point x="663.2" y="292.4"/>
      <point x="663.2" y="230.16666666666669" type="curve" smooth="yes"/>
      <point x="663.2" y="128.83333333333334"/>
      <point x="608.5333333333333" y="26.0"/>
    </contour>
    <contour>
      <point x="407.5" y="404.0" type="curve" smooth="yes"/>
      <point x="512.2" y="404.0"/>
      <point x="578.7666666666667" y="515.2"/>
      <point x="578.7666666666668" y="633.7" type="curve" smooth="yes"/>
      <point x="578.7666666666668" y="712.9333333333333"/>
      <point x="538.3666666666667" y="766.0"/>
      <point x="466.6333333333333" y="766.0" type="curve" smooth="yes"/>
      <point x="364.03333333333336" y="766.0"/>
      <point x="300.26666666666665" y="648.8333333333334"/>
      <point x="300.26666666666665" y="534.0" type="curve" smooth="yes"/>
      <point x="300.26666666666665" y="456.9666666666667"/>
      <point x="337.3" y="404.0"/>
    </contour>
    <contour>
      <point x="408.5" y="430.0" type="curve" smooth="yes"/>
      <point x="355.2" y="430.0"/>
      <point x="325.8" y="471.06666666666666"/>
      <point x="325.8" y="535.2666666666667" type="curve" smooth="yes"/>
      <point x="325.8" y="630.2666666666667"/>
      <point x="378.3" y="741.0"/>
      <point x="463.9" y="741.0" type="curve" smooth="yes"/>
      <point x="521.4666666666667" y="741.0"/>
      <point x="552.1333333333333" y="696.4"/>
      <point x="552.1333333333333" y="634.1666666666666" type="curve" smooth="yes"/>
      <point x="552.1333333333333" y="532.8333333333333"/>
      <point x="497.4666666666667" y="430.0"/>
    </contour>
  </outline>
</glyph>
<glyph name="a-tamil" format="2">
  <advance width="1137.5666666666668"/>
  <unicode hex="0B85"/>
  <note>
uni0B85
</note>
  <anchor x="492.46666666666664" y="0.0" name="bottom"/>
  <anchor x="321.6666666666667" y="-87.66666666666667" name="nukta"/>
  <anchor x="611.8333333333334" y="542.0" name="top"/>
  <anchor x="612.2" y="542.0" name="vedic"/>
  <outline>
    <contour>
      <point x="903.9666666666666" y="-153.1" type="line"/>
      <point x="932.6" y="-153.1" type="line"/>
      <point x="1080.7666666666667" y="543.2666666666667" type="line"/>
      <point x="1051.7666666666667" y="543.2666666666667" type="line"/>
      <point x="971.1333333333333" y="162.1" type="line"/>
      <point x="71.26666666666667" y="162.1" type="line" smooth="yes"/>
      <point x="27.2" y="162.1"/>
      <point x="3.866666666666667" y="136.26666666666668"/>
      <point x="3.866666666666667" y="96.73333333333333" type="curve" smooth="yes"/>
      <point x="3.866666666666667" y="19.666666666666664"/>
      <point x="132.5" y="-86.4"/>
      <point x="335.59999999999997" y="-86.4" type="curve" smooth="yes"/>
      <point x="606.6666666666666" y="-86.4"/>
      <point x="816.1666666666667" y="54.73333333333333"/>
      <point x="816.1666666666667" y="314.40000000000003" type="curve" smooth="yes"/>
      <point x="816.1666666666667" y="466.90000000000003"/>
      <point x="720.5666666666667" y="552.2666666666667"/>
      <point x="582.1666666666666" y="552.2666666666667" type="curve" smooth="yes"/>
      <point x="458.46666666666664" y="552.2666666666667"/>
      <point x="369.73333333333335" y="474.93333333333334"/>
      <point x="369.73333333333335" y="369.8666666666667" type="curve" smooth="yes"/>
      <point x="369.73333333333335" y="311.0"/>
      <point x="411.1333333333333" y="267.26666666666665"/>
      <point x="472.26666666666665" y="267.26666666666665" type="curve" smooth="yes"/>
      <point x="552.8666666666667" y="267.26666666666665"/>
      <point x="604.1" y="324.1333333333334"/>
      <point x="604.1" y="413.20000000000005" type="curve" smooth="yes"/>
      <point x="604.1" y="461.7333333333333"/>
      <point x="580.0333333333333" y="511.6333333333334"/>
      <point x="541.5666666666667" y="536.2666666666667" type="curve"/>
      <point x="512.4" y="531.6333333333333" type="line"/>
      <point x="557.3000000000001" y="500.3666666666667"/>
      <point x="576.1" y="454.56666666666666"/>
      <point x="576.1" y="413.03333333333336" type="curve" smooth="yes"/>
      <point x="576.1" y="343.9666666666667"/>
      <point x="539.9666666666667" y="292.26666666666665"/>
      <point x="473.90000000000003" y="292.26666666666665" type="curve" smooth="yes"/>
      <point x="428.76666666666665" y="292.26666666666665"/>
      <point x="397.73333333333335" y="325.3666666666667"/>
      <point x="397.73333333333335" y="374.5" type="curve" smooth="yes"/>
      <point x="397.73333333333335" y="461.2"/>
      <point x="472.26666666666665" y="528.2666666666667"/>
      <point x="578.8" y="528.2666666666667" type="curve" smooth="yes"/>
      <point x="701.1333333333333" y="528.2666666666667"/>
      <point x="785.9" y="448.2666666666667"/>
      <point x="785.9" y="310.8666666666667" type="curve" smooth="yes"/>
      <point x="785.9" y="72.03333333333335"/>
      <point x="581.9" y="-60.4"/>
      <point x="336.96666666666664" y="-60.4" type="curve" smooth="yes"/>
      <point x="160.93333333333334" y="-60.4"/>
      <point x="31.233333333333334" y="28.299999999999997"/>
      <point x="31.233333333333334" y="99.46666666666667" type="curve" smooth="yes"/>
      <point x="31.233333333333334" y="124.63333333333334"/>
      <point x="47.93333333333334" y="139.1"/>
      <point x="71.36666666666666" y="139.1" type="curve" smooth="yes"/>
      <point x="966.1333333333333" y="139.1" type="line"/>
    </contour>
  </outline>
</glyph>
<glyph name="aa-tamil" format="2">
  <advance width="1221.0333333333333"/>
  <unicode hex="0B86"/>
  <note>
uni0B86
</note>
  <anchor x="541.1" y="0.0" name="bottom"/>
  <anchor x="317.16666666666663" y="-87.66666666666667" name="nukta"/>
  <anchor x="659.8333333333334" y="542.0" name="top"/>
  <anchor x="660.4666666666667" y="542.0" name="vedic"/>
  <outline>
    <contour>
      <point x="733.1999999999999" y="-402.23333333333335" type="curve" smooth="yes"/>
      <point x="908.8333333333334" y="-402.23333333333335"/>
      <point x="1114.2666666666667" y="-269.2666666666667"/>
      <point x="1114.2666666666667" y="-92.13333333333334" type="curve" smooth="yes"/>
      <point x="1114.2666666666667" y="-29.533333333333335"/>
      <point x="1078.9333333333334" y="1.0"/>
      <point x="1033.6" y="1.0" type="curve" smooth="yes"/>
      <point x="986.1" y="1.0"/>
      <point x="947.2333333333333" y="-35.96666666666667"/>
      <point x="925.3333333333333" y="-108.4" type="curve"/>
      <point x="938.5" y="-118.4" type="line"/>
      <point x="954.1333333333333" y="-55.5"/>
      <point x="989.6333333333333" y="-26.0"/>
      <point x="1029.8666666666666" y="-26.0" type="curve" smooth="yes"/>
      <point x="1060.2" y="-26.0"/>
      <point x="1084.6333333333334" y="-45.16666666666667"/>
      <point x="1084.6333333333334" y="-92.5" type="curve" smooth="yes"/>
      <point x="1084.6333333333334" y="-251.53333333333333"/>
      <point x="892.8666666666667" y="-374.8666666666667"/>
      <point x="734.5666666666667" y="-374.8666666666667" type="curve" smooth="yes"/>
      <point x="658.2" y="-374.8666666666667"/>
      <point x="608.3333333333334" y="-345.33333333333337"/>
      <point x="608.3333333333334" y="-285.09999999999997" type="curve" smooth="yes"/>
      <point x="608.3333333333334" y="-231.1"/>
      <point x="645.1333333333334" y="-197.3"/>
      <point x="706.7333333333333" y="-174.26666666666665" type="curve"/>
      <point x="699.2666666666667" y="-149.73333333333335" type="line"/>
      <point x="624.5000000000001" y="-177.76666666666668"/>
      <point x="580.3333333333333" y="-217.83333333333331"/>
      <point x="580.3333333333333" y="-286.1" type="curve" smooth="yes"/>
      <point x="580.3333333333333" y="-356.7"/>
      <point x="636.5666666666666" y="-402.23333333333335"/>
    </contour>
    <component base="a-tamil"/>
  </outline>
</glyph>
<glyph name="i-tamil" format="2">
  <advance width="860.7666666666667"/>
  <unicode hex="0B87"/>
  <note>
uni0B87
</note>
  <anchor x="361.06666666666666" y="0.0" name="bottom"/>
  <anchor x="317.56666666666666" y="-246.16666666666666" name="nukta"/>
  <anchor x="491.76666666666665" y="784.3" name="top"/>
  <anchor x="465.8666666666667" y="542.0" name="vedic"/>
  <outline>
    <contour>
      <point x="101.0" y="-278.0" type="curve" smooth="yes"/>
      <point x="356.8" y="-278.0"/>
      <point x="647.4333333333333" y="67.8"/>
      <point x="647.4333333333333" y="352.06666666666666" type="curve" smooth="yes"/>
      <point x="647.4333333333333" y="475.26666666666665"/>
      <point x="576.1666666666666" y="551.0"/>
      <point x="456.3666666666667" y="551.0" type="curve" smooth="yes"/>
      <point x="344.06666666666666" y="551.0"/>
      <point x="260.40000000000003" y="472.76666666666665"/>
      <point x="260.40000000000003" y="371.5" type="curve" smooth="yes"/>
      <point x="260.40000000000003" y="311.43333333333334"/>
      <point x="299.1666666666667" y="266.0"/>
      <point x="359.83333333333337" y="266.0" type="curve" smooth="yes"/>
      <point x="438.6333333333333" y="266.0"/>
      <point x="491.5" y="325.43333333333334"/>
      <point x="491.5" y="410.3" type="curve" smooth="yes"/>
      <point x="491.5" y="461.56666666666666"/>
      <point x="467.53333333333336" y="510.90000000000003"/>
      <point x="432.3" y="535.0" type="curve"/>
      <point x="404.2333333333333" y="530.0" type="line"/>
      <point x="445.1666666666667" y="499.6333333333333"/>
      <point x="464.5" y="456.4"/>
      <point x="464.5" y="412.1333333333333" type="curve" smooth="yes"/>
      <point x="464.5" y="343.43333333333334"/>
      <point x="422.0" y="291.0"/>
      <point x="360.2" y="291.0" type="curve" smooth="yes"/>
      <point x="318.16666666666663" y="291.0"/>
      <point x="288.3" y="326.53333333333336"/>
      <point x="288.3" y="372.5" type="curve" smooth="yes"/>
      <point x="288.3" y="458.66666666666663"/>
      <point x="356.7" y="527.0"/>
      <point x="453.6333333333333" y="527.0" type="curve" smooth="yes"/>
      <point x="558.9" y="527.0"/>
      <point x="619.0666666666667" y="458.26666666666665"/>
      <point x="619.0666666666667" y="347.33333333333337" type="curve" smooth="yes"/>
      <point x="619.0666666666667" y="89.23333333333333"/>
      <point x="342.9666666666667" y="-252.0"/>
      <point x="105.16666666666667" y="-252.0" type="curve" smooth="yes"/>
      <point x="35.86666666666667" y="-252.0"/>
      <point x="-2.5333333333333323" y="-213.73333333333335"/>
      <point x="-2.5333333333333323" y="-156.2" type="curve" smooth="yes"/>
      <point x="-2.5333333333333323" y="-19.3"/>
      <point x="174.53333333333336" y="80.0"/>
      <point x="361.09999999999997" y="80.0" type="curve" smooth="yes"/>
      <point x="523.2666666666667" y="80.0"/>
      <point x="672.3666666666667" y="-1.6333333333333346"/>
      <point x="672.3666666666667" y="-126.26666666666665" type="curve" smooth="yes"/>
      <point x="672.3666666666667" y="-207.16666666666669"/>
      <point x="620.7333333333333" y="-252.0"/>
      <point x="534.6" y="-252.0" type="curve" smooth="yes"/>
      <point x="357.9666666666667" y="-252.0"/>
      <point x="115.46666666666667" y="35.16666666666667"/>
      <point x="115.46666666666667" y="324.93333333333334" type="curve" smooth="yes"/>
      <point x="115.46666666666667" y="551.1"/>
      <point x="246.06666666666666" y="753.3000000000001"/>
      <point x="487.93333333333334" y="753.3000000000001" type="curve" smooth="yes"/>
      <point x="713.9" y="753.3000000000001"/>
      <point x="828.0333333333333" y="578.3333333333333"/>
      <point x="776.9666666666667" y="335.16666666666663" type="curve" smooth="yes"/>
      <point x="728.9333333333334" y="108.0" type="line"/>
      <point x="753.3" y="108.0" type="line"/>
      <point x="801.7" y="335.1666666666667" type="line" smooth="yes"/>
      <point x="858.7666666666667" y="601.2333333333333"/>
      <point x="732.4333333333333" y="784.3"/>
      <point x="491.76666666666665" y="784.3" type="curve" smooth="yes"/>
      <point x="232.86666666666665" y="784.3"/>
      <point x="88.2" y="570.8333333333333"/>
      <point x="88.2" y="327.2" type="curve" smooth="yes"/>
      <point x="88.2" y="27.43333333333333"/>
      <point x="337.23333333333335" y="-278.0"/>
      <point x="535.3333333333333" y="-278.0" type="curve" smooth="yes"/>
      <point x="635.4666666666667" y="-278.0"/>
      <point x="700.6333333333333" y="-224.0666666666667"/>
      <point x="700.6333333333333" y="-122.26666666666667" type="curve" smooth="yes"/>
      <point x="700.6333333333333" y="16.366666666666667"/>
      <point x="542.8" y="105.0"/>
      <point x="362.1" y="105.0" type="curve" smooth="yes"/>
      <point x="174.2" y="105.0"/>
      <point x="-31.799999999999997" y="1.3000000000000007"/>
      <point x="-31.799999999999997" y="-161.56666666666666" type="curve" smooth="yes"/>
      <point x="-31.799999999999997" y="-231.1"/>
      <point x="21.333333333333332" y="-278.0"/>
    </contour>
  </outline>
</glyph>
<glyph name="ii-tamil" format="2">
  <advance width="666.0333333333333"/>
  <unicode hex="0B88"/>
  <note>
uni0B88
</note>
  <anchor x="297.3" y="0.0" name="bottom"/>
  <anchor x="297.93333333333334" y="0.0" name="nukta"/>
  <anchor x="415.6666666666667" y="542.0" name="top"/>
  <anchor x="415.6666666666667" y="542.0" name="vedic"/>
  <outline>
    <contour>
      <point x="57.43333333333333" y="0.0" type="line"/>
      <point x="82.80000000000001" y="0.0" type="line"/>
      <point x="192.8" y="519.0" type="line"/>
      <point x="463.7" y="519.0" type="line"/>
      <point x="352.70000000000005" y="0.0" type="line"/>
      <point x="382.06666666666666" y="0.0" type="line"/>
      <point x="492.06666666666666" y="519.0" type="line"/>
      <point x="672.6999999999999" y="519.0" type="line"/>
      <point x="677.6999999999999" y="542.0" type="line"/>
      <point x="172.79999999999998" y="542.0" type="line"/>
    </contour>
    <contour>
      <point x="270.3" y="228.46666666666667" type="curve" smooth="yes"/>
      <point x="288.93333333333334" y="228.46666666666667"/>
      <point x="304.4666666666667" y="243.36666666666667"/>
      <point x="304.4666666666667" y="261.0" type="curve" smooth="yes"/>
      <point x="304.4666666666667" y="278.26666666666665"/>
      <point x="288.93333333333334" y="293.9"/>
      <point x="270.3" y="293.9" type="curve" smooth="yes"/>
      <point x="251.66666666666666" y="293.9"/>
      <point x="236.76666666666668" y="278.26666666666665"/>
      <point x="236.76666666666668" y="261.0" type="curve" smooth="yes"/>
      <point x="236.76666666666668" y="243.36666666666667"/>
      <point x="251.66666666666666" y="228.46666666666667"/>
    </contour>
    <contour>
      <point x="573.8333333333333" y="228.46666666666667" type="curve" smooth="yes"/>
      <point x="592.4666666666666" y="228.46666666666667"/>
      <point x="608.0" y="243.36666666666667"/>
      <point x="608.0" y="261.0" type="curve" smooth="yes"/>
      <point x="608.0" y="278.26666666666665"/>
      <point x="592.4666666666666" y="293.9"/>
      <point x="573.8333333333333" y="293.9" type="curve" smooth="yes"/>
      <point x="555.1999999999999" y="293.9"/>
      <point x="540.3" y="278.26666666666665"/>
      <point x="540.3" y="261.0" type="curve" smooth="yes"/>
      <point x="540.3" y="243.36666666666667"/>
      <point x="555.1999999999999" y="228.46666666666667"/>
    </contour>
  </outline>
</glyph>
<glyph name="u-tamil" format="2">
  <advance width="932.1333333333333"/>
  <unicode hex="0B89"/>
  <note>
uni0B89
</note>
  <anchor x="426.3666666666667" y="0.0" name="bottom"/>
  <anchor x="426.3666666666667" y="0.0" name="nukta"/>
  <anchor x="543.3666666666667" y="542.0" name="top"/>
  <anchor x="544.0" y="542.0" name="vedic"/>
  <outline>
    <contour>
      <point x="95.39999999999999" y="0.0" type="curve" smooth="yes"/>
      <point x="847.5" y="0.0" type="line"/>
      <point x="851.8666666666667" y="23.0" type="line"/>
      <point x="97.76666666666667" y="23.0" type="line" smooth="yes"/>
      <point x="58.233333333333334" y="23.0"/>
      <point x="37.233333333333334" y="49.26666666666667"/>
      <point x="37.233333333333334" y="80.73333333333333" type="curve" smooth="yes"/>
      <point x="37.233333333333334" y="121.63333333333333"/>
      <point x="68.13333333333333" y="146.0"/>
      <point x="116.10000000000001" y="146.0" type="curve" smooth="yes"/>
      <point x="326.3" y="146.0" type="line" smooth="yes"/>
      <point x="477.3" y="146.0"/>
      <point x="586.8666666666667" y="225.93333333333334"/>
      <point x="586.8666666666667" y="371.33333333333337" type="curve" smooth="yes"/>
      <point x="586.8666666666667" y="493.2666666666667"/>
      <point x="497.06666666666666" y="551.0"/>
      <point x="381.8" y="551.0" type="curve" smooth="yes"/>
      <point x="264.1333333333334" y="551.0"/>
      <point x="161.8" y="472.6"/>
      <point x="161.8" y="370.5" type="curve" smooth="yes"/>
      <point x="161.8" y="312.8"/>
      <point x="199.66666666666666" y="266.0"/>
      <point x="264.23333333333335" y="266.0" type="curve" smooth="yes"/>
      <point x="340.3" y="266.0"/>
      <point x="398.3333333333333" y="317.96666666666664"/>
      <point x="398.3333333333333" y="402.7666666666667" type="curve" smooth="yes"/>
      <point x="398.3333333333333" y="460.3"/>
      <point x="375.5333333333333" y="500.4"/>
      <point x="340.7666666666667" y="535.0" type="curve"/>
      <point x="312.6" y="530.0" type="line"/>
      <point x="354.16666666666663" y="488.1333333333333"/>
      <point x="371.3333333333333" y="452.0333333333333"/>
      <point x="371.3333333333333" y="401.23333333333335" type="curve" smooth="yes"/>
      <point x="371.3333333333333" y="334.7"/>
      <point x="321.5" y="291.0"/>
      <point x="264.8666666666667" y="291.0" type="curve" smooth="yes"/>
      <point x="215.66666666666669" y="291.0"/>
      <point x="189.0666666666667" y="328.43333333333334"/>
      <point x="189.0666666666667" y="373.1333333333333" type="curve" smooth="yes"/>
      <point x="189.0666666666667" y="459.6"/>
      <point x="277.6666666666667" y="527.0"/>
      <point x="379.1666666666667" y="527.0" type="curve" smooth="yes"/>
      <point x="477.90000000000003" y="527.0"/>
      <point x="557.5" y="478.79999999999995"/>
      <point x="557.5" y="370.43333333333334" type="curve" smooth="yes"/>
      <point x="557.5" y="244.2"/>
      <point x="461.1333333333333" y="170.0"/>
      <point x="324.6666666666667" y="170.0" type="curve" smooth="yes"/>
      <point x="120.0" y="170.0" type="line" smooth="yes"/>
      <point x="55.666666666666664" y="170.0"/>
      <point x="10.966666666666667" y="138.7"/>
      <point x="10.966666666666667" y="78.1" type="curve" smooth="yes"/>
      <point x="10.966666666666667" y="37.266666666666666"/>
      <point x="39.86666666666667" y="0.0"/>
    </contour>
  </outline>
</glyph>
<glyph name="uu-tamil" format="2">
  <advance width="1453.8666666666668"/>
  <unicode hex="0B8A"/>
  <note>
uni0B8A
</note>
  <anchor x="707.9333333333334" y="0.0" name="bottom"/>
  <anchor x="708.9333333333334" y="0.0" name="nukta"/>
  <anchor x="825.9333333333334" y="542.0" name="top"/>
  <anchor x="825.9333333333334" y="542.0" name="vedic"/>
  <outline>
    <contour>
      <point x="95.39999999999999" y="0.0" type="curve" smooth="yes"/>
      <point x="1379.3" y="0.0" type="line"/>
      <point x="1383.6666666666667" y="23.0" type="line"/>
      <point x="97.76666666666667" y="23.0" type="line" smooth="yes"/>
      <point x="58.233333333333334" y="23.0"/>
      <point x="37.233333333333334" y="49.26666666666667"/>
      <point x="37.233333333333334" y="80.73333333333333" type="curve" smooth="yes"/>
      <point x="37.233333333333334" y="121.63333333333333"/>
      <point x="68.13333333333333" y="146.0"/>
      <point x="116.10000000000001" y="146.0" type="curve" smooth="yes"/>
      <point x="326.3" y="146.0" type="line" smooth="yes"/>
      <point x="477.3" y="146.0"/>
      <point x="586.8666666666667" y="225.93333333333334"/>
      <point x="586.8666666666667" y="371.33333333333337" type="curve" smooth="yes"/>
      <point x="586.8666666666667" y="493.2666666666667"/>
      <point x="497.06666666666666" y="551.0"/>
      <point x="381.8" y="551.0" type="curve" smooth="yes"/>
      <point x="264.1333333333334" y="551.0"/>
      <point x="161.8" y="472.6"/>
      <point x="161.8" y="370.5" type="curve" smooth="yes"/>
      <point x="161.8" y="312.8"/>
      <point x="199.66666666666666" y="266.0"/>
      <point x="264.23333333333335" y="266.0" type="curve" smooth="yes"/>
      <point x="340.3" y="266.0"/>
      <point x="398.3333333333333" y="317.96666666666664"/>
      <point x="398.3333333333333" y="402.7666666666667" type="curve" smooth="yes"/>
      <point x="398.3333333333333" y="460.3"/>
      <point x="375.5333333333333" y="500.4"/>
      <point x="340.7666666666667" y="535.0" type="curve"/>
      <point x="312.6" y="530.0" type="line"/>
      <point x="354.16666666666663" y="488.1333333333333"/>
      <point x="371.3333333333333" y="452.0333333333333"/>
      <point x="371.3333333333333" y="401.23333333333335" type="curve" smooth="yes"/>
      <point x="371.3333333333333" y="334.7"/>
      <point x="321.5" y="291.0"/>
      <point x="264.8666666666667" y="291.0" type="curve" smooth="yes"/>
      <point x="215.66666666666669" y="291.0"/>
      <point x="189.0666666666667" y="328.43333333333334"/>
      <point x="189.0666666666667" y="373.1333333333333" type="curve" smooth="yes"/>
      <point x="189.0666666666667" y="459.6"/>
      <point x="277.6666666666667" y="527.0"/>
      <point x="379.1666666666667" y="527.0" type="curve" smooth="yes"/>
      <point x="477.90000000000003" y="527.0"/>
      <point x="557.5" y="478.79999999999995"/>
      <point x="557.5" y="370.43333333333334" type="curve" smooth="yes"/>
      <point x="557.5" y="244.2"/>
      <point x="461.1333333333333" y="170.0"/>
      <point x="324.6666666666667" y="170.0" type="curve" smooth="yes"/>
      <point x="120.0" y="170.0" type="line" smooth="yes"/>
      <point x="55.666666666666664" y="170.0"/>
      <point x="10.966666666666667" y="138.7"/>
      <point x="10.966666666666667" y="78.1" type="curve" smooth="yes"/>
      <point x="10.966666666666667" y="37.266666666666666"/>
      <point x="39.86666666666667" y="0.0"/>
    </contour>
    <contour>
      <point x="788.5" y="104.0" type="curve" smooth="yes"/>
      <point x="865.6666666666666" y="104.0"/>
      <point x="929.4333333333334" y="161.79999999999998"/>
      <point x="929.4333333333334" y="255.76666666666668" type="curve" smooth="yes"/>
      <point x="929.4333333333334" y="325.83333333333337"/>
      <point x="885.7666666666667" y="371.6333333333333"/>
      <point x="822.5333333333334" y="371.6333333333333" type="curve" smooth="yes"/>
      <point x="754.0666666666667" y="371.6333333333333"/>
      <point x="702.2" y="316.43333333333334"/>
      <point x="672.8333333333334" y="246.46666666666667" type="curve"/>
      <point x="680.0" y="221.36666666666667" type="line"/>
      <point x="713.0" y="294.33333333333337"/>
      <point x="757.3333333333334" y="347.0"/>
      <point x="817.2666666666668" y="347.0" type="curve" smooth="yes"/>
      <point x="869.4000000000001" y="347.0"/>
      <point x="901.8" y="313.20000000000005"/>
      <point x="901.8" y="254.5" type="curve" smooth="yes"/>
      <point x="901.8" y="178.26666666666665"/>
      <point x="849.2333333333333" y="129.0"/>
      <point x="789.1333333333333" y="129.0" type="curve" smooth="yes"/>
      <point x="723.8333333333333" y="129.0"/>
      <point x="679.6666666666667" y="186.53333333333333"/>
      <point x="680.3000000000001" y="268.3333333333333" type="curve" smooth="yes"/>
      <point x="680.9333333333334" y="384.3333333333333"/>
      <point x="765.9" y="527.0"/>
      <point x="909.1666666666666" y="527.0" type="curve" smooth="yes"/>
      <point x="1010.2333333333333" y="527.0"/>
      <point x="1094.4666666666667" y="460.03333333333336"/>
      <point x="1066.1333333333332" y="327.16666666666663" type="curve"/>
      <point x="1088.1333333333332" y="328.16666666666663" type="line"/>
      <point x="1119.8333333333335" y="478.2333333333333"/>
      <point x="1028.0333333333333" y="551.6333333333333"/>
      <point x="910.5333333333333" y="551.0" type="curve" smooth="yes"/>
      <point x="750.4666666666667" y="550.3666666666667"/>
      <point x="653.4" y="395.9"/>
      <point x="653.4" y="266.7" type="curve" smooth="yes"/>
      <point x="653.4" y="173.8"/>
      <point x="708.8333333333334" y="104.0"/>
    </contour>
    <contour>
      <point x="1019.3" y="107.0" type="line"/>
      <point x="1046.6666666666667" y="107.0" type="line"/>
      <point x="1134.6666666666665" y="519.0" type="line"/>
      <point x="1335.5333333333335" y="519.0" type="line"/>
      <point x="1248.5333333333335" y="107.0" type="line"/>
      <point x="1276.1666666666667" y="107.0" type="line"/>
      <point x="1363.5333333333333" y="519.0" type="line"/>
      <point x="1490.0333333333335" y="519.0" type="line"/>
      <point x="1495.0333333333335" y="542.0" type="line"/>
      <point x="1111.6666666666665" y="542.0" type="line"/>
      <point x="1084.0333333333333" y="414.1" type="line"/>
      <point x="1079.6666666666667" y="393.1" type="line"/>
    </contour>
  </outline>
</glyph>
<glyph name="e-tamil" format="2">
  <advance width="747.5666666666666"/>
  <unicode hex="0B8E"/>
  <note>
uni0B8E
</note>
  <anchor x="336.09999999999997" y="0.0" name="bottom"/>
  <anchor x="337.09999999999997" y="0.0" name="nukta"/>
  <anchor x="453.73333333333335" y="542.0" name="top"/>
  <anchor x="454.09999999999997" y="542.0" name="vedic"/>
  <outline>
    <contour>
      <point x="196.66666666666666" y="-4.0" type="curve" smooth="yes"/>
      <point x="278.8" y="-4.0"/>
      <point x="342.23333333333335" y="60.3"/>
      <point x="342.23333333333335" y="158.66666666666666" type="curve" smooth="yes"/>
      <point x="342.23333333333335" y="234.5"/>
      <point x="297.43333333333334" y="283.0"/>
      <point x="229.5" y="283.0" type="curve" smooth="yes"/>
      <point x="147.23333333333335" y="283.0"/>
      <point x="93.9" y="217.53333333333333"/>
      <point x="64.63333333333333" y="149.13333333333333" type="curve"/>
      <point x="73.8" y="122.66666666666666" type="line"/>
      <point x="109.43333333333334" y="197.53333333333333"/>
      <point x="151.86666666666667" y="258.0"/>
      <point x="223.6" y="258.0" type="curve" smooth="yes"/>
      <point x="284.43333333333334" y="258.0"/>
      <point x="313.6" y="219.23333333333332"/>
      <point x="313.6" y="156.29999999999998" type="curve" smooth="yes"/>
      <point x="313.6" y="75.3"/>
      <point x="261.5333333333333" y="21.0"/>
      <point x="198.66666666666669" y="21.0" type="curve" smooth="yes"/>
      <point x="123.13333333333334" y="21.0"/>
      <point x="72.66666666666667" y="80.66666666666667"/>
      <point x="72.66666666666667" y="190.0" type="curve" smooth="yes"/>
      <point x="72.66666666666667" y="355.90000000000003"/>
      <point x="176.13333333333333" y="519.0"/>
      <point x="384.06666666666666" y="519.0" type="curve" smooth="yes"/>
      <point x="599.6" y="519.0" type="line"/>
      <point x="489.6" y="0.0" type="line"/>
      <point x="517.6" y="0.0" type="line"/>
      <point x="627.9666666666667" y="519.0" type="line"/>
      <point x="774.5666666666666" y="519.0" type="line"/>
      <point x="779.5666666666666" y="542.0" type="line"/>
      <point x="385.9666666666667" y="542.0" type="line" smooth="yes"/>
      <point x="154.86666666666667" y="542.0"/>
      <point x="46.03333333333334" y="367.26666666666665"/>
      <point x="46.03333333333334" y="188.36666666666667" type="curve" smooth="yes"/>
      <point x="46.03333333333334" y="66.03333333333335"/>
      <point x="107.66666666666666" y="-4.0"/>
    </contour>
  </outline>
</glyph>
<glyph name="ee-tamil" format="2">
  <advance width="755.6333333333333"/>
  <unicode hex="0B8F"/>
  <note>
uni0B8F
</note>
  <anchor x="336.1" y="0.0" name="bottom"/>
  <anchor x="297.56666666666666" y="-186.2" name="nukta"/>
  <anchor x="453.8333333333333" y="542.0" name="top"/>
  <anchor x="454.1" y="542.0" name="vedic"/>
  <outline>
    <contour>
      <point x="305.33333333333337" y="-203.23333333333335" type="line"/>
      <point x="517.6" y="-2.2666666666666666" type="line"/>
      <point x="628.6" y="519.0" type="line"/>
      <point x="782.6333333333333" y="519.0" type="line"/>
      <point x="787.6333333333333" y="542.0" type="line"/>
      <point x="385.9666666666667" y="542.0" type="line" smooth="yes"/>
      <point x="154.86666666666667" y="542.0"/>
      <point x="46.03333333333334" y="367.26666666666665"/>
      <point x="46.03333333333334" y="188.36666666666667" type="curve" smooth="yes"/>
      <point x="46.03333333333334" y="66.03333333333335"/>
      <point x="107.03333333333333" y="-4.0"/>
      <point x="196.03333333333333" y="-4.0" type="curve" smooth="yes"/>
      <point x="278.1666666666667" y="-4.0"/>
      <point x="342.23333333333335" y="60.3"/>
      <point x="342.23333333333335" y="158.66666666666666" type="curve" smooth="yes"/>
      <point x="342.23333333333335" y="233.86666666666667"/>
      <point x="297.43333333333334" y="283.0"/>
      <point x="229.5" y="283.0" type="curve" smooth="yes"/>
      <point x="147.23333333333335" y="283.0"/>
      <point x="93.9" y="217.53333333333333"/>
      <point x="64.63333333333333" y="149.13333333333333" type="curve"/>
      <point x="73.8" y="122.66666666666666" type="line"/>
      <point x="109.43333333333334" y="197.53333333333333"/>
      <point x="151.86666666666667" y="258.0"/>
      <point x="223.6" y="258.0" type="curve" smooth="yes"/>
      <point x="284.43333333333334" y="258.0"/>
      <point x="313.6" y="219.23333333333332"/>
      <point x="313.6" y="156.29999999999998" type="curve" smooth="yes"/>
      <point x="313.6" y="75.3"/>
      <point x="260.9" y="21.0"/>
      <point x="198.03333333333336" y="21.0" type="curve" smooth="yes"/>
      <point x="122.5" y="21.0"/>
      <point x="72.66666666666667" y="80.66666666666667"/>
      <point x="72.66666666666667" y="190.0" type="curve" smooth="yes"/>
      <point x="72.66666666666667" y="355.90000000000003"/>
      <point x="176.13333333333333" y="519.0"/>
      <point x="384.06666666666666" y="519.0" type="curve" smooth="yes"/>
      <point x="599.9666666666667" y="519.0" type="line"/>
      <point x="491.6" y="9.266666666666667" type="line"/>
      <point x="287.59999999999997" y="-184.33333333333331" type="line"/>
    </contour>
  </outline>
</glyph>
<glyph name="ai-tamil" format="2">
  <advance width="846.8"/>
  <unicode hex="0B90"/>
  <note>
uni0B90
</note>
  <anchor x="378.1666666666667" y="0.0" name="bottom"/>
  <anchor x="318.79999999999995" y="-278.0" name="nukta"/>
  <anchor x="496.2666666666667" y="542.0" name="top"/>
  <anchor x="497.26666666666665" y="542.0" name="vedic"/>
  <outline>
    <contour>
      <point x="140.0" y="-278.0" type="curve" smooth="yes"/>
      <point x="246.60000000000002" y="-278.0"/>
      <point x="313.43333333333334" y="-215.6"/>
      <point x="353.5" y="-148.7" type="curve"/>
      <point x="361.1333333333334" y="-215.86666666666667"/>
      <point x="408.06666666666666" y="-278.0"/>
      <point x="501.8" y="-278.0" type="curve" smooth="yes"/>
      <point x="628.9" y="-278.0"/>
      <point x="712.7666666666668" y="-183.46666666666667"/>
      <point x="712.7666666666668" y="-55.06666666666667" type="curve" smooth="yes"/>
      <point x="712.7666666666668" y="-6.866666666666667"/>
      <point x="699.3333333333333" y="38.46666666666667"/>
      <point x="679.9" y="78.89999999999999" type="curve"/>
      <point x="652.9000000000001" y="64.63333333333333" type="line"/>
      <point x="668.8" y="32.733333333333334"/>
      <point x="683.1333333333333" y="-11.233333333333333"/>
      <point x="683.1333333333333" y="-57.333333333333336" type="curve" smooth="yes"/>
      <point x="683.1333333333333" y="-166.93333333333334"/>
      <point x="610.0" y="-254.0"/>
      <point x="503.70000000000005" y="-254.0" type="curve" smooth="yes"/>
      <point x="398.26666666666665" y="-254.0"/>
      <point x="361.7" y="-175.76666666666665"/>
      <point x="382.9666666666667" y="-73.0" type="curve" smooth="yes"/>
      <point x="396.53333333333336" y="-8.0" type="line"/>
      <point x="371.06666666666666" y="-8.0" type="line"/>
      <point x="354.7" y="-82.66666666666667" type="line" smooth="yes"/>
      <point x="338.43333333333334" y="-155.83333333333334"/>
      <point x="256.1666666666667" y="-254.0"/>
      <point x="144.26666666666665" y="-254.0" type="curve" smooth="yes"/>
      <point x="60.36666666666667" y="-254.0"/>
      <point x="16.4" y="-204.56666666666666"/>
      <point x="16.4" y="-119.76666666666667" type="curve" smooth="yes"/>
      <point x="16.4" y="45.1"/>
      <point x="166.56666666666666" y="72.19999999999999"/>
      <point x="398.26666666666665" y="95.03333333333333" type="curve" smooth="yes"/>
      <point x="635.4666666666667" y="118.6"/>
      <point x="803.1333333333333" y="182.0"/>
      <point x="803.1333333333333" y="390.0333333333333" type="curve" smooth="yes"/>
      <point x="803.1333333333333" y="494.9"/>
      <point x="738.0333333333333" y="551.0"/>
      <point x="650.6333333333333" y="551.0" type="curve" smooth="yes"/>
      <point x="555.4666666666667" y="551.0"/>
      <point x="500.06666666666666" y="488.4"/>
      <point x="467.7333333333333" y="422.06666666666666" type="curve"/>
      <point x="454.3" y="491.6666666666667"/>
      <point x="401.53333333333336" y="551.0"/>
      <point x="296.4666666666667" y="551.0" type="curve" smooth="yes"/>
      <point x="161.23333333333332" y="551.0"/>
      <point x="67.6" y="437.6333333333333"/>
      <point x="67.6" y="307.03333333333336" type="curve" smooth="yes"/>
      <point x="67.6" y="228.46666666666667"/>
      <point x="109.46666666666667" y="164.0"/>
      <point x="182.73333333333332" y="164.0" type="curve" smooth="yes"/>
      <point x="251.9" y="164.0"/>
      <point x="308.6666666666667" y="217.6"/>
      <point x="308.6666666666667" y="298.93333333333334" type="curve" smooth="yes"/>
      <point x="308.6666666666667" y="356.4"/>
      <point x="274.59999999999997" y="398.0"/>
      <point x="215.93333333333334" y="398.0" type="curve" smooth="yes"/>
      <point x="150.20000000000002" y="398.0"/>
      <point x="107.4" y="343.7"/>
      <point x="81.13333333333333" y="276.70000000000005" type="curve"/>
      <point x="91.93333333333334" y="256.8" type="line"/>
      <point x="123.66666666666667" y="327.43333333333334"/>
      <point x="159.46666666666667" y="374.0"/>
      <point x="210.56666666666666" y="374.0" type="curve" smooth="yes"/>
      <point x="256.96666666666664" y="374.0"/>
      <point x="281.03333333333336" y="343.66666666666663"/>
      <point x="281.03333333333336" y="296.20000000000005" type="curve" smooth="yes"/>
      <point x="281.03333333333336" y="236.76666666666665"/>
      <point x="241.16666666666669" y="190.0"/>
      <point x="183.73333333333335" y="190.0" type="curve" smooth="yes"/>
      <point x="122.46666666666667" y="190.0"/>
      <point x="93.86666666666667" y="241.83333333333331"/>
      <point x="93.86666666666667" y="308.0333333333333" type="curve" smooth="yes"/>
      <point x="93.86666666666667" y="419.53333333333336"/>
      <point x="174.13333333333333" y="526.0"/>
      <point x="292.20000000000005" y="526.0" type="curve" smooth="yes"/>
      <point x="398.16666666666663" y="526.0"/>
      <point x="464.9" y="453.96666666666664"/>
      <point x="442.0" y="346.73333333333335" type="curve" smooth="yes"/>
      <point x="413.06666666666666" y="208.0" type="line"/>
      <point x="438.53333333333336" y="208.0" type="line"/>
      <point x="469.6333333333334" y="356.76666666666665" type="line" smooth="yes"/>
      <point x="485.26666666666665" y="429.93333333333334"/>
      <point x="545.6333333333333" y="527.0"/>
      <point x="647.0" y="527.0" type="curve" smooth="yes"/>
      <point x="722.4" y="527.0"/>
      <point x="772.8666666666667" y="476.3666666666666"/>
      <point x="772.8666666666667" y="386.7666666666667" type="curve" smooth="yes"/>
      <point x="772.8666666666667" y="193.96666666666667"/>
      <point x="621.7666666666667" y="139.13333333333333"/>
      <point x="389.79999999999995" y="116.66666666666666" type="curve" smooth="yes"/>
      <point x="147.63333333333333" y="93.46666666666667"/>
      <point x="-12.6" y="56.0"/>
      <point x="-12.6" y="-121.76666666666667" type="curve" smooth="yes"/>
      <point x="-12.6" y="-218.03333333333333"/>
      <point x="47.266666666666666" y="-278.0"/>
    </contour>
  </outline>
</glyph>
<glyph name="o-tamil" format="2">
  <advance width="859.0666666666667"/>
  <unicode hex="0B92"/>
  <note>
uni0B92
</note>
  <anchor x="370.20000000000005" y="0.0" name="bottom"/>
  <anchor x="297.20000000000005" y="-335.0" name="nukta"/>
  <anchor x="470.6" y="542.0" name="top"/>
  <anchor x="469.9666666666667" y="542.0" name="vedic"/>
  <outline>
    <contour>
      <point x="210.4" y="-287.53333333333336" type="curve" smooth="yes"/>
      <point x="354.53333333333336" y="-287.53333333333336"/>
      <point x="412.53333333333336" y="-124.3"/>
      <point x="575.4666666666667" y="-124.3" type="curve" smooth="yes"/>
      <point x="597.7666666666667" y="-124.3" type="line"/>
      <point x="602.7666666666668" y="-100.3" type="line"/>
      <point x="570.1999999999999" y="-100.3" type="line" smooth="yes"/>
      <point x="389.8666666666667" y="-100.3"/>
      <point x="387.8" y="100.4"/>
      <point x="518.5" y="229.03333333333333" type="curve"/>
      <point x="522.7666666666667" y="225.76666666666665" type="line"/>
      <point x="457.83333333333337" y="119.36666666666666"/>
      <point x="470.8" y="-5.0"/>
      <point x="586.7" y="-5.0" type="curve" smooth="yes"/>
      <point x="704.4666666666667" y="-5.0"/>
      <point x="787.4" y="106.36666666666667"/>
      <point x="787.4" y="249.06666666666666" type="curve" smooth="yes"/>
      <point x="787.4" y="440.2"/>
      <point x="645.2" y="551.0"/>
      <point x="444.5" y="551.0" type="curve" smooth="yes"/>
      <point x="207.26666666666668" y="551.0"/>
      <point x="43.5" y="370.40000000000003"/>
      <point x="43.5" y="191.23333333333335" type="curve" smooth="yes"/>
      <point x="43.5" y="63.76666666666667"/>
      <point x="99.43333333333334" y="-4.0"/>
      <point x="188.43333333333334" y="-4.0" type="curve" smooth="yes"/>
      <point x="270.56666666666666" y="-4.0"/>
      <point x="339.70000000000005" y="59.03333333333333"/>
      <point x="339.70000000000005" y="158.66666666666666" type="curve" smooth="yes"/>
      <point x="339.70000000000005" y="234.5"/>
      <point x="294.90000000000003" y="283.0"/>
      <point x="226.96666666666667" y="283.0" type="curve" smooth="yes"/>
      <point x="144.7" y="283.0"/>
      <point x="91.36666666666666" y="217.53333333333333"/>
      <point x="62.1" y="149.13333333333333" type="curve"/>
      <point x="71.26666666666667" y="122.66666666666666" type="line"/>
      <point x="106.9" y="197.53333333333333"/>
      <point x="149.33333333333331" y="258.0"/>
      <point x="221.06666666666666" y="258.0" type="curve" smooth="yes"/>
      <point x="281.90000000000003" y="258.0"/>
      <point x="311.06666666666666" y="219.23333333333332"/>
      <point x="311.06666666666666" y="156.29999999999998" type="curve" smooth="yes"/>
      <point x="311.06666666666666" y="75.3"/>
      <point x="253.3" y="21.0"/>
      <point x="190.43333333333334" y="21.0" type="curve" smooth="yes"/>
      <point x="114.9" y="21.0"/>
      <point x="70.13333333333334" y="78.4"/>
      <point x="70.13333333333334" y="192.86666666666667" type="curve" smooth="yes"/>
      <point x="70.13333333333334" y="356.1"/>
      <point x="227.7" y="527.0"/>
      <point x="442.76666666666665" y="527.0" type="curve" smooth="yes"/>
      <point x="627.8333333333333" y="527.0"/>
      <point x="758.0333333333333" y="423.7333333333333"/>
      <point x="758.0333333333333" y="244.70000000000002" type="curve" smooth="yes"/>
      <point x="758.0333333333333" y="125.36666666666667"/>
      <point x="690.3666666666667" y="21.0"/>
      <point x="589.0666666666666" y="21.0" type="curve" smooth="yes"/>
      <point x="484.0" y="21.0"/>
      <point x="489.8333333333333" y="152.3"/>
      <point x="563.3000000000001" y="251.6" type="curve"/>
      <point x="533.0" y="274.0333333333333" type="line"/>
      <point x="372.20000000000005" y="132.73333333333332"/>
      <point x="349.5" y="-62.333333333333336"/>
      <point x="503.5" y="-110.66666666666666" type="curve"/>
      <point x="502.8666666666667" y="-114.66666666666666" type="line"/>
      <point x="372.8666666666667" y="-141.9"/>
      <point x="326.6333333333334" y="-259.90000000000003"/>
      <point x="210.50000000000003" y="-259.90000000000003" type="curve" smooth="yes"/>
      <point x="151.73333333333332" y="-259.90000000000003"/>
      <point x="124.3" y="-222.03333333333333"/>
      <point x="124.3" y="-178.7" type="curve" smooth="yes"/>
      <point x="124.3" y="-135.1"/>
      <point x="150.0" y="-107.3"/>
      <point x="194.13333333333333" y="-74.33333333333333" type="curve"/>
      <point x="179.5" y="-54.06666666666667" type="line"/>
      <point x="129.0" y="-92.03333333333335"/>
      <point x="96.66666666666667" y="-123.4"/>
      <point x="96.66666666666667" y="-181.53333333333333" type="curve" smooth="yes"/>
      <point x="96.66666666666667" y="-238.03333333333333"/>
      <point x="135.1" y="-287.53333333333336"/>
    </contour>
  </outline>
</glyph>
<glyph name="oo-tamil" format="2">
  <advance width="859.0666666666667"/>
  <unicode hex="0B93"/>
  <note>
uni0B93
</note>
  <anchor x="367.3666666666667" y="0.0" name="bottom"/>
  <anchor x="307.8666666666667" y="-270.7" name="nukta"/>
  <anchor x="468.40000000000003" y="542.0" name="top"/>
  <anchor x="467.76666666666665" y="542.0" name="vedic"/>
  <outline>
    <contour>
      <point x="204.70000000000002" y="-290.70000000000005" type="curve" smooth="yes"/>
      <point x="342.5" y="-290.70000000000005"/>
      <point x="412.53333333333336" y="-124.3"/>
      <point x="575.4666666666667" y="-124.3" type="curve" smooth="yes"/>
      <point x="591.4333333333334" y="-124.3" type="line"/>
      <point x="596.4333333333334" y="-100.3" type="line"/>
      <point x="570.1999999999999" y="-100.3" type="line" smooth="yes"/>
      <point x="389.8666666666667" y="-100.3"/>
      <point x="387.79999999999995" y="100.4"/>
      <point x="518.5" y="229.03333333333333" type="curve"/>
      <point x="522.7666666666667" y="225.76666666666665" type="line"/>
      <point x="457.83333333333337" y="119.36666666666666"/>
      <point x="470.8" y="-5.0"/>
      <point x="586.7" y="-5.0" type="curve" smooth="yes"/>
      <point x="704.4666666666667" y="-5.0"/>
      <point x="787.4" y="106.36666666666667"/>
      <point x="787.4" y="249.06666666666666" type="curve" smooth="yes"/>
      <point x="787.4" y="440.2"/>
      <point x="645.2" y="551.0"/>
      <point x="444.5" y="551.0" type="curve" smooth="yes"/>
      <point x="207.26666666666668" y="551.0"/>
      <point x="43.5" y="370.40000000000003"/>
      <point x="43.5" y="191.23333333333335" type="curve" smooth="yes"/>
      <point x="43.5" y="63.76666666666667"/>
      <point x="99.43333333333334" y="-4.0"/>
      <point x="188.43333333333334" y="-4.0" type="curve" smooth="yes"/>
      <point x="270.56666666666666" y="-4.0"/>
      <point x="339.70000000000005" y="59.03333333333333"/>
      <point x="339.70000000000005" y="158.66666666666666" type="curve" smooth="yes"/>
      <point x="339.70000000000005" y="234.5"/>
      <point x="294.90000000000003" y="283.0"/>
      <point x="226.96666666666667" y="283.0" type="curve" smooth="yes"/>
      <point x="144.7" y="283.0"/>
      <point x="91.36666666666666" y="217.53333333333333"/>
      <point x="62.1" y="149.13333333333333" type="curve"/>
      <point x="71.26666666666667" y="122.66666666666666" type="line"/>
      <point x="106.9" y="197.53333333333333"/>
      <point x="149.33333333333331" y="258.0"/>
      <point x="221.06666666666666" y="258.0" type="curve" smooth="yes"/>
      <point x="281.90000000000003" y="258.0"/>
      <point x="311.06666666666666" y="219.23333333333332"/>
      <point x="311.06666666666666" y="156.29999999999998" type="curve" smooth="yes"/>
      <point x="311.06666666666666" y="75.3"/>
      <point x="253.3" y="21.0"/>
      <point x="190.43333333333334" y="21.0" type="curve" smooth="yes"/>
      <point x="114.9" y="21.0"/>
      <point x="70.13333333333334" y="78.4"/>
      <point x="70.13333333333334" y="192.86666666666667" type="curve" smooth="yes"/>
      <point x="70.13333333333334" y="356.1"/>
      <point x="227.7" y="527.0"/>
      <point x="442.76666666666665" y="527.0" type="curve" smooth="yes"/>
      <point x="627.8333333333333" y="527.0"/>
      <point x="758.0333333333333" y="423.7333333333333"/>
      <point x="758.0333333333333" y="244.70000000000002" type="curve" smooth="yes"/>
      <point x="758.0333333333333" y="125.36666666666667"/>
      <point x="690.3666666666667" y="21.0"/>
      <point x="589.0666666666666" y="21.0" type="curve" smooth="yes"/>
      <point x="484.0" y="21.0"/>
      <point x="489.8333333333333" y="152.3"/>
      <point x="563.3000000000001" y="251.6" type="curve"/>
      <point x="533.0" y="274.0333333333333" type="line"/>
      <point x="372.2" y="132.73333333333332"/>
      <point x="349.5" y="-62.333333333333336"/>
      <point x="503.5" y="-110.66666666666666" type="curve"/>
      <point x="502.8666666666667" y="-114.66666666666666" type="line"/>
      <point x="372.8666666666667" y="-141.9"/>
      <point x="314.59999999999997" y="-263.06666666666666"/>
      <point x="204.79999999999998" y="-263.06666666666666" type="curve" smooth="yes"/>
      <point x="149.2" y="-263.06666666666666"/>
      <point x="115.33333333333333" y="-228.8"/>
      <point x="115.33333333333333" y="-180.76666666666668" type="curve" smooth="yes"/>
      <point x="115.33333333333333" y="-132.20000000000002"/>
      <point x="148.73333333333335" y="-96.86666666666667"/>
      <point x="196.6" y="-96.86666666666667" type="curve" smooth="yes"/>
      <point x="230.86666666666667" y="-96.86666666666667"/>
      <point x="252.20000000000002" y="-116.86666666666667"/>
      <point x="256.46666666666664" y="-138.5" type="curve"/>
      <point x="272.0" y="-130.6"/>
      <point x="284.0" y="-118.5"/>
      <point x="284.0" y="-98.96666666666667" type="curve" smooth="yes"/>
      <point x="284.0" y="-74.86666666666666"/>
      <point x="252.63333333333333" y="-58.599999999999994"/>
      <point x="214.03333333333336" y="-58.599999999999994" type="curve" smooth="yes"/>
      <point x="138.93333333333334" y="-58.599999999999994"/>
      <point x="88.8" y="-119.26666666666667"/>
      <point x="88.8" y="-184.13333333333333" type="curve" smooth="yes"/>
      <point x="88.8" y="-244.70000000000002"/>
      <point x="135.46666666666667" y="-290.70000000000005"/>
    </contour>
  </outline>
</glyph>
<glyph name="ka-tamil" format="2">
  <advance width="693.5666666666666"/>
  <unicode hex="0B95"/>
  <note>
uni0B95
</note>
  <anchor x="303.7666666666667" y="0.0" name="bottom"/>
  <anchor x="515.2333333333333" y="542.0" name="imatra"/>
  <anchor x="308.7666666666667" y="0.0" name="nukta"/>
  <anchor x="420.90000000000003" y="542.0" name="top"/>
  <anchor x="425.2666666666667" y="542.0" name="vedic"/>
  <outline>
    <contour>
      <point x="179.23333333333332" y="-4.0" type="curve" smooth="yes"/>
      <point x="272.3" y="-4.0"/>
      <point x="333.3666666666667" y="48.66666666666667"/>
      <point x="359.90000000000003" y="171.36666666666667" type="curve" smooth="yes"/>
      <point x="382.3666666666667" y="275.0" type="line"/>
      <point x="455.6333333333334" y="275.0" type="line" smooth="yes"/>
      <point x="544.0666666666667" y="275.0"/>
      <point x="587.3666666666667" y="234.43333333333334"/>
      <point x="587.3666666666667" y="160.13333333333333" type="curve" smooth="yes"/>
      <point x="587.3666666666667" y="77.76666666666667"/>
      <point x="523.6999999999999" y="21.0"/>
      <point x="442.06666666666666" y="21.0" type="curve" smooth="yes"/>
      <point x="402.5" y="21.0" type="line"/>
      <point x="398.1333333333334" y="-2.0" type="line"/>
      <point x="443.06666666666666" y="-2.0" type="line" smooth="yes"/>
      <point x="541.9666666666667" y="-2.0"/>
      <point x="615.7333333333333" y="61.13333333333333"/>
      <point x="615.7333333333333" y="164.4" type="curve" smooth="yes"/>
      <point x="615.7333333333333" y="251.33333333333331"/>
      <point x="561.2666666666667" y="299.0"/>
      <point x="459.6333333333333" y="299.0" type="curve" smooth="yes"/>
      <point x="387.3666666666667" y="299.0" type="line"/>
      <point x="434.3666666666667" y="519.0" type="line"/>
      <point x="593.8000000000001" y="519.0" type="line"/>
      <point x="598.8000000000001" y="542.0" type="line"/>
      <point x="211.46666666666667" y="542.0" type="line"/>
      <point x="156.83333333333334" y="284.0" type="line"/>
      <point x="181.83333333333334" y="284.0" type="line"/>
      <point x="231.83333333333334" y="519.0" type="line"/>
      <point x="406.3666666666667" y="519.0" type="line"/>
      <point x="359.73333333333335" y="299.0" type="line"/>
      <point x="216.93333333333334" y="299.0" type="line" smooth="yes"/>
      <point x="105.16666666666667" y="299.0"/>
      <point x="33.96666666666667" y="226.86666666666667"/>
      <point x="33.96666666666667" y="135.0" type="curve" smooth="yes"/>
      <point x="33.96666666666667" y="56.03333333333333"/>
      <point x="89.83333333333333" y="-4.0"/>
    </contour>
    <contour>
      <point x="181.33333333333334" y="21.0" type="curve" smooth="yes"/>
      <point x="107.26666666666665" y="21.0"/>
      <point x="66.5" y="69.76666666666667"/>
      <point x="66.5" y="139.0" type="curve" smooth="yes"/>
      <point x="66.5" y="213.16666666666666"/>
      <point x="117.0" y="275.0"/>
      <point x="215.3" y="275.0" type="curve" smooth="yes"/>
      <point x="354.3666666666667" y="275.0" type="line"/>
      <point x="332.26666666666665" y="169.83333333333334" type="line" smooth="yes"/>
      <point x="312.0" y="71.83333333333333"/>
      <point x="258.4" y="21.0"/>
    </contour>
  </outline>
</glyph>
<glyph name="nga-tamil" format="2">
  <advance width="907.0666666666666"/>
  <unicode hex="0B99"/>
  <note>
uni0B99
</note>
  <anchor x="400.66666666666663" y="0.0" name="bottom"/>
  <anchor x="559.6" y="542.0" name="imatra"/>
  <anchor x="400.66666666666663" y="0.0" name="nukta"/>
  <anchor x="517.3" y="542.0" name="top"/>
  <anchor x="513.0333333333333" y="542.0" name="vedic"/>
  <outline>
    <contour>
      <point x="57.43333333333333" y="0.0" type="line"/>
      <point x="82.8" y="0.0" type="line"/>
      <point x="192.8" y="519.0" type="line"/>
      <point x="392.6666666666667" y="519.0" type="line"/>
      <point x="322.03333333333336" y="188.0" type="line"/>
      <point x="350.66666666666663" y="188.0" type="line"/>
      <point x="354.7666666666667" y="208.86666666666667" type="line" smooth="yes"/>
      <point x="365.40000000000003" y="260.2333333333333"/>
      <point x="411.20000000000005" y="332.0"/>
      <point x="487.09999999999997" y="332.0" type="curve" smooth="yes"/>
      <point x="542.2" y="332.0"/>
      <point x="572.8" y="294.9333333333333"/>
      <point x="572.8" y="236.5" type="curve" smooth="yes"/>
      <point x="572.8" y="120.63333333333334"/>
      <point x="462.3666666666667" y="23.0"/>
      <point x="354.2" y="23.0" type="curve" smooth="yes"/>
      <point x="287.03333333333336" y="23.0" type="line"/>
      <point x="282.03333333333336" y="0.0" type="line"/>
      <point x="734.2666666666667" y="0.0" type="line"/>
      <point x="849.2666666666667" y="542.0" type="line"/>
      <point x="821.6333333333334" y="542.0" type="line"/>
      <point x="711.6333333333334" y="23.0" type="line"/>
      <point x="442.5" y="23.0" type="line"/>
      <point x="533.9333333333334" y="58.56666666666667"/>
      <point x="603.4333333333334" y="138.86666666666665"/>
      <point x="603.4333333333334" y="238.23333333333332" type="curve" smooth="yes"/>
      <point x="603.4333333333334" y="311.73333333333335"/>
      <point x="559.0333333333333" y="355.0"/>
      <point x="492.73333333333335" y="355.0" type="curve" smooth="yes"/>
      <point x="431.8333333333333" y="355.0"/>
      <point x="393.03333333333336" y="319.23333333333335"/>
      <point x="372.0333333333333" y="287.1333333333333" type="curve"/>
      <point x="420.6666666666667" y="519.0" type="line"/>
      <point x="587.0333333333334" y="519.0" type="line"/>
      <point x="591.6666666666667" y="542.0" type="line"/>
      <point x="172.79999999999998" y="542.0" type="line"/>
    </contour>
  </outline>
</glyph>
<glyph name="ja-tamil" format="2">
  <advance width="850.2333333333333"/>
  <unicode hex="0B9C"/>
  <note>
uni0B9C
</note>
  <anchor x="378.1666666666667" y="0.0" name="bottom"/>
  <anchor x="318.79999999999995" y="-278.0" name="nukta"/>
  <anchor x="488.4" y="542.0" name="top"/>
  <anchor x="487.1333333333334" y="542.0" name="vedic"/>
  <outline>
    <contour>
      <point x="121.63333333333334" y="-278.0" type="curve" smooth="yes"/>
      <point x="305.5" y="-278.0"/>
      <point x="386.2" y="2.0"/>
      <point x="566.7666666666667" y="2.0" type="curve" smooth="yes"/>
      <point x="637.7" y="2.0"/>
      <point x="675.8333333333333" y="-44.06666666666666"/>
      <point x="675.8333333333333" y="-111.7" type="curve" smooth="yes"/>
      <point x="675.8333333333333" y="-195.86666666666667"/>
      <point x="615.8000000000001" y="-254.0"/>
      <point x="537.8333333333334" y="-254.0" type="curve" smooth="yes"/>
      <point x="496.3333333333333" y="-254.0"/>
      <point x="464.1666666666667" y="-240.1"/>
      <point x="437.1" y="-218.83333333333334" type="curve"/>
      <point x="420.73333333333335" y="-239.83333333333334" type="line"/>
      <point x="451.06666666666666" y="-263.3666666666667"/>
      <point x="484.9666666666667" y="-278.0"/>
      <point x="538.1" y="-278.0" type="curve" smooth="yes"/>
      <point x="631.9666666666667" y="-278.0"/>
      <point x="705.8333333333334" y="-210.7"/>
      <point x="705.8333333333334" y="-110.43333333333334" type="curve" smooth="yes"/>
      <point x="705.8333333333334" y="-29.799999999999997"/>
      <point x="657.2333333333333" y="26.0"/>
      <point x="569.1333333333333" y="26.0" type="curve" smooth="yes"/>
      <point x="370.1" y="26.0"/>
      <point x="287.40000000000003" y="-254.0"/>
      <point x="124.36666666666667" y="-254.0" type="curve" smooth="yes"/>
      <point x="54.16666666666667" y="-254.0"/>
      <point x="17.1" y="-204.2"/>
      <point x="17.1" y="-130.83333333333334" type="curve" smooth="yes"/>
      <point x="17.1" y="35.6"/>
      <point x="164.66666666666666" y="68.53333333333333"/>
      <point x="396.3666666666667" y="91.36666666666667" type="curve" smooth="yes"/>
      <point x="633.5666666666667" y="114.93333333333334"/>
      <point x="803.1333333333333" y="181.99999999999997"/>
      <point x="803.1333333333333" y="390.0333333333333" type="curve" smooth="yes"/>
      <point x="803.1333333333333" y="494.9"/>
      <point x="738.0333333333334" y="551.0"/>
      <point x="650.6333333333333" y="551.0" type="curve" smooth="yes"/>
      <point x="555.4666666666667" y="551.0"/>
      <point x="500.0666666666667" y="488.4"/>
      <point x="467.73333333333335" y="422.06666666666666" type="curve"/>
      <point x="454.3" y="491.6666666666667"/>
      <point x="401.53333333333336" y="551.0"/>
      <point x="296.4666666666667" y="551.0" type="curve" smooth="yes"/>
      <point x="161.23333333333335" y="551.0"/>
      <point x="67.6" y="437.6333333333333"/>
      <point x="67.6" y="307.03333333333336" type="curve" smooth="yes"/>
      <point x="67.6" y="228.46666666666667"/>
      <point x="109.46666666666667" y="164.0"/>
      <point x="182.73333333333335" y="164.0" type="curve" smooth="yes"/>
      <point x="251.9" y="164.0"/>
      <point x="308.66666666666663" y="217.6"/>
      <point x="308.66666666666663" y="298.93333333333334" type="curve" smooth="yes"/>
      <point x="308.66666666666663" y="356.4"/>
      <point x="274.6" y="398.0"/>
      <point x="215.93333333333334" y="398.0" type="curve" smooth="yes"/>
      <point x="150.2" y="398.0"/>
      <point x="107.4" y="343.7"/>
      <point x="81.13333333333333" y="276.70000000000005" type="curve"/>
      <point x="91.93333333333334" y="256.8" type="line"/>
      <point x="123.66666666666667" y="327.43333333333334"/>
      <point x="159.46666666666667" y="374.0"/>
      <point x="210.56666666666666" y="374.0" type="curve" smooth="yes"/>
      <point x="256.9666666666667" y="374.0"/>
      <point x="281.03333333333336" y="343.66666666666663"/>
      <point x="281.03333333333336" y="296.20000000000005" type="curve" smooth="yes"/>
      <point x="281.03333333333336" y="236.76666666666665"/>
      <point x="241.16666666666666" y="190.0"/>
      <point x="183.73333333333332" y="190.0" type="curve" smooth="yes"/>
      <point x="122.46666666666667" y="190.0"/>
      <point x="93.86666666666667" y="241.83333333333331"/>
      <point x="93.86666666666667" y="308.0333333333333" type="curve" smooth="yes"/>
      <point x="93.86666666666667" y="419.53333333333336"/>
      <point x="174.13333333333335" y="526.0"/>
      <point x="292.2" y="526.0" type="curve" smooth="yes"/>
      <point x="398.1666666666667" y="526.0"/>
      <point x="464.90000000000003" y="453.96666666666664"/>
      <point x="442.0" y="346.73333333333335" type="curve" smooth="yes"/>
      <point x="413.06666666666666" y="208.0" type="line"/>
      <point x="438.53333333333336" y="208.0" type="line"/>
      <point x="469.6333333333333" y="356.76666666666665" type="line" smooth="yes"/>
      <point x="485.2666666666667" y="429.93333333333334"/>
      <point x="545.6333333333333" y="527.0"/>
      <point x="647.0" y="527.0" type="curve" smooth="yes"/>
      <point x="722.4" y="527.0"/>
      <point x="772.8666666666667" y="476.3666666666666"/>
      <point x="772.8666666666667" y="386.7666666666667" type="curve" smooth="yes"/>
      <point x="772.8666666666667" y="193.96666666666667"/>
      <point x="619.8666666666667" y="135.46666666666667"/>
      <point x="387.90000000000003" y="113.0" type="curve" smooth="yes"/>
      <point x="145.73333333333332" y="89.80000000000001"/>
      <point x="-11.899999999999999" y="48.133333333333326"/>
      <point x="-11.899999999999999" y="-132.46666666666667" type="curve" smooth="yes"/>
      <point x="-11.899999999999999" y="-217.93333333333334"/>
      <point x="39.7" y="-278.0"/>
    </contour>
  </outline>
</glyph>
<glyph name="nya-tamil" format="2">
  <advance width="1069.2"/>
  <unicode hex="0B9E"/>
  <note>
uni0B9E
</note>
  <anchor x="514.5000000000001" y="0.0" name="bottom"/>
  <anchor x="922.5" y="542.0" name="imatra"/>
  <anchor x="463.9" y="-291.1666666666667" name="nukta"/>
  <anchor x="656.0" y="542.0" name="top"/>
  <anchor x="597.8000000000001" y="542.0" name="vedic"/>
  <outline>
    <contour>
      <point x="463.9" y="-291.1666666666667" type="curve" smooth="yes"/>
      <point x="763.8666666666667" y="-291.1666666666667"/>
      <point x="994.1999999999999" y="-96.33333333333334"/>
      <point x="994.1999999999999" y="177.56666666666666" type="curve" smooth="yes"/>
      <point x="994.1999999999999" y="273.2"/>
      <point x="945.4333333333333" y="328.0"/>
      <point x="871.6" y="328.0" type="curve" smooth="yes"/>
      <point x="795.8666666666667" y="328.0"/>
      <point x="745.2666666666667" y="270.76666666666665"/>
      <point x="725.2666666666667" y="176.76666666666665" type="curve" smooth="yes"/>
      <point x="722.2666666666667" y="162.76666666666665" type="line"/>
      <point x="738.0666666666666" y="162.76666666666665" type="line"/>
      <point x="741.0666666666666" y="176.4" type="line" smooth="yes"/>
      <point x="757.0666666666666" y="247.56666666666666"/>
      <point x="798.2333333333333" y="304.0"/>
      <point x="866.6" y="304.0" type="curve" smooth="yes"/>
      <point x="927.5333333333333" y="304.0"/>
      <point x="964.5666666666667" y="258.93333333333334"/>
      <point x="964.5666666666667" y="176.83333333333334" type="curve" smooth="yes"/>
      <point x="964.5666666666667" y="-78.4"/>
      <point x="741.7" y="-265.1666666666667"/>
      <point x="463.0" y="-265.1666666666667" type="curve" smooth="yes"/>
      <point x="222.36666666666667" y="-265.1666666666667"/>
      <point x="66.96666666666667" y="-100.03333333333335"/>
      <point x="66.96666666666667" y="135.53333333333333" type="curve" smooth="yes"/>
      <point x="66.96666666666667" y="329.2666666666667"/>
      <point x="150.83333333333334" y="483.4"/>
      <point x="312.73333333333335" y="631.0666666666667" type="curve"/>
      <point x="294.6333333333333" y="649.9666666666667" type="line"/>
      <point x="128.1" y="498.2"/>
      <point x="37.333333333333336" y="335.73333333333335"/>
      <point x="37.333333333333336" y="132.9" type="curve" smooth="yes"/>
      <point x="37.333333333333336" y="-112.46666666666667"/>
      <point x="204.53333333333333" y="-291.1666666666667"/>
    </contour>
    <component base="e-tamil" xOffset="187.63333333333335"/>
  </outline>
</glyph>
<glyph name="tta-tamil" format="2">
  <advance width="775.0333333333333"/>
  <unicode hex="0B9F"/>
  <note>
uni0B9F
</note>
  <anchor x="380.1333333333333" y="0.0" name="bottom"/>
  <anchor x="380.1333333333333" y="0.0" name="nukta"/>
  <anchor x="481.53333333333336" y="542.0" name="top"/>
  <anchor x="476.3" y="542.0" name="vedic"/>
  <outline>
    <contour>
      <point x="57.43333333333333" y="0.0" type="line"/>
      <point x="695.6666666666666" y="0.0" type="line"/>
      <point x="700.6666666666666" y="23.0" type="line"/>
      <point x="90.8" y="23.0" type="line"/>
      <point x="200.79999999999998" y="542.0" type="line"/>
      <point x="172.79999999999998" y="542.0" type="line"/>
    </contour>
  </outline>
</glyph>
<glyph name="na-tamil" format="2">
  <advance width="691.0666666666667"/>
  <unicode hex="0BA8"/>
  <note>
uni0BA8
</note>
  <anchor x="293.23333333333335" y="0.0" name="bottom"/>
  <anchor x="533.0666666666667" y="542.0" name="imatra"/>
  <anchor x="268.5" y="-163.66666666666666" name="nukta"/>
  <anchor x="429.56666666666666" y="542.0" name="top"/>
  <anchor x="421.40000000000003" y="542.0" name="vedic"/>
  <outline>
    <contour>
      <point x="41.4" y="-195.66666666666666" type="curve"/>
      <point x="49.4" y="-155.26666666666668"/>
      <point x="75.66666666666666" y="-123.76666666666667"/>
      <point x="127.53333333333333" y="-123.76666666666667" type="curve" smooth="yes"/>
      <point x="292.0" y="-123.76666666666667" type="line" smooth="yes"/>
      <point x="482.3666666666667" y="-123.76666666666667"/>
      <point x="620.7" y="-2.6000000000000014"/>
      <point x="620.7" y="190.1" type="curve" smooth="yes"/>
      <point x="620.7" y="275.93333333333334"/>
      <point x="575.6666666666666" y="328.0"/>
      <point x="502.46666666666664" y="328.0" type="curve" smooth="yes"/>
      <point x="439.93333333333334" y="328.0"/>
      <point x="403.7" y="289.3333333333333"/>
      <point x="381.9666666666667" y="256.59999999999997" type="curve"/>
      <point x="438.1333333333333" y="519.0" type="line"/>
      <point x="581.0666666666667" y="519.0" type="line"/>
      <point x="586.0666666666667" y="542.0" type="line"/>
      <point x="173.89999999999998" y="542.0" type="line"/>
      <point x="58.900000000000006" y="0.0" type="line"/>
      <point x="84.26666666666667" y="0.0" type="line"/>
      <point x="194.26666666666668" y="519.0" type="line"/>
      <point x="410.5" y="519.0" type="line"/>
      <point x="299.5" y="0.0" type="line"/>
      <point x="328.1333333333333" y="0.0" type="line"/>
      <point x="364.9666666666667" y="174.96666666666667" type="line" smooth="yes"/>
      <point x="375.96666666666664" y="227.96666666666667"/>
      <point x="422.83333333333337" y="304.0"/>
      <point x="498.2" y="304.0" type="curve" smooth="yes"/>
      <point x="557.4" y="304.0"/>
      <point x="589.4333333333334" y="262.56666666666666"/>
      <point x="589.4333333333334" y="189.36666666666665" type="curve" smooth="yes"/>
      <point x="589.4333333333334" y="10.666666666666664"/>
      <point x="466.2" y="-99.66666666666666"/>
      <point x="293.26666666666665" y="-99.66666666666666" type="curve" smooth="yes"/>
      <point x="103.76666666666667" y="-99.66666666666666" type="line" smooth="yes"/>
      <point x="49.333333333333336" y="-99.66666666666666"/>
      <point x="7.6000000000000005" y="-124.03333333333333"/>
      <point x="7.6000000000000005" y="-160.4" type="curve" smooth="yes"/>
      <point x="7.6000000000000005" y="-182.4"/>
      <point x="20.333333333333336" y="-195.66666666666666"/>
    </contour>
  </outline>
</glyph>
<glyph name="nnna-tamil" format="2">
  <advance width="1084.0666666666666"/>
  <unicode hex="0BA9"/>
  <note>
uni0BA9
</note>
  <anchor x="505.5" y="0.0" name="bottom"/>
  <anchor x="1033.9333333333334" y="542.0" name="imatra"/>
  <anchor x="507.1333333333333" y="0.0" name="nukta"/>
  <anchor x="623.7333333333333" y="542.0" name="top"/>
  <anchor x="619.4333333333333" y="542.0" name="vedic"/>
  <outline>
    <contour>
      <point x="195.03333333333333" y="-4.0" type="curve" smooth="yes"/>
      <point x="277.1666666666667" y="-4.0"/>
      <point x="340.6" y="59.03333333333333"/>
      <point x="340.6" y="158.66666666666666" type="curve" smooth="yes"/>
      <point x="340.6" y="234.5"/>
      <point x="295.79999999999995" y="283.0"/>
      <point x="227.86666666666667" y="283.0" type="curve" smooth="yes"/>
      <point x="145.6" y="283.0"/>
      <point x="92.26666666666668" y="217.53333333333333"/>
      <point x="63.0" y="149.13333333333333" type="curve"/>
      <point x="72.16666666666667" y="122.66666666666666" type="line"/>
      <point x="107.80000000000001" y="197.53333333333333"/>
      <point x="150.23333333333332" y="258.0"/>
      <point x="221.96666666666667" y="258.0" type="curve" smooth="yes"/>
      <point x="282.8" y="258.0"/>
      <point x="311.9666666666667" y="219.23333333333332"/>
      <point x="311.9666666666667" y="156.29999999999998" type="curve" smooth="yes"/>
      <point x="311.9666666666667" y="75.3"/>
      <point x="259.9" y="21.0"/>
      <point x="197.03333333333336" y="21.0" type="curve" smooth="yes"/>
      <point x="121.5" y="21.0"/>
      <point x="71.03333333333335" y="80.66666666666667"/>
      <point x="71.03333333333335" y="190.0" type="curve" smooth="yes"/>
      <point x="71.03333333333335" y="353.23333333333335"/>
      <point x="196.7" y="527.3666666666667"/>
      <point x="390.2" y="527.3666666666667" type="curve" smooth="yes"/>
      <point x="572.6333333333334" y="527.3666666666667"/>
      <point x="679.4" y="408.5333333333333"/>
      <point x="679.4" y="226.16666666666666" type="curve" smooth="yes"/>
      <point x="679.4" y="92.46666666666665"/>
      <point x="605.8333333333333" y="21.0"/>
      <point x="537.7333333333333" y="21.0" type="curve" smooth="yes"/>
      <point x="477.73333333333335" y="21.0"/>
      <point x="450.56666666666666" y="68.50000000000001"/>
      <point x="450.56666666666666" y="152.63333333333335" type="curve" smooth="yes"/>
      <point x="450.56666666666666" y="327.7"/>
      <point x="632.0666666666667" y="519.0"/>
      <point x="829.8" y="519.0" type="curve" smooth="yes"/>
      <point x="1111.0666666666666" y="519.0" type="line"/>
      <point x="1116.0666666666666" y="542.0" type="line"/>
      <point x="832.4333333333333" y="542.0" type="line" smooth="yes"/>
      <point x="608.3666666666667" y="542.0"/>
      <point x="424.3" y="341.53333333333336"/>
      <point x="424.3" y="144.26666666666668" type="curve" smooth="yes"/>
      <point x="424.3" y="50.4"/>
      <point x="462.56666666666666" y="-5.0"/>
      <point x="537.1" y="-5.0" type="curve" smooth="yes"/>
      <point x="626.2666666666667" y="-5.0"/>
      <point x="708.4000000000001" y="78.2"/>
      <point x="708.4000000000001" y="230.53333333333333" type="curve" smooth="yes"/>
      <point x="708.4000000000001" y="424.53333333333336"/>
      <point x="585.8000000000001" y="551.3666666666667"/>
      <point x="391.93333333333334" y="551.3666666666667" type="curve" smooth="yes"/>
      <point x="176.73333333333332" y="551.3666666666667"/>
      <point x="44.400000000000006" y="367.53333333333336"/>
      <point x="44.400000000000006" y="188.36666666666667" type="curve" smooth="yes"/>
      <point x="44.400000000000006" y="66.03333333333335"/>
      <point x="106.03333333333333" y="-4.0"/>
    </contour>
    <contour>
      <point x="830.3666666666667" y="0.0" type="line"/>
      <point x="858.1" y="0.0" type="line"/>
      <point x="970.7333333333333" y="528.0" type="line"/>
      <point x="942.7333333333333" y="528.0" type="line"/>
    </contour>
  </outline>
</glyph>
<glyph name="pa-tamil" format="2">
  <advance width="784.5666666666667"/>
  <unicode hex="0BAA"/>
  <note>
uni0BAA
</note>
  <anchor x="337.26666666666665" y="0.0" name="bottom"/>
  <anchor x="717.2333333333333" y="542.0" name="imatra"/>
  <anchor x="337.26666666666665" y="0.0" name="nukta"/>
  <anchor x="444.8666666666667" y="542.0" name="top"/>
  <anchor x="441.5" y="542.0" name="vedic"/>
  <outline>
    <contour>
      <point x="57.43333333333333" y="0.0" type="line"/>
      <point x="611.7666666666667" y="0.0" type="line"/>
      <point x="726.7666666666667" y="542.0" type="line"/>
      <point x="698.7666666666668" y="542.0" type="line"/>
      <point x="588.1333333333333" y="23.0" type="line"/>
      <point x="90.8" y="23.0" type="line"/>
      <point x="200.79999999999998" y="542.0" type="line"/>
      <point x="172.79999999999998" y="542.0" type="line"/>
    </contour>
  </outline>
</glyph>
<glyph name="ma-tamil" format="2">
  <advance width="797.0"/>
  <unicode hex="0BAE"/>
  <note>
uni0BAE
</note>
  <anchor x="349.16666666666663" y="0.0" name="bottom"/>
  <anchor x="781.3000000000001" y="542.0" name="imatra"/>
  <anchor x="349.79999999999995" y="0.0" name="nukta"/>
  <anchor x="484.7" y="542.0" name="top"/>
  <anchor x="482.6" y="542.0" name="vedic"/>
  <outline>
    <contour>
      <point x="57.43333333333333" y="0.0" type="line"/>
      <point x="530.5333333333334" y="0.0" type="line" smooth="yes"/>
      <point x="663.7666666666667" y="0.0"/>
      <point x="731.4333333333334" y="144.2"/>
      <point x="731.4333333333334" y="314.6333333333333" type="curve" smooth="yes"/>
      <point x="731.4333333333334" y="464.5"/>
      <point x="675.0333333333333" y="551.0"/>
      <point x="578.6" y="551.0" type="curve" smooth="yes"/>
      <point x="490.8" y="551.0"/>
      <point x="452.26666666666665" y="493.7"/>
      <point x="430.73333333333335" y="392.6666666666667" type="curve" smooth="yes"/>
      <point x="352.43333333333334" y="23.0" type="line"/>
      <point x="90.8" y="23.0" type="line"/>
      <point x="200.79999999999998" y="542.0" type="line"/>
      <point x="172.79999999999998" y="542.0" type="line"/>
    </contour>
    <contour>
      <point x="380.8" y="23.0" type="line"/>
      <point x="459.3666666666667" y="392.6666666666667" type="line" smooth="yes"/>
      <point x="478.90000000000003" y="484.43333333333334"/>
      <point x="507.06666666666666" y="526.6333333333333"/>
      <point x="577.8666666666667" y="526.6333333333333" type="curve" smooth="yes"/>
      <point x="656.5" y="526.6333333333333"/>
      <point x="703.1666666666667" y="447.4"/>
      <point x="703.1666666666667" y="310.8" type="curve" smooth="yes"/>
      <point x="703.1666666666667" y="161.36666666666667"/>
      <point x="640.2" y="23.0"/>
      <point x="530.8" y="23.0" type="curve" smooth="yes"/>
    </contour>
  </outline>
</glyph>
<glyph name="ra-tamil" format="2">
  <advance width="607.0"/>
  <unicode hex="0BB0"/>
  <note>
uni0BB0
</note>
  <anchor x="270.1333333333333" y="0.0" name="bottom"/>
  <anchor x="585.7666666666667" y="542.0" name="imatra"/>
  <anchor x="232.5" y="-165.0" name="nukta"/>
  <anchor x="400.03333333333336" y="542.0" name="top"/>
  <anchor x="403.66666666666663" y="542.0" name="vedic"/>
  <outline>
    <contour>
      <point x="133.9" y="-203.23333333333332" type="line"/>
      <point x="346.1666666666667" y="-2.2666666666666666" type="line"/>
      <point x="457.1666666666667" y="519.0" type="line"/>
      <point x="634.0" y="519.0" type="line"/>
      <point x="639.0" y="542.0" type="line"/>
      <point x="172.79999999999998" y="542.0" type="line"/>
      <point x="57.43333333333333" y="0.0" type="line"/>
      <point x="82.8" y="0.0" type="line"/>
      <point x="192.79999999999998" y="519.0" type="line"/>
      <point x="429.1666666666667" y="519.0" type="line"/>
      <point x="320.8" y="9.266666666666667" type="line"/>
      <point x="116.16666666666667" y="-184.33333333333334" type="line"/>
    </contour>
  </outline>
</glyph>
<glyph name="la-tamil" format="2">
  <advance width="892.9333333333333"/>
  <unicode hex="0BB2"/>
  <note>
uni0BB2
</note>
  <anchor x="393.90000000000003" y="0.0" name="bottom"/>
  <anchor x="393.90000000000003" y="0.0" name="nukta"/>
  <anchor x="518.1333333333333" y="542.0" name="top"/>
  <anchor x="506.2333333333333" y="542.0" name="vedic"/>
  <outline>
    <contour>
      <point x="196.03333333333336" y="-4.0" type="curve" smooth="yes"/>
      <point x="278.1666666666667" y="-4.0"/>
      <point x="341.6" y="59.03333333333333"/>
      <point x="341.6" y="158.66666666666666" type="curve" smooth="yes"/>
      <point x="341.6" y="234.5"/>
      <point x="296.8" y="283.0"/>
      <point x="228.86666666666665" y="283.0" type="curve" smooth="yes"/>
      <point x="146.6" y="283.0"/>
      <point x="93.26666666666667" y="217.53333333333333"/>
      <point x="64.0" y="149.13333333333333" type="curve"/>
      <point x="73.16666666666666" y="122.66666666666666" type="line"/>
      <point x="108.8" y="197.53333333333333"/>
      <point x="151.23333333333332" y="258.0"/>
      <point x="222.96666666666667" y="258.0" type="curve" smooth="yes"/>
      <point x="283.8" y="258.0"/>
      <point x="312.96666666666664" y="219.23333333333332"/>
      <point x="312.96666666666664" y="156.29999999999998" type="curve" smooth="yes"/>
      <point x="312.96666666666664" y="75.3"/>
      <point x="260.9" y="21.0"/>
      <point x="198.03333333333333" y="21.0" type="curve" smooth="yes"/>
      <point x="122.5" y="21.0"/>
      <point x="72.03333333333333" y="80.66666666666667"/>
      <point x="72.03333333333333" y="190.0" type="curve" smooth="yes"/>
      <point x="72.03333333333333" y="353.2333333333333"/>
      <point x="185.86666666666667" y="527.0"/>
      <point x="361.8" y="527.0" type="curve" smooth="yes"/>
      <point x="485.7666666666667" y="527.0"/>
      <point x="535.4666666666667" y="439.5"/>
      <point x="509.3" y="319.1333333333333" type="curve" smooth="yes"/>
      <point x="474.3333333333333" y="159.0" type="line" smooth="yes"/>
      <point x="454.06666666666666" y="64.86666666666667"/>
      <point x="489.2666666666667" y="-4.0"/>
      <point x="582.1" y="-4.0" type="curve" smooth="yes"/>
      <point x="727.1" y="-4.0"/>
      <point x="842.7" y="154.96666666666667"/>
      <point x="842.7" y="352.7" type="curve" smooth="yes"/>
      <point x="842.7" y="431.6"/>
      <point x="825.5333333333333" y="488.46666666666664"/>
      <point x="792.1333333333333" y="547.0" type="curve"/>
      <point x="765.0333333333333" y="531.4666666666666" type="line"/>
      <point x="794.1666666666666" y="482.3"/>
      <point x="814.0666666666667" y="418.06666666666666"/>
      <point x="814.0666666666667" y="350.96666666666664" type="curve" smooth="yes"/>
      <point x="814.0666666666667" y="176.8"/>
      <point x="711.1999999999999" y="20.0"/>
      <point x="584.2" y="20.0" type="curve" smooth="yes"/>
      <point x="508.5333333333334" y="20.0"/>
      <point x="485.16666666666663" y="75.7"/>
      <point x="502.70000000000005" y="157.0" type="curve" smooth="yes"/>
      <point x="536.9333333333333" y="316.40000000000003" type="line" smooth="yes"/>
      <point x="566.4666666666667" y="453.3333333333333"/>
      <point x="507.46666666666664" y="551.0"/>
      <point x="363.5333333333333" y="551.0" type="curve" smooth="yes"/>
      <point x="165.9" y="551.0"/>
      <point x="45.400000000000006" y="367.5333333333333"/>
      <point x="45.400000000000006" y="188.36666666666667" type="curve" smooth="yes"/>
      <point x="45.400000000000006" y="66.03333333333335"/>
      <point x="107.03333333333333" y="-4.0"/>
    </contour>
  </outline>
</glyph>
<glyph name="lla-tamil" format="2">
  <advance width="1058.7"/>
  <unicode hex="0BB3"/>
  <note>
uni0BB3
</note>
  <anchor x="479.0" y="0.0" name="bottom"/>
  <anchor x="1038.3" y="542.0" name="imatra"/>
  <anchor x="478.3666666666667" y="0.0" name="nukta"/>
  <anchor x="625.1333333333333" y="542.0" name="top"/>
  <anchor x="610.1333333333334" y="542.0" name="vedic"/>
  <outline>
    <contour>
      <point x="196.4" y="-4.0" type="curve" smooth="yes"/>
      <point x="278.5333333333333" y="-4.0"/>
      <point x="341.9666666666667" y="59.03333333333333"/>
      <point x="341.9666666666667" y="158.66666666666666" type="curve" smooth="yes"/>
      <point x="341.9666666666667" y="234.5"/>
      <point x="297.16666666666663" y="283.0"/>
      <point x="229.23333333333335" y="283.0" type="curve" smooth="yes"/>
      <point x="146.96666666666667" y="283.0"/>
      <point x="93.63333333333334" y="217.53333333333333"/>
      <point x="64.36666666666667" y="149.13333333333333" type="curve"/>
      <point x="73.53333333333333" y="122.66666666666666" type="line"/>
      <point x="109.16666666666666" y="197.53333333333333"/>
      <point x="151.6" y="258.0"/>
      <point x="223.33333333333334" y="258.0" type="curve" smooth="yes"/>
      <point x="284.1666666666667" y="258.0"/>
      <point x="313.33333333333337" y="219.23333333333332"/>
      <point x="313.33333333333337" y="156.29999999999998" type="curve" smooth="yes"/>
      <point x="313.33333333333337" y="75.3"/>
      <point x="261.26666666666665" y="21.0"/>
      <point x="198.4" y="21.0" type="curve" smooth="yes"/>
      <point x="122.86666666666666" y="21.0"/>
      <point x="72.4" y="80.66666666666667"/>
      <point x="72.4" y="190.0" type="curve" smooth="yes"/>
      <point x="72.4" y="351.33333333333337"/>
      <point x="185.66666666666669" y="527.0"/>
      <point x="362.1333333333334" y="527.0" type="curve" smooth="yes"/>
      <point x="484.6" y="527.0"/>
      <point x="591.6666666666666" y="446.1666666666667"/>
      <point x="555.7" y="275.56666666666666" type="curve"/>
      <point x="578.7" y="276.56666666666666" type="line"/>
      <point x="617.6666666666667" y="462.6"/>
      <point x="506.06666666666666" y="551.0"/>
      <point x="363.5" y="551.0" type="curve" smooth="yes"/>
      <point x="165.33333333333331" y="551.0"/>
      <point x="45.766666666666666" y="365.6333333333333"/>
      <point x="45.766666666666666" y="188.36666666666667" type="curve" smooth="yes"/>
      <point x="45.766666666666666" y="66.03333333333335"/>
      <point x="107.4" y="-4.0"/>
    </contour>
    <contour>
      <point x="496.7666666666667" y="0.0" type="line"/>
      <point x="524.7666666666667" y="0.0" type="line"/>
      <point x="635.1333333333333" y="519.0" type="line"/>
      <point x="881.6" y="519.0" type="line"/>
      <point x="770.6" y="0.0" type="line"/>
      <point x="799.6" y="0.0" type="line"/>
      <point x="909.6" y="519.0" type="line"/>
      <point x="1085.7" y="519.0" type="line"/>
      <point x="1090.7" y="542.0" type="line"/>
      <point x="612.1333333333334" y="542.0" type="line"/>
      <point x="577.5" y="381.09999999999997" type="line"/>
      <point x="572.1333333333333" y="355.09999999999997" type="line"/>
    </contour>
  </outline>
</glyph>
<glyph name="va-tamil" format="2">
  <advance width="1011.4333333333334"/>
  <unicode hex="0BB5"/>
  <note>
uni0BB5
</note>
  <anchor x="448.6666666666667" y="0.0" name="bottom"/>
  <anchor x="932.6333333333334" y="542.0" name="imatra"/>
  <anchor x="448.6666666666667" y="0.0" name="nukta"/>
  <anchor x="550.7666666666667" y="542.0" name="top"/>
  <anchor x="546.0333333333334" y="542.0" name="vedic"/>
  <outline>
    <contour>
      <point x="194.76666666666665" y="-4.0" type="curve" smooth="yes"/>
      <point x="276.90000000000003" y="-4.0"/>
      <point x="340.3333333333333" y="59.03333333333333"/>
      <point x="340.3333333333333" y="158.66666666666666" type="curve" smooth="yes"/>
      <point x="340.3333333333333" y="234.5"/>
      <point x="295.5333333333333" y="283.0"/>
      <point x="227.6" y="283.0" type="curve" smooth="yes"/>
      <point x="145.33333333333334" y="283.0"/>
      <point x="92.0" y="217.53333333333333"/>
      <point x="62.733333333333334" y="149.13333333333333" type="curve"/>
      <point x="71.9" y="122.66666666666666" type="line"/>
      <point x="107.53333333333333" y="197.53333333333333"/>
      <point x="149.96666666666667" y="258.0"/>
      <point x="221.70000000000002" y="258.0" type="curve" smooth="yes"/>
      <point x="282.53333333333336" y="258.0"/>
      <point x="311.7" y="219.23333333333332"/>
      <point x="311.7" y="156.29999999999998" type="curve" smooth="yes"/>
      <point x="311.7" y="75.3"/>
      <point x="259.6333333333333" y="21.0"/>
      <point x="196.76666666666668" y="21.0" type="curve" smooth="yes"/>
      <point x="121.23333333333333" y="21.0"/>
      <point x="70.76666666666668" y="80.66666666666667"/>
      <point x="70.76666666666668" y="190.0" type="curve" smooth="yes"/>
      <point x="70.76666666666668" y="353.23333333333335"/>
      <point x="205.53333333333333" y="527.3666666666667"/>
      <point x="385.8333333333333" y="527.3666666666667" type="curve" smooth="yes"/>
      <point x="508.1" y="527.3666666666667"/>
      <point x="605.3666666666667" y="457.03333333333336"/>
      <point x="605.3666666666667" y="314.93333333333334" type="curve" smooth="yes"/>
      <point x="605.3666666666667" y="191.79999999999998"/>
      <point x="537.1666666666666" y="95.53333333333333"/>
      <point x="460.5" y="19.0" type="curve"/>
      <point x="468.7" y="0.0" type="line"/>
      <point x="838.6333333333333" y="0.0" type="line"/>
      <point x="954.0" y="542.0" type="line"/>
      <point x="925.6333333333333" y="542.0" type="line"/>
      <point x="815.0" y="23.0" type="line"/>
      <point x="497.0333333333333" y="23.0" type="line"/>
      <point x="566.5333333333333" y="93.2"/>
      <point x="634.1" y="187.43333333333334"/>
      <point x="634.1" y="317.2" type="curve" smooth="yes"/>
      <point x="634.1" y="472.2"/>
      <point x="528.1666666666666" y="551.3666666666667"/>
      <point x="387.56666666666666" y="551.3666666666667" type="curve" smooth="yes"/>
      <point x="185.56666666666666" y="551.3666666666667"/>
      <point x="44.13333333333333" y="367.5333333333333"/>
      <point x="44.13333333333333" y="188.36666666666667" type="curve" smooth="yes"/>
      <point x="44.13333333333333" y="66.03333333333335"/>
      <point x="105.76666666666667" y="-4.0"/>
    </contour>
  </outline>
</glyph>
<glyph name="sa-tamil" format="2">
  <advance width="1108.3333333333333"/>
  <unicode hex="0BB8"/>
  <note>
uni0BB8
</note>
  <anchor x="515.4" y="0.0" name="bottom"/>
  <anchor x="515.4" y="0.0" name="nukta"/>
  <anchor x="622.4" y="542.0" name="top"/>
  <anchor x="612.3333333333333" y="542.0" name="vedic"/>
  <outline>
    <contour>
      <point x="448.2" y="0.0" type="line"/>
      <point x="475.5666666666667" y="0.0" type="line"/>
      <point x="565.1333333333333" y="419.2" type="line" smooth="yes"/>
      <point x="579.6666666666667" y="487.23333333333335"/>
      <point x="614.5666666666667" y="527.0"/>
      <point x="670.5" y="527.0" type="curve" smooth="yes"/>
      <point x="731.1666666666666" y="527.0"/>
      <point x="758.4" y="478.76666666666665"/>
      <point x="744.4" y="414.0333333333333" type="curve" smooth="yes"/>
      <point x="689.7333333333333" y="158.63333333333333" type="line" smooth="yes"/>
      <point x="669.8333333333333" y="64.5"/>
      <point x="704.6666666666667" y="-4.0"/>
      <point x="797.5" y="-4.0" type="curve" smooth="yes"/>
      <point x="942.5" y="-4.0"/>
      <point x="1058.1000000000001" y="154.96666666666667"/>
      <point x="1058.1000000000001" y="352.7" type="curve" smooth="yes"/>
      <point x="1058.1000000000001" y="431.6"/>
      <point x="1040.9333333333334" y="488.46666666666664"/>
      <point x="1007.5333333333333" y="547.0" type="curve"/>
      <point x="980.4333333333334" y="531.4666666666666" type="line"/>
      <point x="1009.5666666666666" y="482.3"/>
      <point x="1029.4666666666667" y="418.06666666666666"/>
      <point x="1029.4666666666667" y="350.96666666666664" type="curve" smooth="yes"/>
      <point x="1029.4666666666667" y="176.8"/>
      <point x="926.5999999999999" y="20.0"/>
      <point x="799.6" y="20.0" type="curve" smooth="yes"/>
      <point x="723.9333333333334" y="20.0"/>
      <point x="700.5666666666667" y="75.69999999999999"/>
      <point x="718.1" y="157.0" type="curve" smooth="yes"/>
      <point x="771.7666666666667" y="409.76666666666665" type="line" smooth="yes"/>
      <point x="789.0333333333333" y="490.46666666666664"/>
      <point x="749.9" y="551.0"/>
      <point x="672.1333333333333" y="551.0" type="curve" smooth="yes"/>
      <point x="601.4" y="551.0"/>
      <point x="556.1333333333333" y="495.6"/>
      <point x="541.2333333333333" y="425.2" type="curve" smooth="yes"/>
      <point x="531.1333333333334" y="376.8" type="line"/>
      <point x="528.0333333333333" y="376.8" type="line"/>
    </contour>
    <contour>
      <point x="195.3" y="-4.0" type="curve" smooth="yes"/>
      <point x="277.43333333333334" y="-4.0"/>
      <point x="341.59999999999997" y="59.03333333333333"/>
      <point x="341.59999999999997" y="158.66666666666666" type="curve" smooth="yes"/>
      <point x="341.59999999999997" y="234.5"/>
      <point x="296.8" y="283.0"/>
      <point x="228.86666666666667" y="283.0" type="curve" smooth="yes"/>
      <point x="146.6" y="283.0"/>
      <point x="93.26666666666665" y="217.53333333333333"/>
      <point x="64.0" y="149.13333333333333" type="curve"/>
      <point x="73.16666666666667" y="122.66666666666666" type="line"/>
      <point x="108.8" y="197.53333333333333"/>
      <point x="151.23333333333335" y="258.0"/>
      <point x="222.96666666666667" y="258.0" type="curve" smooth="yes"/>
      <point x="283.8" y="258.0"/>
      <point x="312.96666666666664" y="219.23333333333332"/>
      <point x="312.96666666666664" y="156.29999999999998" type="curve" smooth="yes"/>
      <point x="312.96666666666664" y="75.3"/>
      <point x="260.1666666666667" y="21.0"/>
      <point x="197.3" y="21.0" type="curve" smooth="yes"/>
      <point x="121.76666666666667" y="21.0"/>
      <point x="72.03333333333333" y="80.66666666666667"/>
      <point x="72.03333333333333" y="190.0" type="curve" smooth="yes"/>
      <point x="72.03333333333333" y="351.3333333333333"/>
      <point x="183.96666666666667" y="527.0"/>
      <point x="361.1666666666667" y="527.0" type="curve" smooth="yes"/>
      <point x="472.5333333333333" y="527.0"/>
      <point x="544.3" y="452.3333333333333"/>
      <point x="516.2333333333333" y="320.59999999999997" type="curve"/>
      <point x="541.5" y="318.96666666666664" type="line"/>
      <point x="573.1" y="469.93333333333334"/>
      <point x="490.6333333333334" y="551.0"/>
      <point x="362.9" y="551.0" type="curve" smooth="yes"/>
      <point x="164.0" y="551.0"/>
      <point x="45.4" y="365.6333333333333"/>
      <point x="45.4" y="188.36666666666667" type="curve" smooth="yes"/>
      <point x="45.4" y="66.03333333333335"/>
      <point x="106.3" y="-4.0"/>
    </contour>
  </outline>
</glyph>
<glyph name="aaMatra-tamil" format="2">
  <advance width="626.7"/>
  <unicode hex="0BBE"/>
  <note>
uni0BBE
</note>
  <anchor x="283.3" y="0.0" name="bottom"/>
  <anchor x="282.6666666666667" y="0.0" name="nukta"/>
  <anchor x="391.6666666666667" y="542.0" name="top"/>
  <anchor x="391.6666666666667" y="542.0" name="vedic"/>
  <outline>
    <contour>
      <point x="57.43333333333333" y="0.0" type="line"/>
      <point x="82.8" y="0.0" type="line"/>
      <point x="192.79999999999998" y="519.0" type="line"/>
      <point x="445.0666666666667" y="519.0" type="line"/>
      <point x="334.43333333333334" y="0.0" type="line"/>
      <point x="363.06666666666666" y="0.0" type="line"/>
      <point x="473.43333333333334" y="519.0" type="line"/>
      <point x="653.6999999999999" y="519.0" type="line"/>
      <point x="658.6999999999999" y="542.0" type="line"/>
      <point x="172.79999999999998" y="542.0" type="line"/>
    </contour>
  </outline>
</glyph>
<glyph name="iMatra-tamil" format="2">
  <advance width="206.63333333333333"/>
  <unicode hex="0BBF"/>
  <note>
uni0BBF
</note>
  <anchor x="-13.433333333333334" y="793.0333333333333" name="top"/>
  <outline>
    <contour>
      <point x="24.166666666666664" y="0.0" type="line"/>
      <point x="52.06666666666666" y="0.0" type="line"/>
      <point x="167.63333333333333" y="542.7333333333333" type="line" smooth="yes"/>
      <point x="199.96666666666667" y="693.9666666666667"/>
      <point x="124.5" y="793.0333333333333"/>
      <point x="-13.433333333333334" y="793.0333333333333" type="curve" smooth="yes"/>
      <point x="-128.73333333333335" y="793.0333333333333"/>
      <point x="-201.23333333333335" y="717.0333333333333"/>
      <point x="-201.23333333333335" y="630.8" type="curve" smooth="yes"/>
      <point x="-201.23333333333335" y="564.1666666666666"/>
      <point x="-150.86666666666667" y="519.0"/>
      <point x="-95.96666666666667" y="519.0" type="curve" smooth="yes"/>
      <point x="-88.7" y="519.0" type="line"/>
      <point x="-84.33333333333333" y="542.0" type="line"/>
      <point x="-88.33333333333333" y="542.0" type="line" smooth="yes"/>
      <point x="-136.86666666666667" y="542.0"/>
      <point x="-174.23333333333332" y="577.9"/>
      <point x="-174.23333333333332" y="628.9" type="curve" smooth="yes"/>
      <point x="-174.23333333333332" y="700.4666666666666"/>
      <point x="-112.5" y="762.6666666666666"/>
      <point x="-16.333333333333336" y="762.6666666666666" type="curve" smooth="yes"/>
      <point x="108.5" y="762.6666666666666"/>
      <point x="167.06666666666666" y="673.2333333333333"/>
      <point x="138.0" y="536.1666666666666" type="curve" smooth="yes"/>
    </contour>
  </outline>
</glyph>
<glyph name="iiMatra-tamil" format="2">
  <unicode hex="0BC0"/>
  <note>
uni0BC0
</note>
  <anchor x="56.0" y="542.0" name="_imatra"/>
  <anchor x="118.96666666666667" y="872.0" name="top"/>
  <outline>
    <contour>
      <point x="39.56666666666667" y="521.0" type="curve" smooth="yes"/>
      <point x="52.0" y="521.0" type="line"/>
      <point x="56.0" y="542.0" type="line"/>
      <point x="45.300000000000004" y="542.0" type="line" smooth="yes"/>
      <point x="-25.833333333333336" y="542.0"/>
      <point x="-60.6" y="588.5333333333333"/>
      <point x="-60.6" y="667.2666666666667" type="curve" smooth="yes"/>
      <point x="-60.6" y="762.8666666666667"/>
      <point x="8.6" y="850.0"/>
      <point x="117.60000000000001" y="850.0" type="curve" smooth="yes"/>
      <point x="183.1" y="850.0"/>
      <point x="236.46666666666667" y="814.4333333333333"/>
      <point x="236.46666666666667" y="746.9333333333333" type="curve" smooth="yes"/>
      <point x="236.46666666666667" y="690.6666666666666"/>
      <point x="200.13333333333333" y="645.0"/>
      <point x="142.43333333333334" y="645.0" type="curve" smooth="yes"/>
      <point x="49.166666666666664" y="645.0"/>
      <point x="48.06666666666666" y="760.9666666666667"/>
      <point x="111.83333333333333" y="855.0" type="curve"/>
      <point x="91.46666666666667" y="859.0" type="line"/>
      <point x="13.700000000000001" y="752.4"/>
      <point x="25.166666666666668" y="622.0"/>
      <point x="141.16666666666666" y="622.0" type="curve" smooth="yes"/>
      <point x="213.4" y="622.0"/>
      <point x="264.8333333333333" y="674.0333333333334"/>
      <point x="264.8333333333333" y="748.7333333333333" type="curve" smooth="yes"/>
      <point x="264.8333333333333" y="827.4333333333333"/>
      <point x="202.1" y="872.0"/>
      <point x="118.96666666666667" y="872.0" type="curve" smooth="yes"/>
      <point x="-5.666666666666667" y="872.0"/>
      <point x="-90.23333333333333" y="775.3333333333333"/>
      <point x="-90.23333333333333" y="666.2666666666667" type="curve" smooth="yes"/>
      <point x="-90.23333333333333" y="579.2666666666667"/>
      <point x="-42.56666666666666" y="521.0"/>
    </contour>
  </outline>
</glyph>
<glyph name="uuMatra-tamil" format="2">
  <advance width="757.9333333333333"/>
  <unicode hex="0BC2"/>
  <note>
uni0BC2
</note>
  <anchor x="488.23333333333335" y="780.0" name="top"/>
  <outline>
    <contour>
      <point x="327.3666666666667" y="1.0" type="curve" smooth="yes"/>
      <point x="573.2" y="1.0"/>
      <point x="746.1666666666666" y="215.86666666666667"/>
      <point x="746.1666666666666" y="486.4" type="curve" smooth="yes"/>
      <point x="746.1666666666666" y="682.5333333333333"/>
      <point x="639.3" y="780.0"/>
      <point x="488.23333333333335" y="780.0" type="curve" smooth="yes"/>
      <point x="318.1" y="780.0"/>
      <point x="235.46666666666667" y="662.5666666666667"/>
      <point x="209.3" y="537.8" type="curve" smooth="yes"/>
      <point x="182.53333333333333" y="409.8666666666667" type="line" smooth="yes"/>
      <point x="160.1" y="303.4"/>
      <point x="202.13333333333333" y="229.0"/>
      <point x="299.3333333333333" y="229.0" type="curve" smooth="yes"/>
      <point x="375.03333333333336" y="229.0"/>
      <point x="437.2" y="273.73333333333335"/>
      <point x="458.46666666666664" y="374.9666666666667" type="curve" smooth="yes"/>
      <point x="494.1333333333333" y="542.0" type="line"/>
      <point x="-160.5" y="542.0" type="line"/>
      <point x="-144.23333333333332" y="519.0" type="line"/>
      <point x="460.7666666666667" y="519.0" type="line"/>
      <point x="429.83333333333337" y="375.79999999999995" type="line" smooth="yes"/>
      <point x="412.56666666666666" y="296.3666666666667"/>
      <point x="363.5" y="255.00000000000003"/>
      <point x="299.59999999999997" y="255.00000000000003" type="curve" smooth="yes"/>
      <point x="220.13333333333333" y="255.00000000000003"/>
      <point x="188.10000000000002" y="316.40000000000003"/>
      <point x="207.53333333333333" y="408.1333333333333" type="curve" smooth="yes"/>
      <point x="234.66666666666666" y="537.8" type="line" smooth="yes"/>
      <point x="258.2" y="649.3000000000001"/>
      <point x="336.20000000000005" y="756.0"/>
      <point x="485.23333333333335" y="756.0" type="curve" smooth="yes"/>
      <point x="624.3000000000001" y="756.0"/>
      <point x="717.4333333333333" y="667.4333333333333"/>
      <point x="717.4333333333333" y="484.76666666666665" type="curve" smooth="yes"/>
      <point x="717.4333333333333" y="235.39999999999998"/>
      <point x="552.4666666666667" y="25.0"/>
      <point x="327.6333333333333" y="25.0" type="curve" smooth="yes"/>
      <point x="210.60000000000002" y="25.0"/>
      <point x="137.6" y="65.16666666666667"/>
      <point x="79.3" y="141.63333333333335" type="curve"/>
      <point x="55.66666666666667" y="123.26666666666667" type="line"/>
      <point x="117.96666666666667" y="44.8"/>
      <point x="195.53333333333333" y="1.0"/>
    </contour>
  </outline>
</glyph>
<glyph name="eMatra-tamil" format="2">
  <advance width="719.4666666666666"/>
  <unicode hex="0BC6"/>
  <note>
uni0BC6
</note>
  <outline>
    <contour>
      <point x="221.46666666666667" y="-4.0" type="curve" smooth="yes"/>
      <point x="309.53333333333336" y="-4.0"/>
      <point x="376.8" y="61.03333333333333"/>
      <point x="376.8" y="159.39999999999998" type="curve" smooth="yes"/>
      <point x="376.8" y="235.23333333333335"/>
      <point x="328.5333333333333" y="290.0"/>
      <point x="253.96666666666667" y="290.0" type="curve" smooth="yes"/>
      <point x="170.23333333333335" y="290.0"/>
      <point x="115.7" y="221.6"/>
      <point x="83.5" y="146.96666666666667" type="curve"/>
      <point x="93.39999999999999" y="120.5" type="line"/>
      <point x="131.96666666666667" y="201.6"/>
      <point x="175.96666666666667" y="265.0"/>
      <point x="247.7" y="265.0" type="curve" smooth="yes"/>
      <point x="314.53333333333336" y="265.0"/>
      <point x="348.1666666666667" y="219.96666666666667"/>
      <point x="348.1666666666667" y="157.03333333333333" type="curve" smooth="yes"/>
      <point x="348.1666666666667" y="76.03333333333333"/>
      <point x="292.26666666666665" y="21.0"/>
      <point x="223.46666666666667" y="21.0" type="curve" smooth="yes"/>
      <point x="144.56666666666666" y="21.0"/>
      <point x="86.83333333333333" y="94.03333333333333"/>
      <point x="86.83333333333333" y="235.66666666666666" type="curve" smooth="yes"/>
      <point x="86.83333333333333" y="478.73333333333335"/>
      <point x="229.63333333333333" y="770.0"/>
      <point x="463.20000000000005" y="770.0" type="curve" smooth="yes"/>
      <point x="608.0666666666666" y="770.0"/>
      <point x="680.4666666666666" y="669.5333333333334"/>
      <point x="645.1333333333333" y="504.40000000000003" type="curve" smooth="yes"/>
      <point x="537.0" y="0.0" type="line"/>
      <point x="564.2666666666668" y="0.0" type="line"/>
      <point x="674.7666666666667" y="516.3333333333333" type="line" smooth="yes"/>
      <point x="711.0" y="685.8"/>
      <point x="624.2333333333333" y="800.0"/>
      <point x="466.56666666666666" y="800.0" type="curve" smooth="yes"/>
      <point x="212.63333333333333" y="800.0"/>
      <point x="60.2" y="500.83333333333337"/>
      <point x="60.2" y="233.3" type="curve" smooth="yes"/>
      <point x="60.2" y="78.66666666666666"/>
      <point x="129.1" y="-4.0"/>
    </contour>
  </outline>
</glyph>
<glyph name="eeMatra-tamil" format="2">
  <advance width="528.4666666666667"/>
  <unicode hex="0BC7"/>
  <note>
uni0BC7
</note>
  <outline>
    <contour>
      <point x="286.73333333333335" y="-4.0" type="curve" smooth="yes"/>
      <point x="378.76666666666665" y="-4.0"/>
      <point x="447.76666666666665" y="59.300000000000004"/>
      <point x="447.76666666666665" y="160.76666666666665" type="curve" smooth="yes"/>
      <point x="447.76666666666665" y="238.2"/>
      <point x="399.1666666666667" y="283.0"/>
      <point x="335.1333333333333" y="283.0" type="curve" smooth="yes"/>
      <point x="238.4" y="283.0"/>
      <point x="178.9" y="195.63333333333333"/>
      <point x="147.9" y="79.0" type="curve"/>
      <point x="164.16666666666666" y="57.8" type="line"/>
      <point x="198.0" y="176.36666666666667"/>
      <point x="249.4" y="258.0"/>
      <point x="333.0333333333333" y="258.0" type="curve" smooth="yes"/>
      <point x="385.53333333333336" y="258.0"/>
      <point x="419.76666666666665" y="220.4"/>
      <point x="419.76666666666665" y="158.4" type="curve" smooth="yes"/>
      <point x="419.76666666666665" y="74.93333333333332"/>
      <point x="362.23333333333335" y="21.0"/>
      <point x="289.3666666666667" y="21.0" type="curve" smooth="yes"/>
      <point x="167.96666666666667" y="21.0"/>
      <point x="99.66666666666666" y="163.2"/>
      <point x="99.66666666666666" y="304.20000000000005" type="curve" smooth="yes"/>
      <point x="99.66666666666666" y="509.46666666666664"/>
      <point x="247.26666666666668" y="767.6666666666666"/>
      <point x="422.70000000000005" y="767.6666666666666" type="curve" smooth="yes"/>
      <point x="489.90000000000003" y="767.6666666666666"/>
      <point x="530.9666666666667" y="734.0666666666667"/>
      <point x="530.9666666666667" y="662.5333333333333" type="curve" smooth="yes"/>
      <point x="530.9666666666667" y="586.5666666666666"/>
      <point x="480.9" y="531.0333333333334"/>
      <point x="417.2" y="531.0333333333334" type="curve" smooth="yes"/>
      <point x="334.3333333333333" y="531.0333333333334"/>
      <point x="313.43333333333334" y="629.9333333333333"/>
      <point x="327.8" y="757.7666666666667" type="curve"/>
      <point x="305.43333333333334" y="743.6666666666666" type="line"/>
      <point x="287.3333333333333" y="610.5333333333333"/>
      <point x="318.06666666666666" y="506.03333333333336"/>
      <point x="416.73333333333335" y="506.03333333333336" type="curve" smooth="yes"/>
      <point x="494.0" y="506.03333333333336"/>
      <point x="557.9666666666666" y="570.4666666666667"/>
      <point x="557.9666666666666" y="663.9000000000001" type="curve" smooth="yes"/>
      <point x="557.9666666666666" y="746.7"/>
      <point x="507.90000000000003" y="793.0333333333333"/>
      <point x="426.7" y="793.0333333333333" type="curve" smooth="yes"/>
      <point x="230.0" y="793.0333333333333"/>
      <point x="72.4" y="525.5666666666667"/>
      <point x="72.4" y="301.93333333333334" type="curve" smooth="yes"/>
      <point x="72.4" y="151.1"/>
      <point x="149.96666666666667" y="-4.0"/>
    </contour>
  </outline>
</glyph>
<glyph name="aiMatra-tamil" format="2">
  <advance width="1081.9333333333334"/>
  <unicode hex="0BC8"/>
  <note>
uni0BC8
</note>
  <outline>
    <contour>
      <point x="842.4333333333333" y="-7.733333333333333" type="line"/>
      <point x="959.1333333333334" y="71.93333333333334"/>
      <point x="1023.3666666666667" y="181.76666666666665"/>
      <point x="1023.3666666666667" y="313.4666666666667" type="curve" smooth="yes"/>
      <point x="1023.3666666666667" y="455.8333333333333"/>
      <point x="934.4" y="551.0"/>
      <point x="786.1666666666667" y="551.0" type="curve" smooth="yes"/>
      <point x="583.5333333333333" y="551.0"/>
      <point x="423.6666666666667" y="335.8333333333333"/>
      <point x="423.6666666666667" y="146.16666666666666" type="curve" smooth="yes"/>
      <point x="423.6666666666667" y="52.300000000000004"/>
      <point x="463.2" y="-5.0"/>
      <point x="535.8333333333334" y="-5.0" type="curve" smooth="yes"/>
      <point x="625.0" y="-5.0"/>
      <point x="712.8333333333334" y="85.16666666666667"/>
      <point x="712.8333333333334" y="237.5" type="curve" smooth="yes"/>
      <point x="712.8333333333334" y="430.8666666666667"/>
      <point x="599.1" y="551.0"/>
      <point x="408.4" y="551.0" type="curve" smooth="yes"/>
      <point x="190.66666666666669" y="551.0"/>
      <point x="43.766666666666666" y="361.2"/>
      <point x="43.766666666666666" y="189.0" type="curve" smooth="yes"/>
      <point x="43.766666666666666" y="63.49999999999999"/>
      <point x="101.6" y="-4.0"/>
      <point x="189.96666666666667" y="-4.0" type="curve" smooth="yes"/>
      <point x="272.1" y="-4.0"/>
      <point x="339.9666666666667" y="59.03333333333333"/>
      <point x="339.9666666666667" y="158.66666666666666" type="curve" smooth="yes"/>
      <point x="339.9666666666667" y="234.5"/>
      <point x="295.16666666666663" y="283.0"/>
      <point x="227.23333333333332" y="283.0" type="curve" smooth="yes"/>
      <point x="144.96666666666667" y="283.0"/>
      <point x="91.63333333333334" y="217.53333333333333"/>
      <point x="62.36666666666667" y="149.13333333333333" type="curve"/>
      <point x="71.53333333333333" y="122.66666666666666" type="line"/>
      <point x="107.16666666666667" y="197.53333333333333"/>
      <point x="149.6" y="258.0"/>
      <point x="221.33333333333334" y="258.0" type="curve" smooth="yes"/>
      <point x="282.1666666666667" y="258.0"/>
      <point x="311.3333333333333" y="219.23333333333332"/>
      <point x="311.3333333333333" y="156.29999999999998" type="curve" smooth="yes"/>
      <point x="311.3333333333333" y="75.3"/>
      <point x="254.83333333333331" y="21.0"/>
      <point x="191.96666666666667" y="21.0" type="curve" smooth="yes"/>
      <point x="117.06666666666666" y="21.0"/>
      <point x="70.4" y="78.13333333333334"/>
      <point x="70.4" y="190.63333333333333" type="curve" smooth="yes"/>
      <point x="70.4" y="346.90000000000003"/>
      <point x="210.0" y="527.0"/>
      <point x="406.6666666666667" y="527.0" type="curve" smooth="yes"/>
      <point x="585.3000000000001" y="527.0"/>
      <point x="683.8333333333334" y="415.5"/>
      <point x="683.8333333333334" y="233.13333333333333" type="curve" smooth="yes"/>
      <point x="683.8333333333334" y="99.43333333333334"/>
      <point x="605.2" y="21.0"/>
      <point x="536.4666666666667" y="21.0" type="curve" smooth="yes"/>
      <point x="478.3666666666666" y="21.0"/>
      <point x="449.93333333333334" y="70.39999999999999"/>
      <point x="449.93333333333334" y="154.53333333333333" type="curve" smooth="yes"/>
      <point x="449.93333333333334" y="323.26666666666665"/>
      <point x="602.1666666666666" y="527.0"/>
      <point x="784.8000000000001" y="527.0" type="curve" smooth="yes"/>
      <point x="914.1333333333333" y="527.0"/>
      <point x="994.0" y="441.6666666666667"/>
      <point x="994.0" y="311.3" type="curve" smooth="yes"/>
      <point x="994.0" y="194.03333333333333"/>
      <point x="929.7" y="86.13333333333333"/>
      <point x="826.0666666666667" y="14.266666666666667" type="curve"/>
    </contour>
  </outline>
</glyph>
<glyph name="halant-tamil" format="2">
  <unicode hex="0BCD"/>
  <note>
uni0BCD
</note>
  <anchor x="56.0" y="542.0" name="_top"/>
  <outline>
    <contour>
      <point x="85.0" y="635.3666666666667" type="curve" smooth="yes"/>
      <point x="105.63333333333334" y="635.3666666666667"/>
      <point x="121.9" y="651.6333333333333"/>
      <point x="121.9" y="671.2666666666667" type="curve" smooth="yes"/>
      <point x="121.9" y="690.5333333333333"/>
      <point x="105.63333333333334" y="707.5333333333334"/>
      <point x="85.0" y="707.5333333333334" type="curve" smooth="yes"/>
      <point x="64.36666666666666" y="707.5333333333334"/>
      <point x="48.1" y="690.5333333333333"/>
      <point x="48.1" y="671.2666666666667" type="curve" smooth="yes"/>
      <point x="48.1" y="651.6333333333333"/>
      <point x="64.36666666666666" y="635.3666666666667"/>
    </contour>
  </outline>
</glyph>
<glyph name="om-tamil" format="2">
  <advance width="859.7"/>
  <unicode hex="0BD0"/>
  <note>
uni0BD0
</note>
  <outline>
    <contour>
      <point x="160.76666666666665" y="-336.0" type="curve" smooth="yes"/>
      <point x="339.9" y="-336.0"/>
      <point x="413.1666666666667" y="-124.3"/>
      <point x="576.0999999999999" y="-124.3" type="curve" smooth="yes"/>
      <point x="598.4" y="-124.3" type="line"/>
      <point x="603.4" y="-100.3" type="line"/>
      <point x="570.8333333333334" y="-100.3" type="line" smooth="yes"/>
      <point x="390.5" y="-100.3"/>
      <point x="388.43333333333334" y="100.4"/>
      <point x="519.1333333333333" y="229.03333333333333" type="curve"/>
      <point x="523.4" y="225.76666666666665" type="line"/>
      <point x="458.4666666666667" y="119.36666666666667"/>
      <point x="471.43333333333334" y="-5.0"/>
      <point x="587.3333333333334" y="-5.0" type="curve" smooth="yes"/>
      <point x="705.1" y="-5.0"/>
      <point x="788.0333333333333" y="106.36666666666667"/>
      <point x="788.0333333333333" y="249.06666666666666" type="curve" smooth="yes"/>
      <point x="788.0333333333333" y="442.73333333333335"/>
      <point x="645.8333333333334" y="551.0"/>
      <point x="445.1333333333333" y="551.0" type="curve" smooth="yes"/>
      <point x="207.9" y="551.0"/>
      <point x="44.13333333333333" y="367.23333333333335"/>
      <point x="44.13333333333333" y="196.3" type="curve" smooth="yes"/>
      <point x="44.13333333333333" y="68.83333333333334"/>
      <point x="102.6" y="1.0666666666666669"/>
      <point x="190.96666666666667" y="1.0666666666666669" type="curve" smooth="yes"/>
      <point x="271.8333333333333" y="1.0666666666666669"/>
      <point x="344.1333333333333" y="62.83333333333333"/>
      <point x="344.1333333333333" y="164.36666666666665" type="curve" smooth="yes"/>
      <point x="344.1333333333333" y="241.46666666666667"/>
      <point x="299.3333333333333" y="288.06666666666666"/>
      <point x="229.5" y="288.06666666666666" type="curve" smooth="yes"/>
      <point x="147.23333333333332" y="288.06666666666666"/>
      <point x="89.46666666666667" y="223.23333333333335"/>
      <point x="60.2" y="154.83333333333331" type="curve"/>
      <point x="69.36666666666667" y="128.36666666666667" type="line"/>
      <point x="105.0" y="203.23333333333335"/>
      <point x="151.86666666666667" y="263.06666666666666"/>
      <point x="223.6" y="263.06666666666666" type="curve" smooth="yes"/>
      <point x="286.33333333333337" y="263.06666666666666"/>
      <point x="315.5" y="226.2"/>
      <point x="315.5" y="162.0" type="curve" smooth="yes"/>
      <point x="315.5" y="79.10000000000001"/>
      <point x="255.2" y="26.066666666666666"/>
      <point x="192.96666666666667" y="26.066666666666666" type="curve" smooth="yes"/>
      <point x="118.06666666666666" y="26.066666666666666"/>
      <point x="70.76666666666667" y="83.46666666666667"/>
      <point x="70.76666666666667" y="197.93333333333334" type="curve" smooth="yes"/>
      <point x="70.76666666666667" y="353.56666666666666"/>
      <point x="228.33333333333331" y="527.0"/>
      <point x="443.4" y="527.0" type="curve" smooth="yes"/>
      <point x="628.4666666666667" y="527.0"/>
      <point x="758.6666666666667" y="426.26666666666665"/>
      <point x="758.6666666666667" y="244.7" type="curve" smooth="yes"/>
      <point x="758.6666666666667" y="125.36666666666666"/>
      <point x="691.0000000000001" y="21.0"/>
      <point x="589.6999999999999" y="21.0" type="curve" smooth="yes"/>
      <point x="484.6333333333333" y="21.0"/>
      <point x="490.46666666666664" y="152.29999999999998"/>
      <point x="563.9333333333334" y="251.6" type="curve"/>
      <point x="533.6333333333333" y="274.0333333333333" type="line"/>
      <point x="372.83333333333337" y="132.73333333333332"/>
      <point x="349.5" y="-62.96666666666666"/>
      <point x="507.93333333333334" y="-111.93333333333332" type="curve"/>
      <point x="507.3" y="-115.93333333333332" type="line"/>
      <point x="375.40000000000003" y="-145.70000000000002"/>
      <point x="315.53333333333336" y="-308.3666666666667"/>
      <point x="159.4" y="-308.3666666666667" type="curve" smooth="yes"/>
      <point x="73.26666666666667" y="-308.3666666666667"/>
      <point x="30.96666666666667" y="-249.46666666666664"/>
      <point x="56.4" y="-163.3" type="curve"/>
      <point x="29.5" y="-159.66666666666666" type="line"/>
      <point x="0.5999999999999996" y="-261.3"/>
      <point x="52.63333333333333" y="-336.0"/>
    </contour>
    <contour>
      <point x="97.26666666666667" y="-233.03333333333333" type="line"/>
      <point x="120.53333333333333" y="-233.03333333333333" type="line"/>
      <point x="150.53333333333336" y="-91.86666666666667" type="line"/>
      <point x="127.53333333333333" y="-91.86666666666667" type="line"/>
    </contour>
    <contour>
      <point x="105.26666666666667" y="-233.03333333333333" type="line"/>
      <point x="265.4666666666667" y="-233.03333333333333" type="line"/>
      <point x="269.8333333333333" y="-211.4" type="line"/>
      <point x="109.89999999999999" y="-211.4" type="line"/>
    </contour>
    <contour>
      <point x="174.0" y="-233.03333333333333" type="line"/>
      <point x="196.0" y="-233.03333333333333" type="line"/>
      <point x="213.73333333333332" y="-146.36666666666667" type="line" smooth="yes"/>
      <point x="217.36666666666665" y="-127.2"/>
      <point x="228.9" y="-111.23333333333333"/>
      <point x="248.23333333333335" y="-111.23333333333333" type="curve" smooth="yes"/>
      <point x="268.2" y="-111.23333333333333"/>
      <point x="276.3666666666667" y="-128.29999999999998"/>
      <point x="271.46666666666664" y="-151.9" type="curve" smooth="yes"/>
      <point x="254.36666666666665" y="-233.03333333333333" type="line"/>
      <point x="277.3666666666667" y="-233.03333333333333" type="line"/>
      <point x="294.09999999999997" y="-154.63333333333335" type="line" smooth="yes"/>
      <point x="303.3666666666667" y="-112.93333333333334"/>
      <point x="282.2" y="-89.23333333333333"/>
      <point x="250.86666666666667" y="-89.23333333333333" type="curve" smooth="yes"/>
      <point x="219.9" y="-89.23333333333333"/>
      <point x="199.0" y="-110.93333333333332"/>
      <point x="191.73333333333332" y="-145.63333333333333" type="curve" smooth="yes"/>
    </contour>
    <contour>
      <point x="221.89999999999998" y="-64.93333333333334" type="curve" smooth="yes"/>
      <point x="233.79999999999998" y="-64.93333333333334"/>
      <point x="243.06666666666666" y="-55.03333333333333"/>
      <point x="243.06666666666666" y="-43.766666666666666" type="curve" smooth="yes"/>
      <point x="243.06666666666666" y="-33.5"/>
      <point x="233.79999999999998" y="-23.23333333333333"/>
      <point x="221.89999999999998" y="-23.23333333333333" type="curve" smooth="yes"/>
      <point x="210.0" y="-23.23333333333333"/>
      <point x="199.73333333333332" y="-33.5"/>
      <point x="199.73333333333332" y="-43.766666666666666" type="curve" smooth="yes"/>
      <point x="199.73333333333332" y="-55.03333333333333"/>
      <point x="210.0" y="-64.93333333333334"/>
    </contour>
  </outline>
</glyph>
<glyph name="zero-tamil" format="2">
  <advance width="518.9333333333334"/>
  <unicode hex="0BE6"/>
  <note>
uni0BE6
</note>
  <outline>
    <contour>
      <point x="209.03333333333333" y="-4.0" type="curve" smooth="yes"/>
      <point x="371.5" y="-4.0"/>
      <point x="468.16666666666663" y="169.5"/>
      <point x="468.16666666666663" y="351.9333333333333" type="curve" smooth="yes"/>
      <point x="468.16666666666663" y="469.96666666666664"/>
      <point x="408.06666666666666" y="550.0"/>
      <point x="300.0" y="550.0" type="curve" smooth="yes"/>
      <point x="137.16666666666666" y="550.0"/>
      <point x="50.666666666666664" y="362.9"/>
      <point x="50.666666666666664" y="197.56666666666666" type="curve" smooth="yes"/>
      <point x="50.666666666666664" y="84.9"/>
      <point x="102.4" y="-4.0"/>
    </contour>
    <contour>
      <point x="209.03333333333333" y="21.0" type="curve" smooth="yes"/>
      <point x="120.66666666666667" y="21.0"/>
      <point x="77.3" y="100.26666666666667"/>
      <point x="77.3" y="200.36666666666665" type="curve" smooth="yes"/>
      <point x="77.3" y="346.06666666666666"/>
      <point x="154.16666666666666" y="526.0"/>
      <point x="296.6333333333333" y="526.0" type="curve" smooth="yes"/>
      <point x="390.5333333333333" y="526.0"/>
      <point x="440.53333333333336" y="454.9666666666667"/>
      <point x="440.53333333333336" y="348.7666666666667" type="curve" smooth="yes"/>
      <point x="440.53333333333336" y="189.0666666666667"/>
      <point x="354.6" y="21.0"/>
    </contour>
  </outline>
</glyph>
<glyph name="one-tamil" format="2">
  <advance width="697.9666666666667"/>
  <unicode hex="0BE7"/>
  <note>
uni0BE7
</note>
  <outline>
    <contour>
      <point x="179.23333333333332" y="-4.0" type="curve" smooth="yes"/>
      <point x="272.3" y="-4.0"/>
      <point x="333.3666666666667" y="48.66666666666667"/>
      <point x="359.90000000000003" y="171.36666666666667" type="curve" smooth="yes"/>
      <point x="382.3666666666667" y="275.0" type="line"/>
      <point x="455.6333333333334" y="275.0" type="line" smooth="yes"/>
      <point x="544.0666666666667" y="275.0"/>
      <point x="587.3666666666667" y="236.96666666666667"/>
      <point x="587.3666666666667" y="162.66666666666666" type="curve" smooth="yes"/>
      <point x="587.3666666666667" y="77.13333333333333"/>
      <point x="523.6" y="21.0"/>
      <point x="444.3666666666667" y="21.0" type="curve" smooth="yes"/>
      <point x="380.93333333333334" y="21.0"/>
      <point x="344.06666666666666" y="53.13333333333333"/>
      <point x="324.56666666666666" y="91.3" type="curve"/>
      <point x="303.2" y="72.76666666666667" type="line"/>
      <point x="325.43333333333334" y="34.5"/>
      <point x="368.93333333333334" y="-4.0"/>
      <point x="445.3666666666667" y="-4.0" type="curve" smooth="yes"/>
      <point x="540.6" y="-4.0"/>
      <point x="615.7333333333333" y="61.13333333333333"/>
      <point x="615.7333333333333" y="164.4" type="curve" smooth="yes"/>
      <point x="615.7333333333333" y="251.33333333333334"/>
      <point x="561.2666666666667" y="299.0"/>
      <point x="459.6333333333333" y="299.0" type="curve" smooth="yes"/>
      <point x="387.3666666666667" y="299.0" type="line"/>
      <point x="434.3666666666667" y="519.0" type="line"/>
      <point x="588.7333333333333" y="519.0" type="line"/>
      <point x="593.7333333333333" y="542.0" type="line"/>
      <point x="211.46666666666667" y="542.0" type="line"/>
      <point x="156.83333333333334" y="284.0" type="line"/>
      <point x="181.83333333333334" y="284.0" type="line"/>
      <point x="231.83333333333334" y="519.0" type="line"/>
      <point x="406.3666666666667" y="519.0" type="line"/>
      <point x="359.73333333333335" y="299.0" type="line"/>
      <point x="216.93333333333334" y="299.0" type="line" smooth="yes"/>
      <point x="105.16666666666667" y="299.0"/>
      <point x="33.96666666666667" y="226.86666666666667"/>
      <point x="33.96666666666667" y="135.0" type="curve" smooth="yes"/>
      <point x="33.96666666666667" y="56.03333333333333"/>
      <point x="89.83333333333333" y="-4.0"/>
    </contour>
    <contour>
      <point x="181.33333333333334" y="21.0" type="curve" smooth="yes"/>
      <point x="107.26666666666665" y="21.0"/>
      <point x="66.5" y="69.76666666666667"/>
      <point x="66.5" y="139.0" type="curve" smooth="yes"/>
      <point x="66.5" y="213.16666666666666"/>
      <point x="117.0" y="275.0"/>
      <point x="215.3" y="275.0" type="curve" smooth="yes"/>
      <point x="354.3666666666667" y="275.0" type="line"/>
      <point x="332.26666666666665" y="169.83333333333334" type="line" smooth="yes"/>
      <point x="312.0" y="71.83333333333333"/>
      <point x="258.4" y="21.0"/>
    </contour>
  </outline>
</glyph>
<glyph name="two-tamil" format="2">
  <advance width="808.8333333333334"/>
  <unicode hex="0BE8"/>
  <note>
uni0BE8
</note>
  <outline>
    <contour>
      <point x="92.23333333333333" y="0.0" type="curve" smooth="yes"/>
      <point x="729.9000000000001" y="0.0" type="line"/>
      <point x="734.9000000000001" y="23.0" type="line"/>
      <point x="94.6" y="23.0" type="line" smooth="yes"/>
      <point x="55.06666666666667" y="23.0"/>
      <point x="34.06666666666667" y="49.26666666666667"/>
      <point x="34.06666666666667" y="80.73333333333333" type="curve" smooth="yes"/>
      <point x="34.06666666666667" y="121.63333333333333"/>
      <point x="64.96666666666667" y="146.0"/>
      <point x="112.93333333333334" y="146.0" type="curve" smooth="yes"/>
      <point x="332.3" y="146.0" type="line" smooth="yes"/>
      <point x="477.8" y="146.0"/>
      <point x="587.7666666666667" y="227.8"/>
      <point x="587.7666666666667" y="371.93333333333334" type="curve" smooth="yes"/>
      <point x="587.7666666666667" y="485.90000000000003"/>
      <point x="501.40000000000003" y="551.0"/>
      <point x="377.8" y="551.0" type="curve" smooth="yes"/>
      <point x="238.23333333333335" y="551.0"/>
      <point x="134.43333333333334" y="455.03333333333336"/>
      <point x="134.43333333333334" y="327.06666666666666" type="curve" smooth="yes"/>
      <point x="134.43333333333334" y="217.73333333333332"/>
      <point x="211.16666666666666" y="150.63333333333333"/>
      <point x="320.96666666666664" y="150.63333333333333" type="curve"/>
      <point x="325.96666666666664" y="170.0" type="line"/>
      <point x="229.33333333333334" y="170.0"/>
      <point x="160.7" y="230.36666666666667"/>
      <point x="160.7" y="329.3333333333333" type="curve" smooth="yes"/>
      <point x="160.7" y="440.03333333333336"/>
      <point x="251.23333333333332" y="527.0"/>
      <point x="375.8" y="527.0" type="curve" smooth="yes"/>
      <point x="484.33333333333337" y="527.0"/>
      <point x="558.1333333333333" y="469.9"/>
      <point x="558.1333333333333" y="368.93333333333334" type="curve" smooth="yes"/>
      <point x="558.1333333333333" y="241.43333333333334"/>
      <point x="458.3666666666667" y="170.0"/>
      <point x="332.6666666666667" y="170.0" type="curve" smooth="yes"/>
      <point x="116.83333333333333" y="170.0" type="line" smooth="yes"/>
      <point x="52.5" y="170.0"/>
      <point x="7.8" y="138.7"/>
      <point x="7.8" y="78.1" type="curve" smooth="yes"/>
      <point x="7.8" y="37.266666666666666"/>
      <point x="36.699999999999996" y="0.0"/>
    </contour>
  </outline>
</glyph>
<glyph name="three-tamil" format="2">
  <advance width="807.5333333333333"/>
  <unicode hex="0BE9"/>
  <note>
uni0BE9
</note>
  <outline>
    <contour>
      <point x="57.43333333333333" y="0.0" type="line"/>
      <point x="82.8" y="0.0" type="line"/>
      <point x="192.8" y="519.0" type="line"/>
      <point x="392.6666666666667" y="519.0" type="line"/>
      <point x="322.03333333333336" y="188.0" type="line"/>
      <point x="350.66666666666663" y="188.0" type="line"/>
      <point x="354.7666666666667" y="208.86666666666667" type="line" smooth="yes"/>
      <point x="365.40000000000003" y="260.2333333333333"/>
      <point x="411.20000000000005" y="332.0"/>
      <point x="487.09999999999997" y="332.0" type="curve" smooth="yes"/>
      <point x="542.2" y="332.0"/>
      <point x="572.8" y="294.9333333333333"/>
      <point x="572.8" y="236.5" type="curve" smooth="yes"/>
      <point x="572.8" y="120.63333333333334"/>
      <point x="462.3666666666667" y="23.0"/>
      <point x="354.2" y="23.0" type="curve" smooth="yes"/>
      <point x="287.03333333333336" y="23.0" type="line"/>
      <point x="282.03333333333336" y="0.0" type="line"/>
      <point x="721.2666666666667" y="0.0" type="line"/>
      <point x="726.2666666666667" y="23.0" type="line"/>
      <point x="442.5" y="23.0" type="line"/>
      <point x="533.9333333333334" y="58.56666666666667"/>
      <point x="603.4333333333334" y="138.86666666666665"/>
      <point x="603.4333333333334" y="238.23333333333332" type="curve" smooth="yes"/>
      <point x="603.4333333333334" y="311.73333333333335"/>
      <point x="559.0333333333333" y="355.0"/>
      <point x="492.73333333333335" y="355.0" type="curve" smooth="yes"/>
      <point x="431.8333333333333" y="355.0"/>
      <point x="393.03333333333336" y="319.23333333333335"/>
      <point x="372.0333333333333" y="287.1333333333333" type="curve"/>
      <point x="420.6666666666667" y="519.0" type="line"/>
      <point x="587.0333333333334" y="519.0" type="line"/>
      <point x="591.6666666666667" y="542.0" type="line"/>
      <point x="172.79999999999998" y="542.0" type="line"/>
    </contour>
  </outline>
</glyph>
<glyph name="five-tamil" format="2">
  <advance width="930.1666666666666"/>
  <unicode hex="0BEB"/>
  <note>
uni0BEB
</note>
  <outline>
    <contour>
      <point x="349.56666666666666" y="-278.0" type="curve" smooth="yes"/>
      <point x="605.0" y="-278.0"/>
      <point x="770.3" y="-72.56666666666666"/>
      <point x="770.3" y="171.33333333333334" type="curve" smooth="yes"/>
      <point x="770.3" y="274.8666666666667"/>
      <point x="719.8000000000001" y="328.0"/>
      <point x="645.1666666666666" y="328.0" type="curve" smooth="yes"/>
      <point x="567.9666666666667" y="328.0"/>
      <point x="518.3666666666667" y="270.3666666666667"/>
      <point x="498.2" y="176.33333333333331" type="curve" smooth="yes"/>
      <point x="494.4666666666667" y="158.66666666666666" type="line"/>
      <point x="510.2666666666667" y="158.66666666666666" type="line"/>
      <point x="513.6333333333333" y="174.86666666666667" type="line" smooth="yes"/>
      <point x="528.7" y="245.86666666666667"/>
      <point x="569.8666666666667" y="304.0"/>
      <point x="641.6999999999999" y="304.0" type="curve" smooth="yes"/>
      <point x="702.8000000000001" y="304.0"/>
      <point x="740.3" y="261.1333333333333"/>
      <point x="740.3" y="171.43333333333334" type="curve" smooth="yes"/>
      <point x="740.3" y="-59.36666666666667"/>
      <point x="579.0333333333333" y="-252.0"/>
      <point x="349.93333333333334" y="-252.0" type="curve" smooth="yes"/>
      <point x="160.3" y="-252.0"/>
      <point x="52.766666666666666" y="-97.43333333333332"/>
      <point x="52.766666666666666" y="130.63333333333333" type="curve" smooth="yes"/>
      <point x="52.766666666666666" y="424.3"/>
      <point x="213.53333333333333" y="761.0"/>
      <point x="522.8333333333334" y="761.0" type="curve" smooth="yes"/>
      <point x="729.6" y="761.0"/>
      <point x="862.1999999999999" y="621.5"/>
      <point x="860.1333333333333" y="398.1333333333333" type="curve"/>
      <point x="887.4" y="398.1333333333333" type="line"/>
      <point x="896.9333333333334" y="640.1"/>
      <point x="746.4333333333333" y="792.0"/>
      <point x="527.5666666666667" y="792.0" type="curve" smooth="yes"/>
      <point x="195.0" y="792.0"/>
      <point x="24.766666666666666" y="442.5"/>
      <point x="24.766666666666666" y="126.19999999999999" type="curve" smooth="yes"/>
      <point x="24.766666666666666" y="-109.06666666666666"/>
      <point x="138.03333333333333" y="-278.0"/>
    </contour>
    <contour>
      <point x="215.03333333333333" y="0.0" type="line"/>
      <point x="240.03333333333333" y="0.0" type="line"/>
      <point x="350.0333333333333" y="519.0" type="line"/>
      <point x="559.1666666666666" y="519.0" type="line"/>
      <point x="449.1666666666667" y="0.0" type="line"/>
      <point x="476.5333333333333" y="0.0" type="line"/>
      <point x="586.9" y="519.0" type="line"/>
      <point x="731.3" y="519.0" type="line"/>
      <point x="736.3" y="542.0" type="line"/>
      <point x="330.03333333333336" y="542.0" type="line"/>
    </contour>
  </outline>
</glyph>
